<mxfile host="app.diagrams.net" agent="Mozilla/5.0 (Windows NT 10.0; Win64; x64) AppleWebKit/537.36 (KHTML, like Gecko) Chrome/128.0.0.0 Safari/537.36" version="24.7.16">
  <diagram name="Page-1" id="Tw8-70QPXltHSjRJw4Im">
    <mxGraphModel dx="1600" dy="669" grid="1" gridSize="10" guides="1" tooltips="1" connect="1" arrows="1" fold="1" page="1" pageScale="1" pageWidth="1100" pageHeight="850" math="0" shadow="0">
      <root>
        <mxCell id="0" />
        <mxCell id="1" parent="0" />
        <mxCell id="m6Iovzg8GHnj-0ou7R1F-43" value="" style="rounded=0;whiteSpace=wrap;html=1;" vertex="1" parent="1">
          <mxGeometry x="10" width="1940" height="350" as="geometry" />
        </mxCell>
        <mxCell id="m6Iovzg8GHnj-0ou7R1F-42" value="" style="rounded=0;whiteSpace=wrap;html=1;" vertex="1" parent="1">
          <mxGeometry x="42.44" y="830" width="507.56" height="660" as="geometry" />
        </mxCell>
        <mxCell id="m6Iovzg8GHnj-0ou7R1F-41" value="" style="rounded=0;whiteSpace=wrap;html=1;" vertex="1" parent="1">
          <mxGeometry x="20" y="400" width="2150" height="310" as="geometry" />
        </mxCell>
        <mxCell id="2" value="User Uploads Image" style="whiteSpace=wrap;strokeWidth=2;" parent="1" vertex="1">
          <mxGeometry x="40" y="121" width="201" height="49" as="geometry" />
        </mxCell>
        <mxCell id="3" value="Image is Sent to Server" style="whiteSpace=wrap;strokeWidth=2;" parent="1" vertex="1">
          <mxGeometry x="434" y="120" width="226" height="49" as="geometry" />
        </mxCell>
        <mxCell id="4" value="Extracted Text is Returned to Client" style="whiteSpace=wrap;strokeWidth=2;" parent="1" vertex="1">
          <mxGeometry x="880" y="54" width="250" height="67" as="geometry" />
        </mxCell>
        <mxCell id="5" value="Client Approval" style="rhombus;strokeWidth=2;whiteSpace=wrap;" parent="1" vertex="1">
          <mxGeometry x="1364" y="8" width="159" height="159" as="geometry" />
        </mxCell>
        <mxCell id="6" value="Image Processing Complete" style="whiteSpace=wrap;strokeWidth=2;" parent="1" vertex="1">
          <mxGeometry x="1637" y="41" width="256" height="49" as="geometry" />
        </mxCell>
        <mxCell id="7" value="Client Updates Image" style="whiteSpace=wrap;strokeWidth=2;" parent="1" vertex="1">
          <mxGeometry x="1658" y="170" width="214" height="49" as="geometry" />
        </mxCell>
        <mxCell id="8" value="Drag and Drop or Select File" style="curved=1;startArrow=none;endArrow=block;exitX=1;exitY=0.5;entryX=0;entryY=0.5;" parent="1" source="2" target="3" edge="1">
          <mxGeometry relative="1" as="geometry">
            <Array as="points" />
          </mxGeometry>
        </mxCell>
        <mxCell id="9" value="Server Processes Image using OCR" style="curved=1;startArrow=none;endArrow=block;exitX=0.92;exitY=0;entryX=0;entryY=0.5;" parent="1" source="3" target="4" edge="1">
          <mxGeometry relative="1" as="geometry">
            <Array as="points">
              <mxPoint x="770" y="87" />
            </Array>
          </mxGeometry>
        </mxCell>
        <mxCell id="10" value="Client Displays Extracted Text" style="curved=1;startArrow=none;endArrow=block;exitX=1;exitY=0.5;entryX=0;entryY=0.5;" parent="1" source="4" target="5" edge="1">
          <mxGeometry relative="1" as="geometry">
            <Array as="points" />
          </mxGeometry>
        </mxCell>
        <mxCell id="11" value="Approve" style="curved=1;startArrow=none;endArrow=block;exitX=1;exitY=0.42;entryX=0;entryY=0.51;" parent="1" source="5" target="6" edge="1">
          <mxGeometry relative="1" as="geometry">
            <Array as="points">
              <mxPoint x="1580" y="66" />
            </Array>
          </mxGeometry>
        </mxCell>
        <mxCell id="12" value="Reject" style="curved=1;startArrow=none;endArrow=block;exitX=1;exitY=0.68;entryX=0.13;entryY=-0.01;" parent="1" source="5" target="7" edge="1">
          <mxGeometry relative="1" as="geometry">
            <Array as="points">
              <mxPoint x="1580" y="137" />
            </Array>
          </mxGeometry>
        </mxCell>
        <mxCell id="13" value="" style="curved=1;startArrow=none;endArrow=block;exitX=0;exitY=0.68;entryX=0.87;entryY=1;" parent="1" source="7" target="3" edge="1">
          <mxGeometry relative="1" as="geometry">
            <Array as="points">
              <mxPoint x="1580" y="210" />
              <mxPoint x="770" y="210" />
            </Array>
          </mxGeometry>
        </mxCell>
        <mxCell id="m6Iovzg8GHnj-0ou7R1F-13" value="User Uploads Image" style="whiteSpace=wrap;strokeWidth=2;" vertex="1" parent="1">
          <mxGeometry x="40" y="482" width="201" height="49" as="geometry" />
        </mxCell>
        <mxCell id="m6Iovzg8GHnj-0ou7R1F-14" value="Image is Sent to Server" style="whiteSpace=wrap;strokeWidth=2;" vertex="1" parent="1">
          <mxGeometry x="466" y="482" width="226" height="49" as="geometry" />
        </mxCell>
        <mxCell id="m6Iovzg8GHnj-0ou7R1F-15" value="Extracted Text is Returned to Client" style="whiteSpace=wrap;strokeWidth=2;" vertex="1" parent="1">
          <mxGeometry x="912" y="473" width="250" height="67" as="geometry" />
        </mxCell>
        <mxCell id="m6Iovzg8GHnj-0ou7R1F-16" value="Additional Action?" style="rhombus;strokeWidth=2;whiteSpace=wrap;" vertex="1" parent="1">
          <mxGeometry x="1396" y="417" width="179" height="179" as="geometry" />
        </mxCell>
        <mxCell id="m6Iovzg8GHnj-0ou7R1F-17" value="Action Description" style="rhombus;strokeWidth=2;whiteSpace=wrap;" vertex="1" parent="1">
          <mxGeometry x="1653" y="506" width="182" height="182" as="geometry" />
        </mxCell>
        <mxCell id="m6Iovzg8GHnj-0ou7R1F-18" value="End" style="whiteSpace=wrap;strokeWidth=2;" vertex="1" parent="1">
          <mxGeometry x="2016" y="541" width="86" height="49" as="geometry" />
        </mxCell>
        <mxCell id="m6Iovzg8GHnj-0ou7R1F-19" value="Drag and Drop or Select File" style="curved=1;startArrow=none;endArrow=block;exitX=1;exitY=0.5;entryX=0;entryY=0.5;" edge="1" parent="1" source="m6Iovzg8GHnj-0ou7R1F-13" target="m6Iovzg8GHnj-0ou7R1F-14">
          <mxGeometry relative="1" as="geometry">
            <Array as="points" />
          </mxGeometry>
        </mxCell>
        <mxCell id="m6Iovzg8GHnj-0ou7R1F-20" value="Server Processes Image using OCR" style="curved=1;startArrow=none;endArrow=block;exitX=1;exitY=0.5;entryX=0;entryY=0.5;" edge="1" parent="1" source="m6Iovzg8GHnj-0ou7R1F-14" target="m6Iovzg8GHnj-0ou7R1F-15">
          <mxGeometry relative="1" as="geometry">
            <Array as="points" />
          </mxGeometry>
        </mxCell>
        <mxCell id="m6Iovzg8GHnj-0ou7R1F-21" value="Client Displays Extracted Text" style="curved=1;startArrow=none;endArrow=block;exitX=1;exitY=0.5;entryX=0;entryY=0.5;" edge="1" parent="1" source="m6Iovzg8GHnj-0ou7R1F-15">
          <mxGeometry relative="1" as="geometry">
            <Array as="points" />
            <mxPoint x="1396" y="506.4999999999998" as="targetPoint" />
          </mxGeometry>
        </mxCell>
        <mxCell id="m6Iovzg8GHnj-0ou7R1F-22" value="Yes" style="curved=1;startArrow=none;endArrow=block;exitX=1;exitY=0.85;entryX=0;entryY=0.5;" edge="1" parent="1" target="m6Iovzg8GHnj-0ou7R1F-17">
          <mxGeometry relative="1" as="geometry">
            <Array as="points">
              <mxPoint x="1614" y="596" />
            </Array>
            <mxPoint x="1538.1470588235288" y="543.3529411764705" as="sourcePoint" />
          </mxGeometry>
        </mxCell>
        <mxCell id="m6Iovzg8GHnj-0ou7R1F-23" value="No" style="curved=1;startArrow=none;endArrow=block;exitX=1;exitY=0.32;entryX=0.14;entryY=-0.01;" edge="1" parent="1" target="m6Iovzg8GHnj-0ou7R1F-18">
          <mxGeometry relative="1" as="geometry">
            <Array as="points">
              <mxPoint x="1614" y="459" />
              <mxPoint x="1925" y="459" />
            </Array>
            <mxPoint x="1551.3088235294117" y="482.8088235294117" as="sourcePoint" />
          </mxGeometry>
        </mxCell>
        <mxCell id="m6Iovzg8GHnj-0ou7R1F-24" value="Implement Action" style="curved=1;startArrow=none;endArrow=block;exitX=1;exitY=0.29;entryX=0;entryY=0.21;" edge="1" parent="1" source="m6Iovzg8GHnj-0ou7R1F-17" target="m6Iovzg8GHnj-0ou7R1F-18">
          <mxGeometry relative="1" as="geometry">
            <Array as="points">
              <mxPoint x="1925" y="522" />
            </Array>
          </mxGeometry>
        </mxCell>
        <mxCell id="m6Iovzg8GHnj-0ou7R1F-25" value="Update UI" style="curved=1;startArrow=none;endArrow=block;exitX=1;exitY=0.44;entryX=0;entryY=0.56;" edge="1" parent="1" source="m6Iovzg8GHnj-0ou7R1F-17" target="m6Iovzg8GHnj-0ou7R1F-18">
          <mxGeometry relative="1" as="geometry">
            <Array as="points">
              <mxPoint x="1925" y="575" />
            </Array>
          </mxGeometry>
        </mxCell>
        <mxCell id="m6Iovzg8GHnj-0ou7R1F-26" value="Send Notification" style="curved=1;startArrow=none;endArrow=block;exitX=1;exitY=0.56;entryX=0;entryY=0.84;" edge="1" parent="1" source="m6Iovzg8GHnj-0ou7R1F-17" target="m6Iovzg8GHnj-0ou7R1F-18">
          <mxGeometry relative="1" as="geometry">
            <Array as="points">
              <mxPoint x="1925" y="618" />
            </Array>
          </mxGeometry>
        </mxCell>
        <mxCell id="m6Iovzg8GHnj-0ou7R1F-27" value="" style="shape=image;verticalLabelPosition=bottom;labelBackgroundColor=default;verticalAlign=top;aspect=fixed;imageAspect=0;image=data:image/png,iVBORw0KGgoAAAANSUhEUgAAAt0AAAClCAYAAACA2UF3AAAAAXNSR0IArs4c6QAAAARnQU1BAACxjwv8YQUAAAAJcEhZcwAADsMAAA7DAcdvqGQAAD48SURBVHhe7Z1PaCRHlv/f/C59cp1Up9ZpqnWoZmAFgi78g7ZnYIoVuPGaFgMWIyizAzY7P1Z4wM0UtMYHWw1lesBGw28GD3jpAhn9YJCxjRtqqQXbY7CpBoEWjOsgyif1STrVnvo0vxd/MjMiM7IyMqtSXaX+fpq0S1n5J+K9FxEvIl5E/eTatWv/IAAAAAAAAEBp/C/9fwAAAAAAAEBJwOkGAAAAAACgZOB0AwAAAAAAUDJwugEAAAAAACgZON0AAAAAAACUzMU63a19Ojo5oRN59KijT9PNDvW+V+e///Ijal3V5wGYQKcX2NIJHe239FkAAAAAgPnDz+l+/W/0fegsi+NL+vMN/d0MaL3RpNoV9fnK8io1f6k+g3mAO0SW7pX+30/T/+2P6Nv49Uf7BJcYAAAAAM8yXk73W806aZ9Ys0yrb7ykP09P98M+jZ6oz09OB9Tvqs9lcvXGbXrr/X367Msj+r4XjrkvKFfpxu236P39z+jLo++p/Oyw/l9ze923X6pTVX8GAAAAAAAKD6f7Lt1ctV1uQbV+m2bmdn/TpvWfrdDKygr97Be/pQvwuemX23fpjVsNur5ciXUoFpFf0vbdN+hW4zotVy4mN8v11yjpdrNN1OFyAwAAAADEyXS6r75zg67rzzQa0Uh/ZK+bbt/Wn8EzwpjGekaCvW5KDHbffokCn/vs7Ex9AAAAAAAAWU73VXrjn0KXm05//CsNT/UfVKX6S2le91V69f3P6NujIK73ezr67B26qb9N0OkZMcDRAsvW/lF0PhYXbH1nxVPU9bu/j77n939/9C199Dp/rRdz7jQq6nJBbUNfd0RyPZ614FOdu3l3n77Uiz1Pvv+S9u/q3Ny8S/tfRmn5/st9Cr6yuPoS3f2oR0fBM8S1nKbP3n+VU2yQkEWdXv8z3xec+/6IPnvnJZawQslhh+zs6GsNmdVffZ8++/bIis3/np/1rRSKL2M6C/W/TPWY1x2FlrBzPk4bcWfbuPsR/U2E9RiyEPn69rP36VXXIlqW8Uc9I+1HX9JHWattPeV9853PQtlOtFEAAAAAgCmY7HRf/Xe6EfrcpzR88AkdRF43VVdvOxbIXWVH8HN699Z1qoaO4BWqXN+kDzaX9N9lcZN91r/pd5tO3xW6UqnS1Z/qP3Nypdmjv7zWoOXgkVeWqfHae/TRqy3a/+A1aixHHu+V5Qa99t5HZHVHrvJ1n39Ar71QIzNZIk3Xb71L+5/ddYRqKJb39+lOk+/Tf/NNdH3zPfrgLf8tXm6yI/+3d2/RdVaIJRV+VjWXUJ7Qj4b+7RATI7TkyY80PFcfk/ySbt1+gVZFWI+VGE7L9Vv07uexRZdiZ5u/vEYv1Iy0V5bphTsfkSPqSZFD3i+xgQeyrVy/Sbf/Sf8BAAAAADBDJjrdN95qUE1/prMf6eEjokcPf6QwcKBSp2bc6379A7pjDrsaVGqG81gGr2/TrWAbFBrT8Ye/pp+vrNDL/3qfDo9P6X/E6e4WrfG53cFYXiUZHcp48pWVNdpKBJRXaLVRc8R9V6mxc8caYQ6prtLtUC43qPNRdN34+AG9+fMV+vmvP6QgCaJDcsc54FyjhvMFV2j15mvyU3drjdO9Gz5LMDpU8fEra1vUpddp+1aU/vHxh/Rrfv/Ky/9K9w+P6VQKxZ/xAd+jP1shJkZoyZNhn47VRydPzkY0OLxP//brn8t0mrKgSoNuvxN0KG7Q++9shDvbWFypUW1Zf7bIJ++Hj35gS1GMf/iGPvlv/QcAAAAAwAyZ4HTfoM3VyKs5G35CD8WHh5/QMPK6afWW7S3efWnVcFDZ8X3wpnJ8f39Ax4ZjWAo/fc549xManz6mx/xp+M1fqf2rX9Cv2uqb3Jz26Q8vs+P25hfhLisCMVI7+uL39PLKz+nNL6IRYCGXpSCG4aU36IXQa/yBHr55jx5yoh4/+iPtDYJ7rtBPX0jOGQiejL5QTmPs3cLhfVV/nMxP6TnDaX0yPqXHSij01/av6Bd5hcLpHoSB/VGISRRa8oSG/b/KT2669Jv1ddpq/5X+69Fjunrjl7RaHdPpWWQcyz/Ve0ay7BqGY/1E62Hl57+m3f4pv8lBTnl/8/a/yE6YcP7X/uVt+kaeBQAAAACYLelO943XKPK5z2j4ULrczEN6GHnddKXepMjtblHdcJLGgz361b2HyvH95G361cGx21GaFd88jkbh2QV84d2v6PujHu13WnTDPxojxhM6fvhb+n9Ddtwe/o4OzJ7D+JgOfsedEM7hw9/9F7t4Dm5e1c6o4DptfhXFGH/cjIRVCb10k1P6+9u/U05j/N2M4UtP4Bt6bKxprL7wLn31/RH19jvUKiSUx/Sn49Dr1iEmLbq9qnPJMvliks/N3Hz9zzK+XMjgq4//Qh98cIc2atGIfigLS3Yj+mJL6YE9aOr+9vf0d7OfEzCVvAEAAAAAyiHV6b7xWp0iF4Ud2Pci5+W9FyK3hr1uaqasxTs7jcVqnD0p1+l++DZ9yJ6Y+Y4rlRo1Nnbo4//sUafQKjlOs+G0pnNK/zPzkfwnNH6kPxbmIb394d/p1BYK1RobtPPxf1KvgFAe/+lR1MEQISZvNakehHMM+xO3fLzR6dFf7jRlfLnkCct3fEojto2JjM9pKHpvIY+inVQAAAAAAOacFKf7JXrDCC2ZzBWqN9/Sn20qVXt3k6u152YW0738nOtJj6n7m1/QP/96lw4HI9spu1KjjXfeJ+eCxStXwt1AyuUHOhDx1DqcwTrWi8a+JLlyxc7N4+5v6Bf//GvaPRzQyBYK1TbeSf91yTQef0j/HXndVH/pqtbrmIYTf9mI7eqFIL78Cf3w4GVa+dnP6Gdrv6A/DTN6LJXnqGZl67axUDeNi5E3AAAAAEAWbqf79u1wUZwPV+oNUm73kMaG71Rt/Dv9uXVDOrT12+/TR7ej7Qd9OH9iOIiVVbott8q7Sjfe2qdJj3r8qEvtrXVa+9nLdN8MyahU7e35ApZX6S12HEtheB4u1BPhDi999D69flOnon6TXn3nI/ryb7P9Ccnl1bcokR0RktHeovW1n9HL94+NNFXElus5eUxvP4qCaZaXdQdtPMz4NdGbdNW0qys/Vbbx6p/prYbD4M7/x5i1YNl98A7dFmm9eoPe2r9L5oRLyFOQNwAAAABAFk6n2/4p7xEdukYLHxgRzFdWxVbKzCN6cGwE2l5ZpubOx/TVyQl9/t4t9y4UE3g4fGw4XVfo+uYH/Kyv6OM3Gu4R887f6NvP2IG7rRx9qtepbq4i5B6BCAkWDM3eAS3TrQ++onCf7lnS/YSOjfCUSu0W3fmPz1Wozuf/Qe9uvkDLz+kvC2N3dmj5Fn0gYpnlPt0d+tu3n9Gf37qt49pZJnVzwelY+Mr5uWeEmGiyQktEOs/DdAb6ZNt4txltx2jyxz4NrX7XJr33Oefrq4/pjZQdcvLKG/t0AwAAAOAicDvdwaI4weiY/mTF0moe/LfldF2/Ib1uevTHB9b2dRFPaDQwR1g9+OMX7h1PxgP6wvmS56h6vUlvvKcc/ZPP37O2EBw8uMfdAsWjB8bWd6XyiYypzgpZno5YZyfGc9Xr1HzjPfpYLir8nN4ztxAcPBD+cwHu0TfHZqayQksEXeq7wkiejGjgVPRfae+LkdHxMmAbiHZRMcknb3uf7hv0kv4MAAAAADBLnE73qjGIeDr8hFw+tx3Xy7DDIrdXftylrZf/QF/8cBY52E/O6Pjg9/Sbfl7Pk5/1Jjvxp5FD9uR0QA/e3HLvA/3jj3Q6ji3WfDKms9Hf+Z6Xaatr5OTR7+i39/s0Mny98Q8P6cMsv7EAIqb6f//bfeoLmZiJC9L2pz/pE8V59Lvf0v3+yOjUjOmHhx+yBH+kH1l+ZqQOv5jGZyP6+4M36eWtrlu/HvxxMIxkfXZMn3jIrrv1Jj0YnEbpHI/oi93fUJppfNNep3978HcrFn086tP9ra3UTlMeeX/yTdQRHP/wSG2LCQAAAAAwY35y7dq1f+jPT42r739JX90KFm7+QA9W/oXu6b8AAAAAAABYdFJ2L7lA6q/SO+YvoJydT/w1QwAAAAAAABaNp+h0d6gn467ftXahOBs+xBQ/AAAAAAC4VDz9kW6T8YA+fPsT/QcAAAAAAACXgzlxup/QePQF/WFri8y1jgAAAAAAAFwG5mIhJQAAAAAAAJeZ+QovAQAAAAAA4BICpxsAAAAAAICSgdMNAAAAAABAycDpBgAAAAAAoGTgdAMAAAAAAFAycLoBAAAAAAAoGTjdAAAAAAAAlAycbgAAAAAAAEoGTjcAAAAAAAAlA6cbAAAAAACAkoHTDQAAAAAAQMnA6QYAAAAAAKBk4HQDAAAAAABQMnC6AQAAAAAAKBk43QAAAAAAAJQMnG4AAAAAAABKBk43AAAAAAAAJQOnGwAAAAAAgJKB0w0AAAAAAEDJwOkGAAAAAACgZOB0AwAAAAAAUDJwukuhQ72TEzrab+m/J9Dp0QlfK45eR5+bIa39I352j1NUgNY+HZ0ckU82wDOItF3Yhyon5ZRfC/0eUVd41S056fT42aVnAoDLQIv2j3zLSw5/4DJzUfXknLPQTrdyKFUjFB6GRqdyOGeMbNCO9rmoGginZaNKg90VWllZofV2ynVgJsyTPZhA5yllWR7PnlPvtFPRYO006OxQ1RVrW139BZg/5tzJ0s6PSp92Hq0yJ475qydLIejIXtr6V9liUr9P2z613T2D7d6COt1KYTv1Ie1yAyQaIXnsDmisr1gEOqs1ovGQ+nPQfl6uUS5V0WDQbtEY0aFZnsVxeEaNHf/KWTqsl7AibzXrVGH5HHPHfGqko/F0OjOXbTR98eyN287tBtFg1+64jQ6tcnc4qtFGSTYyTzYgy9V4TONKnZpPW4kllssx69vUrziebse9S1truzSgBm0/Vef/4llMp7uzSY3KmAZ7W6w6g+4WrYnhYk13a42Na51m0U5NS3udDX0tll4HvteB/MyTPZhA5xNor7PODmlUadDOM9KLmlc7Bb60af2pOzUpyLZzRP2MtLXXucxxN6/+1D3RMmlRs85d2f4eDceXPa/zCDvefbayxuazMauiWUinu7Vc5f+e0Sm8FACeAdp0MBgT1VafqcoZgFkjZ1dHxx4dujYdj4gqS3X99yVEd0CO213qD8dUqTcv3QzZ3NM+5s5djVafoYr9wpzupaUlun//Pn333XfyEJ/FuSJ0+0Mas6KaGdMSydjIKOxATnEF8U3B9KCxqFEc8YG1aCoxHieVHf9mxe3qOLINrv+4m0c74hn6O+s6Ayu9fDgH/YL4tODg52RWmTrPMi21DX1vMj/2+935VfKOrvOPGUvGnSXuNabeJslCfbfB1iGyo6/RFyTtQRPTuyuOOFX3CUUkYySz5BDXuf+7HKTKyU9n6bbsb/PF7SCdoMynVs7a9ncalahMxfXooed0HLGvE/WRtOn49VI/4lyYLiVT207Vc2S+OP8b+rp+zGYi1PVumes87DSowv9k2I7r2lg94n6Wvz1I0uoZ/a64KJXtxp5p2HZIYZ069OmUZ4reJ9pbmg6SNpF2jXqFWY4c+UrkPUMH/K3yuYvOoXiWgbR0pdmA+G4CPnVUWlmahNkBkfUL63Ez5aZknZbestr1bkpbbeFTLn1spwBBWY8lUuU3b1nLWSdIVOeu9gx53RfmdN+9e5deeeUV6WiLQ3wW5wrR3aK9AfdMGzueirURztjqsY5tEnHgXNi2j9jImudhjPguP7+24arA67R9skrH+rqVlV0ajEVjmCMdIgyG7z1kY6PxQL0zNbxAFciNqr5OHHyjyINVTkSBMBZayTwM67QhG+sJyOl7nZYwrs+c2laVQCivIL+xBkpUNDuNsygml+XKN2ZXDLIgb1B1YMSc6XtdFXp920xLoKdIFjJUQ4Qj8OdRIAsj5CiOrCCNxazqmeL1jspSNq6G7oXtcOMR5VHoaocaZ0Z8JF9zpr/NRea7JuGjM2VXls74cMZyyoo5pqNDog3ZetoUtoMsuqdSjtXllOfoMiXsISxTK2sUzKLn0nMC0ZiwXskog9rG0mjtN4mFEL4rVX/VJh2tHuvrXCElKlRB5ovfqOS6Tk05DJmMQxXvrfF17vABEUep08L/AllYYRDCGdom2pPv4YMrBlHPWjJy2IOymwl1YFo90+3TUE5iWC8gOZkZ62Sp+NtoDcxUOu1sUn1oxrm6Qpgm6D3D3hLkrOdEnbZNe+G1hyNRpg35iufF8i5lO4nWMlU59X4+t3LQx+dD9afUeaxuE7IQ9mLWK5PSldnWxMlRRwkyy5JJrAPitENFok7j+nRY36Bk0+poq1VFKQeB0skolzltJxfCjoVCas1Inqzrbc7c6DCyZ+mEc30ftql87A6Mlq1InaAZnrPgq8uRDV1yLszpfvHFF/WnCNc5X2TcozRSoVjfXpWGC3zoh7HR9dnmKlyAzBjx7lafqydHnBdfN9w1C7QoMKIizh55L4Qrfp0rL1VOgsqOC3uzJhdLmP6lkFFmReyB/VwVh2U1+Fzg+PUsVkMuLFfVMZoUrxWl22r4XRWBRArfmcdIFjmQ6RaVnN1Ypj9TXGvnUYkimJas0xIn0RpJ4mvWU1viSWS9azKZOtNTq4exxqm9Lhx0buCNIZ/OZoMqXGYsHbENKkfQoLAdlExuPdt0etxoCsfK6hizM2waYgzxbOvrQH/x6frKGfUnPCeV9kFCT6I8iRhVv/CBNNgmzHzK97CMDGdE2gPLY88QpooBLlIHqql9K3So1aQ62+aI5RV1slTexsO+StuUOhX2a8dc6xAmo/Evonc3ees5Jlbe2geqrQvUIEMsY4vw2+t2WU5QXxI1qAfCeVR5D3Qc1AH2AAbLQrTBxghxoXSlkaOOkuQpS51VlqbZAXHYoSC0MzMNQZsfI0hv3F6kn1KUArbjQA1QCj8pOIxOi/QnWJ7bqswEug5FyTJQTrjaYS2gu7Uelr1p6oTuKTvvlaXsWflLwmIupAwQhqd7fcr5do1MJ4lPr8melm+MuHO3kSGJR5QR/6amwPpWwyKQaQ4MVTZSYxo6tkFReZsGx3OH53y2QkF21QjUgA5ssarCRFVKG5yclG4V6xXv9EzIY4FCGx85M2m7RhId19rvVnbgniHJSea7JpGts/TYznjjkz4lrfQbUdgOSia3ni30iF/g7OVCOC9RQycnBuIjOuNztpoipDmr7CDEFZCHhE10SakvSLe2h77pWAiK14EqdCiyD6kvTscBPzDeoT3TlfR0Oo2Qo+VaPypUJChf0+g9Ru56zlHeYjM9ylGJj8x7kGZvYsRay+EkGNEOncf0OiA+Qlw4XQ786yiNd1lSjmz82a4QtnQ7U/ZukpperbtCFLAdF8JpD0ag1WF3VqWDLDpPvR7XU9xxMLxrKQN+k0v9iinrBNk2PTtcmNP99ddf608RrnOFkM637v3q3trlQE+zWhWi0UAEeI9glENdtIaioo2lUUxHTWQe0j1T1DShmgpWMpg6rKIUgul7D+SUtB+F7cAHmY6UxieDqfSs8x84e74oZ27HCmEQA1MJzk4LO3VxJ2GSIzoztDzC9RLhwY5aUTFLxy1wHvSOEtzCqzhb7TzHRianLbtBjO4GReES1sxNQb07KaOeE6EaYrApbBtyzPS6EKPYWg7yMIc0c9QBs0tXjjoqwLcsSUeW/x9vV2VMNZ82Zkn87axAen24sDayTetcQdVqIoTEnlmQMpjUoSmjTrjEXJjTfe/ePfr000/p/PxcHuKzODc7HFPoF0wY/zYz9ChTvEIMD104nnJPUY7AimlYZxrtHrXFLNNdYMRw+lkANyqunA+uxOS03gxGfWaLtisfcozSFLYDD6ZxKKfSc5FRqo4YLRJT0iVvG6dDVtQoYyz8oiy0PMzYTuvwnd63UPYoR7WlQ6Sda+2Mi4Gy+CjiVDo1pstT0zvN6GScsurnYKY3XFfkMcNWYEYwtyyKpCtBjjoqJ8HIrRknHhyy42X4EP52VlJ6L6xt71Bvo0bjMXfjN+yOUqYMpq0TnvLg20VzYU63cLTv3LlDzz//vDzEZ3Fu9pS8laDLqdc955mMisSQBh+fRosjjd41zaRjPEtGTSkW6OykppuRI1vxkc0JeSwwYjgp3bKRn3bUMIh7nsNFIul2peUZOjg6ZMacc9VIGRkUtoMs2IkVMzvJ6Us/ptNzev7zoaZgZ40MpRB61PGkWfsvT8+s5GGjQkKWqCkcotD2lCNTW92Xo4hmeMPsy268rpxhPnPXc3kJYoyj8DEnhR24CbLQbZ8z9MQ3XSn411F5mHxvfC1Xqp0Fo+UGqemVOi5I6bajCNYv7K3tqY6SMVCUXa/PoKwUDrNbPBYypltMDSam7Vv7dCR6aoODAgUxD/EQFu4himkpRyzrLFCVABeC+HZW7IhE5UItAorvMtDa3/ae3vFy7tMIFnWZq+sFrJPexCEONaUl0m3pM9TlXmJ0tNLYtkZNOj0xhRWPY/WsBIIFJDv2SIywLzlSGf/xpUzYFqxR7eIdgrLpbunKNTb9q+RpxvTpGaRabOcNOZqrPwcUtoN01A4VatW8zyCqs4GYSs+c/z09XW7pNq5rA+nc2A2lbNT055mi97ltNqVX6lf3TWrIM0mxB6bTyw4lSK1nZD6qVOfyYjpw0hmv1qPR74BpdCrzb9cPybrST+/ZDokgfz2XRWu/Z48eawds4mSrzPeEbTdTmSAL0fYZi+580uXb1vjXUTmQndO0ToJA708erCVw1mkt+aue8abV3VazjBIVZQrOcjl720kQzMzJMhPpOlR1alkLdD1dnSA7yUYbqUK/isyOLAYLu5BSTtub8UN6u7xSp3MFYvq8v2TErXJjKsI/rBXLs4QLnZimo1isbPPccvLFqn0xqmrGVYktpxI7TKQQVhjy3uyCYsOFTsYyB/frY2eJjrP0wQU63P4ovC9Nl1wx7PZpScdLi0Mu+kiELkSVgLwuzTliRCiIen30TLU9VMFwiOCd8uDGQSxIKtI4lI5bZ2q7q9huA0JHQahMcK3YmovP2UxhB5LYfXwEMbfeIgwbSXF/VHFPpWc5XX6otkcL07ZBqSuLxPUxeYntGxPimgm6w12xndXJRJ10kbZ4Q5mJq8zy0TzPHvBIr2eEs1PhfMSda3bGOW8Vx0hYcZ1ynco3RnHHKXWlj95T7C1BrnrOh6qVb7VNX3a+1cRIvtpdkiILuUWcVTiz0+Xf1uSoozxRs3OTFgWylKTXHezIItIQhMkEaRB7aopz8nID0VazjKx1LWLbVzHa70NKuZyB7ST8JXGIdpEdbjGoYTnvrGvVfGbUn/XzaDapcJ2gZgD9667F5yfXrl37h/4MMhA9sJ36MLaFFLgQRM9+p07DzIYFgGcL1EvAG+lkiS3kizmtAMyUZ9AeF3akGwAAQIc2GxewgBJcDuTIfEm/KQFALoI9yMsOCZ4v4HQDAMCCMvkXKAGI05UxuyIMIHdYEQAzQ/yGwY78tVfzB3WeBeB0AwDAgqEWGwUxzAgVADmQ8dkXsP4JgFRUvH55a+HmF8R0AwAAAAAAUDIY6QYAAAAAAKBk4HQDAAAAAABQMnC6AQAAAAAAKBk43QAAAAAAAJQMnG4AAAAAAABKBk43AAAAAAAAJQOnGwAAAAAAgJKB0z33dKh3coJfD3uadHryh0jE0evoc2CxkDo8ommLUafHdnC0TyiNBq19OpqBbMvj8tWh0g7nrjJSckYdOS/Ad5hHFtTpFj8hqpygxIESPydckgIvnLWNKg12V2hlZYXWL+1P/6GCvnjKlzk6CbNH/Rpoj7U3/yxSWgF4Fljske7RoXSErOPyekWXHtlAXICDkGeUqLNaIxoPqb+Av1Wbls+LkjMownyPFs7nCGtZzLcungVQV4HLBsJLQEm0aZ07QWtbC+itPpNAXxdP+TJvr6/QytoWQauzo7u1Risr66y9+WeR0grAswCcbgAAAAAAAErmwpzupaUlun//Pn333XfyEJ/FufKIpgZVXNuJPlwLftS1Zmx4OKWYtgBLLh4ypx6j98kpWPEcc15SXx++I2XKLLxXH+YjsknmIx4vastCHMl4v3AKOZbmZOzpBLnp7+x7Uq7X79lpVIgqDdqR39kyj6fbmS8p09g7TAHqBZEbNf5c29DXpMQ76jTJa4M0WTrLlnVwjUhC3CZCGRuLNKM8T8iDJqlHQ15p+ZwoZ/VOMw9eMg2Jy4Pfl1Z24lgyUEf8Ff42KXCkRX/jRSI9k/MwURcCmWZxLlqLotJty1zZyAYptelncZ7leWd9kdRZnPi9+XRqkGZT6tsQlYfgcMs9Lq9J6Q8I9R/qxnx2EX3H7+HDkEGaLgQq/Y53eNhNHvkn7MplAxnlIZHW0BaDPEZHMgnJtVM+uhL46XiC3tLqqv+rzsfTqvIS04mR14Cp0yVR34s02M9L6jtJ3nvjaUnXQbY+NTGbcdlVXE5O2wOFuDCn++7du/TKK69IR1sc4rM4VzaiwtymvTDm+3BUocaOWYiEUW9QdbAbXrNyONLf5afaPKLVY/2cIL5cVMY7DTo71OdXdmlAXJFYhqwquI3qgHaDdKwcEm2oij8TWZD4WjPOfXdAZ/rr4Pk7jTM6DJ8v5FGjDVeBFw3rNtFecC3LpNLYMQpyXrlNuL67RWv89+5gTDQO8r9Gway7qEysdHO+WInJykdWzqt0bFw35nyE17XX5Xn52lBOKVOvOk3y2iBNwTS9bFxjedFpcjWeTpsQCBmvHutnsE2M2Ta3j1iPTTrXCzcTeZB0aLM+NOwkZtdp+cyQs5MsmQq07dm6FabrY7lsl02ybFKkr7ZRxCaZqdIibufGhq8dhWVVpCcqRUkydGFQ35aJl9e4QkpkKAgnVqlNP4/tpX3MZyp1asbk0WLBcUqpnzc8xUencTLLjsjzSWTn0p65bok11t5l2UW1SUdhedHvduhb1WlJ+ZsI2XEiwnviMkjTRRrS4TEWXItDZc3h/HjIX9ihXVezPONm6FMeUqhvm7oKypyZVtFe7FDjLK09SUfUd2abG6Qrq86w9JZWV/2fPg35VG3VzGSLlqvi/zUyT7eadaoY63G8bC+HPWX7Ful43evdzuTwHTx8ES/bA4W5MKf7xRdf1J8iXOdyISodszfGR6LC4QbCbODaB1zBmYWztUxVPjM0V8pxA1N0PWblrB+7VzgVbPqcjuh8l7b2OB1c+W4G6ehsUqMyokMr/rJN66JC1n+lw+/YblBFNIbmy7niWg89V/38mJPZXtfOXpiQgFha2gd8nVHZ5ZVbUTlzJajEZ6Sb87XHiak0NmMV3JgbPfu6vvRXmmGFMj1Kn2OuCC3HSTQSwiOpNRPOYtImAljG4RdsEzKxFaLBXuQIO/PAdhGL01V2XaXl2WVUky3TzqayPUserFvZYGbC+V6zbbK71WfJVGiprk+EZNgkM1Va2Na2GxXpZNnFaH1Cx8RXF6zXoaHXPMh8xstoi5p1fubo2JKdH+WUE1EmIrkF9mx0FnKVZQeVM+rHCpLUNztle4Zg2+vCWa5RM14QDUSss/WoQAZJo8tG5kvI1O7AineoKiE+Spgt//pSXLcsz3XbznzKgxthi6auXGmtk0qCdVHUnkxA1Heu8mfquKjehBz6yuuO7KXVpDq3bSNOfzUsdKp8jId9JR9P28uVrizfYhKZ9+ZoZ7x9Bz9fxM/2QFEWO6abjSfsAeojVifblYageyp762HhlH/791CzGJ8P9SeNrBC4kj2YnA65S4arAdXXTUS+w5FXg9Tnc1FKVGKCxLVdOlUJVpVyXrkVlLMarRhQUnwyMbZj49hlZHjOeasscRMyI7Q+rc5DQPuYK+cK1WNDkgmbCIjLeHguK8mzU8/qzZzO3uHGgv8V8RkmkinTDskNXhx5VDryhBvFaMpTjdBEDagmyyZ1WlzlwCct0tZYgxOKUToeuvDWa4I0R8NRr/hQSjlxlAlpz5EccpVlF+Nzsq1M67sfdwiGpLKTlRt2Qo4Cm9OhM6Et+RMfUTVxzlJ4yF/+nTX7kFke0nDXX3YalAydM04ZpJe/QMfT6a3bH3IOInuR8mdZHPDNUcdFdRqCMudne/nSlelbTCDz3hztjLfv4OmLeNkeKMyFOd1ff/21/hThOnfxiB0E9FSornx9pufSSDSs9SXZAItpxrBRloc59RNMjxVEvmNMab7d1M93klduxeQse91yOtaUHR+e4QIzR8o6H8WdrRQCB3XDCMvwmhEpATmDMU0edcziTp2G4dS8mtbPjU5LUaStJRy7DLx1Mal8ZqMcjWgkbJKjN69MXZbPTm1nSOs7jLkOjx0SocCTUPGvO1QfmmEE+sucyHzNGLnrCCdIhGXIPF14TK2YgQrCHpRcZ+aETaE3SVeEmAROpxrRFk6sLCNBB6ezyqUl6kB72d606Zol3u1MjrbdyxeZB9u73FyY033v3j369NNP6fz8XB7iszg3H6gKRlS8QWxbWMHo0cfCyPvFdKJukGOHmjrSIxRFyUzjlM9PZYLcnOS9Xve6x2asmnlkxCOXwbT2MDVGKFFaPPoC0elxhS/1OwNdxkd2ciJtLRcXqAsdgqBCB2JT5wvCzMuy1rcZf28d8WnPgE6PNmQ4yGy2a8xvN560VRy97IRKh3E2s7ETiXU6VWw7H4ETNs2IFGtL9s2L6i1EtWdyVFuO3mrnWjvjYkA6PvrrZXtTp2uGeLczOdp2L19E8zRs7xnhwpxu4WjfuXOHnn/+eXmIz+LcvBHEttlTScmpYjnSpD9PRBbkZMhBHFkpxEM8BLLHnoHHO1Kfrxtw5/RUDtxyS8f3ejn951hE9tSYJGupq5QpwZLxtsdZIxu6wBm0kQ1fEXxs3omeEi+YllnZWlm6kKEKogzrGM7cCyifMrMvy+n6zo8KLSjCpHxJu5t6RiKIz/UIwfHCVX/pdiA+mxAQrIvwCL9JLX+hQz+93lTYzhI1RVkL2y7lgNZW9+XorxnC4Wd7s7SnKcnRznj7Dp6+iM2sbQ8sdkz3LGjtU88abVWVbxijGjgVG0ZPj+8RC678aNOBXKwRX1Xeov1eNG2jFo/VYqv9O9TzmnrlgqFHIqyRYyNv3a09Hdph91g7PTF1Zi7o8yRLbnE8rndWjMEisngseOJ5/qR3QHxIl/UR62psLoIsBT2yYaaf3+2yx7R8ztb56aoFc/EYQDmaqD9PQKbRSouvzbuYLi3CsVDT6XYca2u/lxLX6q8LfyY0/DKWs8aOhvQotKNxsUxVdmZellP0zXR6E0bm5Iif7XzIGRf9OcLTCUu1myM1or6XfxFaPP2qI6dHimdApbFtpVW1A2a8L5dDq8HKcMpNWB/mrUoObLJhrLS/3lLrKlkWqlTXoSUB0hmv1qPR7wAv2ytoT6Xg3874+w5+vshk29PrIBByUpjFdrq5cNixScWMocpGGD1DbdETTbVwQVxTq5eDWGS5TVOOGNogRsqOFduhpWOzMuZCFk7lBNeIbaU841vFdBCniWuV6B07dToPh1hEPoLtj4LnB9sMFZsanyy3JJnXhxWj+D5owNzpPtlZouOC3m1YSclnFahMnbJW2zDNYro6C7XjTLY9pubTKecpEPLQDUQoD7G1G5/LQs14BGkRRw6bdzFFWgRiOl2pNkjPCe3Uz1NHKn114U/U8MvnWa2jbjQrtqNxkUxXdmZflqW+42WRj+b5QXqdpneAMG1EbJ+XNJFJurBx2o3cdq1o2JQtI/WsWYUwiRCDPi0Zad2ojZJptdpXdsrF9oEegzOjw106b0bP5qpRhjRYt/rqLbWuatMx1xuVhHPNzjiXj0pibYan7RWxp7JwpcXZzvj7Dn6+SJm2B35y7dq1f+jPAAAwO8SOHnKBISrsWSH30BX7gse2KQTACzFSKhctz2ANBQAgNwgvAQCUgh3HCaanQ5uNxVtACQAAQAGnGwAwFWL0NT7zPk08K3BT+BcoAQAAzAVwugEAUyEWO9kxgtPGswIT0YFBbCUAACw+iOkGAAAAAACgZDDSDQAAAAAAQMnA6QYAAAAAAKBk4HQDAAAAAABQMnC6AQAAAAAAKBk43QAAAAAAAJQMnG4AAAAAAABKBk43AAAAAAAAJQOneyId6p2c0NF+S/89P6gfzOhxCi+eZ/Xd09DpndBJ/GcbLyOtfTo6OaI5LDKLQ5kylM8+SfyCaKl0elxmn0WbUO3Hs1DswWVnfn2hmXCB7daCOt0t2j+yfwFPHWjsAVgUinegLnkD8AwgO6FH+1yTAwC80Z3mha/7nkbnf05Y7JHu0SGtrKyEx+6AqLGDkQUAwGLwzMyAzAsljWhBj/PB5dZDi/a3G0SDXVrb6upz8878zfY8bRu5VOEl3a09GoyJaquo/ACYd7pba9xZXqe2/tufNq1zJ3txGh4Qp72+QitrWwQNAuBJZ5MalRH1L0O9192iNa7D1/NX/gvPJYvp7tLpmf4IAAAAAHAJ6KzWiEbHBQYpwDxxYU730tIS3b9/n7777jt5iM/i3Gxp0XKVaHw+1H9rdPxQGPudEksopx2M65IzEGmxpDrGPHGDI/Y8dk32OxlH+uv6q4mEU6lROsy0q5ja6LnOODGfd6ctlNL3mnkKp3Zizy38boF8v3EdH7YcoykuO89p08zqevN5In0y7U7byRFj7MhTeNeEBWfp7zbJtre4zl0x1aGOLLkG6YrJJvZ8kyzbTsR0S9mo99j3xtOYlHeYZh+7iudBPN9rsZ+6T70mq+w4dJHQ9QltcDtKtQ19TYouwmckvw+eM/EaD6bOT4hDtvobE5kv4375fvm3n30lbStpEzY6/TsNqvA/EYYo7rOvj6d90vM0nnq05eu2s2wduEjqxbovYR/JchiWHevafOU9qQ/9RRaJ9CVlo+SSZvv6eh89ZL7LQ/9hHRWTu86wj57VM4x7M+t1QYeUz2243Gb+TfTzTR2EOvZ8t58+J9cJ6hkbpFSivw8elEijkr1KYjEZdtLsJMDHRhg77+7nFSurigtzuu/evUuvvPKKdLTFIT6Lc7Ok09tJTr8IQXNFe3YYxH7v0oAatGMZmzKejeqAdnV8+MrKIdGGMphiCCPi9PDbzGeO9LfOdx6OpHFaBp5I/wrtDuu00ajoC7Kpb28T7al7gyl5YVg7jTM6DN6tAuKTFfaU73YiDF4mST+X813hdxfLN8uxSVE+xHWDMb8iWViFbLdpL7zucCQa31ihkoWZ9W6uF2DZiAmU9jFrr1KnZuy5LU5AjTWbOe1XbdKRmW9hDxXDFtvH/JQK1ZMvoKaocPuTpuP97M3SOR+HoxptuCo2oaPVY30dl5kxy2r7iGXTpPNdfT/LZczXuSqc+vYJrR5H71E6Sau8TZRDFN0r3s1pTGkcLHzsSuu3OtgN06aKun9JrzaPLDsK3mOXnU2qD413BLoOEtNel+f5VmNtihlq4yEHUUY2qjQI9BE8Lyd+dUFGfgTTylY872SVjoN7nfZVtK7u0taafib/C2QWhigJWcbTruWQ5mhKMvXoV+946SCBkAWX+bNkXaXwrxuLl3eHPlgYPmVdOjcx+1XZ9qknYmToQTpJbIcjsz0ZGNPiufQv9Be1qSK/Qn5HR0e0s9QP73e2L4l2zeWPOGgtU5Vrc9Pnzk1W+yPJUb4y6gQZQibO8edQ7hnxJF5ttLdvEGMWdS5TrKxGXJjT/eKLL+pPEa5zuRAVhdHbUMIyhSgqHeGtHBqxQ1z57nHlwcaxGWhSx0odWjGGbVoXlYz+Ky+dHhvpmA03/swgIfKdXPnvGd+zUcjy2wyUrNI/5orAtFURCysNxws2xOEeWf5g4MQdGrLqbtEeV8iVxqY28Fm8O42YrNsHbNyc7zAWP8+7RWNqN3Ldrb50Xpfiw+JsB2YccPtA6LdG0RIAfu92gyqiQNovpnVxn0wnF8zQcAQtatZZxj7TfpUz6rtsLLTFNh1YOlC0mnXOzeQK18/eWO4xh6C9rhtYK08CvjaUAcu4z4KvcD4Hhi2xXOTpepOlYCJszq27yLbTsfUevDvZ2UmSZVdCDEq/Vjw4lzvhjPhSOes777f0xuesa7Ruqbqcmf+ALDm05LTekPpWUmz9ZuJVFzAe+ZletsIZttORsK8S6mpZ7nV9Y6Wd37+mjNY92uZLVr3jq4MEdVqSVY+hcb5P1lXqD/+6sWh592rHHMg8C32vWW1TnnrCG37XNjtkwvGz66R1/e78+h+bctH1TIXr90iGDj3r9wh7sMp13B9xUV8Step0ZLY/TJ7yNYM6LkFWWTF0ZetyFn6JR9tTuKxGLHZMNyso6pFw2diIj1o2qS4qhANDO4LuqRwNqC4rSabGSunr8qOmgsbDvmG4NuqdfavCEQzPReldUmEUOv1Ds1XVyOs8OTu175dOHDtoSbFIqZAUy4ze7SQhax2LHxTWIu/mwhBNN6leeaDfAKtxEsTsQL3XcV1Il/pDYWirkZ2l2ZiLCTYWpKHbHyYqGeHUjwcHyXtDfO3N1TFw5EkQv3Z4LivduC25maC7wLZTcdwr3+1yFGJk2VUgp3j4GaNs3w+XfVhlx0CO5mm73BEjMZn5D8iWg3ynMbJUBK+6wCA9P47pb423bGMdCEHcZqQdj88pocHCdTUzob5JnX3KQVa9k1cHEUMS4nGOXJt41I1Fy7tXO+ZA5Tmpb0HajGJRMgctcus/fq2uZ1x2aZLWVsTboTSynp+FR/tTxBcqXscl8W2jXXY5tV/iUecWL6sRF+Z0f/311/pThOtcMUSPXkxj1GjDbIBk71BNGQRGYVY8ChUHPlPkVNCkCku/MzZSLw5ptAGz6N2yycR9jLoYHhGNdezdYvotZCbvLkiud+s4vJ06DcNpSjWllRv53qS8TOJO8aTGoxDdPikfOHxBeoMQ4GtvzzqZcpodQczfBkVT/3lG071or4dT/qoMxwYdPPCqC5jM/GjZlou247PT1M5lIZ5mXcf46iCJaPeCKXh1jz3FPcO60YlnO+ZA5vmCkO+a5LBelP7le7L8kadJvnbiQuq4OB5tdJkUL6sRF+Z037t3jz799FM6Pz+Xh/gszs0OPbVhTgXJXoqYwgoqHPtQ0xh5djxRIwuZTOgVKvQ7w5H6+KGnLvRow6yRPUIRiuB8t57uy/PuWaczx/PCsIog3dPg8149xaqcYj0KPWGE2ZfIEdRTWnrk2cup97W3eWDa0Zq55oykGo3p7KwYxqkRU+Cy3Or4w7SFRyl41QU++cm0wTmmpHrWFy8dTEDFzvJxqNYWBDHIM60bnXi2Yw7yjEp6z5SkkPmui9K/fE+WPzKB+AjyDNOt2p8c7cRF1nFzxLRlVXBhTrdwtO/cuUPPP/+8PMRncW6WqH26uSe5rePBZEOQPTUoBRmfXhd0Vp090Ep8nltPeUToab8oRiBB6jtNUtOv44gLIiuxrOm73O9OTv+rab0CTJvvFL1l4mkvcvpT6E7Hv3nvm5pqY7Geu5zSFKPpHdoUFdvEBZSCaexNy9Q1pViYCbqb9ShlHuKzCAZyWtWT1PsndiimK7PZBLN9HmE4Bl51gZN4ftJtMI9sJ5MSCiUoWuYFk8q9Lp8TZ5qmpLgOYgTx85NiaqeRkwOvdszBpDyrshQfaHCEOnnaVaZ8L0r/nu2Lk1QHO0e769H+5PWFbMqu45jUcK8LeDczi7K62DHdCYLA9/jCtNgOBqyg/V60UEMtLomvUu1QLzFlEFT6G8bz+Fli8Z3+S8HpEIsjxLSb9WJ+pv7b/U6m0zOe7U5/a3+bnT39RxGCBYGOnTt64TBZjncHzowZU697wsXwf7esJKxC4NKbL21a16NF1jStJRdGO8XNZjWnsxoLf+LnHom0JmIi2yT9+maTmxqfFes+9iY6pGIk1NZ5sOOPuQBoFlQa29aIq3qPZ+x7aQSzCLEdGLjM5TIZq/wLNR7J+8POkWxc+TLDAU0rs0WdFkFrv2ePascaUC986gKv/MxIthn419UpOB2f9HIvyqe1aC6FafToVx+7iMq3wu7YzrZudOPXjjmQiy1Fnu2ZGVWWuJ6wFmYqRyscTBOk2JVTD6nvCsrP9Pr3w88fcSLt1lzrw+Rud7PbH+/y5V3HZQ8I5WN6n+jplNWIS+Z0M3olcWCIYlVrsIVRFIOzQ0vHsdW5wXY34TVi66pk/Fu4ujp8ntiDRy3ktJDTvny/cITCZ25Q5EGJd/J9Yrug8Hs+mudWkL54nxi9MNMvttSZLnaKG0gZCyicMOPdO0t0bNQu/u8WzxOyMp4nxeJY8eyJ77uVPkQhCK5z680bHSfLDwzfK2Iiz62RDl3wK5Xkwo9JjA5p97xpPFf9pK9rek6u2ubnV3yd+kx7c+tcbQ2VPg1cDDGF2qclI3Zxo8aOfWnT3DkQ+tUNbJA2uVWaKNSejA536bwZ5U2p0dwZgcu2FWudXmbDRk5eF6vIM6kads+H3H4tr4x96gLP/MxAttn419VuokZb3Bs6Wc5yr7Yly5z2Z6bTo1997MQq73r7QG2IM68bnfi1Yy5EWIwSeXSf2ootbsPa/kydp9hVmh6c76qfR6PpU+rfF6ETke7J/ogLPRBje9352l2v9se3fHnWCSKNujMur5vYE/PD3y9x89TKquYn165d+4f+DADwRIzI7NSHsS36ZogYhZALoObAUX0W6Ig9r8WexpM6IB3qqYus7arAPADdgEuOVx3lRuwwIhc8XuLCUXqbPCMu30g3AKWjYq1nsYAyjY7Y83iWu6KAiWTHZIO5pkhoDQCLhJzFr1HTM4zh2cIOrZpn4HQDkBPvX6AsSktvwJ+5gBLkRYyGxGc4nXGkYD4RM0BJBc449haAeaQr1+6IEBgr9vwZo9NL7tBU1tqkMkB4CQCeyOkruVpDxCfPOg6akSElalFu/NfTwIyQU7TxFVi++kQIw9NH6SChQegEgFQuU3hJ1A4biG385jysJABONwAAAAAAACWD8BIAAAAAAABKBk43AAAAAAAAJQOnGwAAAAAAgJKB0w0AAAAAAEDJwOkGAAAAAACgZOB0AwAAAAAAUDJwugEAAAAAACgZON1TI36s4WRufyFKbIp/Ev8FtzyIH2w5Sf4CFAAAAAAA8GdBne4W7R+xM8nObuKYxsEE84t0/ue3cwMAAAAAMInFHukeHdLKyop94LeALwWJEfruFq3tDoga2xh1BwAAAMDCgfASsDiw490fVaixidkMAAAAACwWcLrBQtE+HhHVVgluNwAAAAAWiUvqdKvFjSdH+2RFInR6Mu7bDvvW1xpHPG5YhjoY3+cNG5f3x9OSEqOcXPjoiF9PJEDlQZwO05qayOh50SVJGbhut+XQczq+rf0j45q0GOz4+4xnaR1t1PhzbSP5ffuYRlSjVdfLAQAAAADmlEvqdLdpfXdA40qDokgEdvTYkxsPdikM+5aO7wbVzNhwvu9Mfx04qBvVAe0G3x+yy7eRz/GWo7OVOjVN/7O+RBX+X6XeNJzxDq2yszk61gmU6duhxpkZu35II+GMxp14pto8otVjfZ0ztl3kh59XGdEhX6MuEQ7wBlVZLuE7OI82FWrsnETPXtmlwbhGG7E0CKd8p3Emny2vkzHYO7bjrWVuvu9wxM8KHOv2uj7Hn0O9rLNGA4Z0Pua8LsdzDwAAAAAwvyy20x2OhEZH6Ax3t2hvMOZLlDPX2m9SbTygva2u+l44oNsNqgjHznRQ+b714JrOJjuoYxrsbVFwl3AKhUNYayad3lTk6GyF6obX3WHvejwaccdgier6HJ+kGl8Z+NydTUf6nB0KReWsH3UoEpgOt+HEtpapSmMa9sMcyjzGn2N1VlgaW/1YR4Kd6aboMBwaz9Y6qDQ2lUPNyDxZehCv444E57zptUKyS6fcK6oshVIDAAAAAJh7FtvpduxeYvvPe3JEttnrEfvXtvPcalK9YowqOxCOMY36ZPiHkqEYajWd5UzaJAe7Q0dRjGizo3twTGdGqERrucre7TkN5V+xUW+Tbp+GnIRaLMZifK7udNHpORxuQfeU0yBGst3hIoqYUy4YnvPZCgVZajXr0pk+iCW3KzxkduvVwLTOU9/Qg0SNXvs60lL+AAAAAAALxCVfSNmlrb0Be6fs6Q32bOdZhneMKd1PbZHwgV2j6TsNERiSD2sBoBjRHg+p31XOuHKeW9TkXsB42FcOqRyBzsfZacwxDuA8iBhpaxQ6pE3rQbiIzl+e0JmA+hLLpNKgHUNO8pDB2RqdJxGeY10jQmjyixQAAAAAYGG45E63CiGhsQhxiO3vLEdqJ6HCGJx7gcvD5cBOQL5PjWrL0BLtXEtnvLpMLTnybowoyxHoGcF52JWhNmkONXdO1lS+guvy/giNHH0eG7Hv1rGmOjw6T6ND1zV8pMfGWEgHHwAAAABggbjUTndrf1uGVPTX1uhQ7O+8bcRh67AKM846jnQkZ7U9nQ4JqS7vq9CSwLkWzriIjW4uUUWOfqvT/IUMuYiHkEg8QmPidLfWMhxvhbhOxKznjZmWYSTxxaIJJuQpJ5NCaQAAAAAA5o3L63S39mm7UQlDKuRivUqDtsMR3Dats3dZceyu0dN/d7f6coFffJcOsa1d/hCMLvXZ667U61Q1nWvpjLPzX69GoSUSFRozFuEt1ss61NtRCyw9B4ZDAofacryN/CpU3HVup7Z9QAPORyI23Hq+XoDJeUpulWjfl97hUemLQmn09oP5FQIAAAAAcGEsttPtiLeWW+mxo3eUcEzbdCB30tiJHE6xPZ3e1i68f6dO56FHrOOdKRar3DxPLBj0odsf0rhSYY/Sdq6lM87nEzHZ4qfPgy0Cw/fr7fbyetya9rrajk/GVWtBVM386+evxVePZqJCVNT2f8Gz+NhZomPzWS6Z89E8P7DCdcIOj/zecMhjO7wAAAAAACwCP7l27do/9GcA5h6xF/gGxbdRBAAAAACYby75QkpwqWiJvcDHNCgyzQAAAAAA8BSB0w0WAx0ylNj6EQAAAABgAUB4CQAAAAAAACWDkW4AAAAAAABKBk43AAAAAAAAJQOnGwAAAAAAgJKB0w0AAAAAAEDJwOkGAAAAAACgZOB0AwAAAAAAUDJwugEAAAAAACgZON0AAAAAAACUDJxuAAAAAAAASgZONwAAAAAAACUDpxsAAAAAAICSgdMNAAAAAABAycDpBgAAAAAAoGTgdAMAAAAAAFAycLoBAAAAAAAoGTjdAAAAAAAAlAycbgAAAAAAAEoGTjcAAAAAAAAlA6cbAAAAAACAkoHTDQAAAAAAQKkQ/X/xq+fhXWPjlwAAAABJRU5ErkJggg==;" vertex="1" parent="1">
          <mxGeometry x="40" y="554.5" width="377.61" height="85" as="geometry" />
        </mxCell>
        <mxCell id="m6Iovzg8GHnj-0ou7R1F-28" value="User opens Excel" style="whiteSpace=wrap;strokeWidth=2;" vertex="1" parent="1">
          <mxGeometry x="96" y="870" width="181" height="49" as="geometry" />
        </mxCell>
        <mxCell id="m6Iovzg8GHnj-0ou7R1F-29" value="Excel Add-in Loaded" style="whiteSpace=wrap;strokeWidth=2;" vertex="1" parent="1">
          <mxGeometry x="84" y="969" width="205" height="49" as="geometry" />
        </mxCell>
        <mxCell id="m6Iovzg8GHnj-0ou7R1F-30" value="JavaScript Interface" style="whiteSpace=wrap;strokeWidth=2;" vertex="1" parent="1">
          <mxGeometry x="84" y="1068" width="204" height="49" as="geometry" />
        </mxCell>
        <mxCell id="m6Iovzg8GHnj-0ou7R1F-31" value="Capture Image" style="whiteSpace=wrap;strokeWidth=2;" vertex="1" parent="1">
          <mxGeometry x="104" y="1167" width="165" height="49" as="geometry" />
        </mxCell>
        <mxCell id="m6Iovzg8GHnj-0ou7R1F-32" value="Send Image to Server" style="whiteSpace=wrap;strokeWidth=2;" vertex="1" parent="1">
          <mxGeometry x="80" y="1266" width="213" height="49" as="geometry" />
        </mxCell>
        <mxCell id="m6Iovzg8GHnj-0ou7R1F-33" value="Flag for Processing" style="whiteSpace=wrap;strokeWidth=2;" vertex="1" parent="1">
          <mxGeometry x="89" y="1365" width="194" height="49" as="geometry" />
        </mxCell>
        <mxCell id="m6Iovzg8GHnj-0ou7R1F-34" value="" style="curved=1;startArrow=none;endArrow=block;exitX=0.5;exitY=1;entryX=0.5;entryY=0;" edge="1" parent="1" source="m6Iovzg8GHnj-0ou7R1F-28" target="m6Iovzg8GHnj-0ou7R1F-29">
          <mxGeometry relative="1" as="geometry">
            <Array as="points" />
          </mxGeometry>
        </mxCell>
        <mxCell id="m6Iovzg8GHnj-0ou7R1F-35" value="" style="curved=1;startArrow=none;endArrow=block;exitX=0.5;exitY=1;entryX=0.5;entryY=0;" edge="1" parent="1" source="m6Iovzg8GHnj-0ou7R1F-29" target="m6Iovzg8GHnj-0ou7R1F-30">
          <mxGeometry relative="1" as="geometry">
            <Array as="points" />
          </mxGeometry>
        </mxCell>
        <mxCell id="m6Iovzg8GHnj-0ou7R1F-36" value="" style="curved=1;startArrow=none;endArrow=block;exitX=0.5;exitY=1;entryX=0.5;entryY=0;" edge="1" parent="1" source="m6Iovzg8GHnj-0ou7R1F-30" target="m6Iovzg8GHnj-0ou7R1F-31">
          <mxGeometry relative="1" as="geometry">
            <Array as="points" />
          </mxGeometry>
        </mxCell>
        <mxCell id="m6Iovzg8GHnj-0ou7R1F-37" value="" style="curved=1;startArrow=none;endArrow=block;exitX=0.5;exitY=1;entryX=0.5;entryY=0;" edge="1" parent="1" source="m6Iovzg8GHnj-0ou7R1F-31" target="m6Iovzg8GHnj-0ou7R1F-32">
          <mxGeometry relative="1" as="geometry">
            <Array as="points" />
          </mxGeometry>
        </mxCell>
        <mxCell id="m6Iovzg8GHnj-0ou7R1F-38" value="" style="curved=1;startArrow=none;endArrow=block;exitX=0.5;exitY=1;entryX=0.5;entryY=0;" edge="1" parent="1" source="m6Iovzg8GHnj-0ou7R1F-32" target="m6Iovzg8GHnj-0ou7R1F-33">
          <mxGeometry relative="1" as="geometry">
            <Array as="points" />
          </mxGeometry>
        </mxCell>
        <mxCell id="m6Iovzg8GHnj-0ou7R1F-39" value="" style="shape=image;verticalLabelPosition=bottom;labelBackgroundColor=default;verticalAlign=top;aspect=fixed;imageAspect=0;image=data:image/png,iVBORw0KGgoAAAANSUhEUgAAAt0AAAF4CAYAAACIDkUyAAAAAXNSR0IArs4c6QAAAARnQU1BAACxjwv8YQUAAAAJcEhZcwAADsMAAA7DAcdvqGQAALyGSURBVHhe7b2/biNL0uiZsw9AS/LaY8ugJ0DA1W2rnUtAzgINcJ0GBPABFpDXADFH3ugMCBxPb0CsgHZG+BpYhwtep60zMgTIo9FDrz3J+fgCZyMi/0VmZVVlkVUkpY7fQc2wyfqTGRkZGRkZWfrb+/fv/1KCIAiCIAiCIHTG/2H+XxAEQRAEQRCEjhCnWxAEQRAEQRA6RpxuQRAEQRAEQegYcboFQRAEQRAEoWPE6RYEQRAEQRCEjhGnWxAEQRAEQRA6RpxuQRAEQRAEQegYcboFQRAEQRAEoWPE6RYEQRAEQRCEjhGnWxAEQRAEQRA6Rpxu4TCZztWPHz/oeLwbmy/bY3z3qH483qn27yy8JqZz0LH51Pzr9SD6K+yLN6N74zv1COPLK+z+witmf063UXhyrBJaT4Mh/f6oOvC5BAYZUdsW8fGaLBLXqZKjCwdeqEEGN6FFtL2aK1GnNpmq+S7sIwumhIeM88KvgUS6hbfD7FKdnZyoE3PcPKzhy5W6Z9+dXc70ua8OPSj+co4rOey/8oD8i7Z7Rxx0lPbQdL2z8qzVw423yfo4U6/WNAtCA8TpFgJW95ExvJiYXwRhQ8xkSFRJaIPZ5RnYpgsl6tQmE3UBffT1BiUE4XUgTrcgCIIgCIIgdEwjp/v4+Fj98ccf6s8//6QDP+N3uySVfxznoRXOiZYT+e/zqV6+1Z/NCSX4PHN/xNeE946vSS/VNStv3T19ffyxZf5jkCvNnzdWd4+p7xN1giOQVXBPPHKWMU3d6hqqEZG8Su4dt31uEWI5JHWV2ru8HPrZI9WHz/1R9LtbAvZt8fi//zfJNlVGXZ5yfSgtT+k1RX0r5IWatvbl0dfgv0P5JHTr+lz14L/z65J7E+bcuMImfzT8Wp9bVkZblvRz6mTi6+X0hT881vmaNIfKdndEZSr8rmmsvyS7RJ8stCVS1IH4/nX9gMqHF7mc3xodDX7P0CdT7uvznlK9c3Ud/47UtI/rG+48f31cv6TskEJOM55Xp+u+b9sjrZ9Asn2MfGOZ0rm2nFqG+r65fS9P9xphZRvdS8s3kmlSluY3pKY9BWEfNHK6//73v6tPnz6po6MjOvAzfrcr0HCQ0SxFG4vCOWRk00a8P9KDWjXauIwSJ9JgWGJs8LfwGjRg3DBsUt7EPa+MMSEjk1Ofctzgbg4ytJgecL8yZ8DzPuuSje+ulC366t7m5JXUiUEGlAw6Rxv3Nux2NiTnU/VkU2luHtS6P4oGF12f0fGDurHngSxQTnVl1fr67HPK4f5QyeLgVVOOyQV+f6+wBVz6T5SrMbi6UupW/3b2v/4ftVxDW57GBZyqz9Au64evNUvzA3XFy3Nyox7WfTWKdZIGvZE6frgx58Fh6pgzAKMMr9Stu/Z+hTpgnzFTl2f6fmuWA5pe/p6pha5wUL7xOx0QCOQwHqpBb62WC3YfkPUPEp+pA7RvD+oQVMH0LV7X+1VCJsDx8FGdPpl72XZCWYHOP7v0LZCpgnavcARq271j/c0DbWOkA85WaLL7wfFQPZ4+mfs0Tx+p1CeT4kT7PNZWFiyPOLt9oG84XbHXQ78aLL184Qh1WUN2D4w3T+G7eXiGX6p0HdvvWp0/37tr8Dy8Kslskej7Y6W7Ql+FXWGgeuul4l1Bk9H3snRvA+xY0x/6cRL63hXYLT/GVMnSsEF/E4Rd0Mjp/vjxo/nkSX3XDVN1ar1JZzThYAbIO4F8o4YetNDgDJMGwW+0K8s5nc69I7sOBl3zJRib9ADm76039SEpp7VBeV3d7XlAb6CGcCoZUfMVN0bRGLgZkwtWXzSI2oEjVvdOdtM5DBC+EK4M2E4v+J0xoEhKlv1hlVHUeYft5Zmj3NngDgZ/AeXoDYa+DNPPUB847/YShiKDkUVlWaGeQ1Ca1X14/1vQg97552AwzipHJSDP5S3biASDJt6AD1zI9BS0KnI4U+DteHloEEZ94zoJzgBUENswGIxTg2YZoB/82slXHORDxyCX2WIZXTtWwwEM1Csoy/E7J8e0owH99Iy371eYZEAVWEGmn2GSCH3vlpf3IpaJpve8iGyJlhXvJyTTW6gvOC/GHGxAh/qby/idOo51Cu7v6tmkH/Se1WKbvr2xPjVoH+pqTJYE2CWuP4B+9rF65xTPOo7hODO7vGD9NsVAHcEzV0/BReqi9KLEBJQmmivoC9gVXIGof6yXi6guuWxjs3SAhQd3gig06SecY4JJ1Pd429TKsqv+Jgjb84pyupfqxfmtOMs2kRpngLQR0fBO7R3m3tHAfPLUR/1CZz8YdMmwaopRxXCgmV0uvJNMTsBm5V0trHGfqK/MkcdTZz/9TJ8i1saQTS64A1UNd9bxCAYxcjIQLK8tJzgszrIxWQXfA9BOl/BPPjHAaKI1ui563zuCYWZHJKI8S1QyVoYpVmi1KAyM8Xkx2rl7UF8jwes2YoMxklGOOp5/RjeYPEEL9NQAZ2OGsroUSEa/dP9zOpmKGFsSz04ROBLI7CdNoL1j0AAT4XPXGkfj6esLDLR6UooM0IN5/hk6GqunqH/MlG4m66xrvfZ9zxLJxLB+WZpPBiOrh6IybF5fpEP9zYbqgPagGPFHmvWDF5Do5mysT43a51nFXc1BKz/GjpvUDN9d0O6BPkaPqEfrWH8UpU5UoCegXrb0bNDxr3Aj7xRrZ75gN3LZymahwx6OMyfxpAXHGnSQ53MYG8KxpFaWXfU3QWiBRk739+/fzSdP6rtuMDNV8y+EHEswcNnLpCziZdnY6OyCRHkr4dFoxExO2stlm6iL4AFgPssmLRsPoNFAvFfMsiymH9jB1BzVaU7GubPy50eYG9QSaxX7edhWT0HkyTiOzUf9NIMjGPgOCR3hs/W1jsaEnHE7AdhQBhTN9fbGH2xVh1GwKSQrPrG2x3apYPVsrr/54OqTTT/S9+b2uFE/iCdDu6JJ+6Ts2tjkDo9UkELDxyqSw0Y2EVeZbLqKLldtCkeg82bFB3SenHE7AaVVr00mAbtCjzX9PqaQhEGjWlnurb8JQj2NnO5//vOf6tu3b+rl5YUO/IzfbYSZdRIF59LmoCEssjDTeXlBagXQH8VRFp/WUTWb3ilm4CYKg0t75dV5oDydBYBB7yo3TFLJVM2jwbJ3fpUdgYmJo+r6OKT3tZqI54qlyQRH+QoCRX1cKlB87KaOtBLT8iDrorjLl8CpOAQoekr19Y4GtiE54xhy3FQGxlal9RUOvqKTgmSViO6ZI0jPaZXN9bdZ+2rHEO+JdgcnJ9YxPIR+UMtW7TNWd1c6/aHWHmyBtet2v0H1ngnd7jQBtSs+1BW0M667AtjxwgrPIaHHmvUa9Skc32tlubf+Jgj1NHK6n5+f1ZcvX9SHDx/owM/43WboSBwROYV8g56PpEIndBFbndvrg64YHTW5bERfjSKjNJ2nlz/rCcvJ88Eo18x8TkXPeM4kP1c7Lu2XFzeX2NvQu2xZtCWVqtIUn9sOBu3e3rvnN3JGsrrmdZrOqWx66VNTmCyZcw4JMvDRBr0cvANovtgHLuI1NfnXdalUhlS5afBmUVxyREtSSHJzx9vGpLUcDZmjAVBbQBve4Ux+I0fDLPFvkmyOVMmqYzbVX41Pj7Dopf1y0O6gXbb25iD6QR0dtE8sp9bkMLnQAZWaVdAJLXMdqaFd8aFvtTPeP72joFZrq14dQGMNpnOe3epVFDYw1Mpyj/1NEOrYa063zxGGPsTye/3S50ot+Kw0WqZ0QVeTXxbkTUdLqtus6vNy8iVmd89gwwaDldeX1eeFd1HeYAmcvSEk18AWl9CNYwwOsS3T+uFWXU70xhmCTUa4rII62YvNhhuNX5IOzilFv0WmlVdTZaLbCMoZp+jUTRBoMx4ucUYTi/Gdmm+0NLCJ4+dTLkrzr5PwiRQCckddCnJz9fIv9ttguRuX2qEdSUfa8LkbDaB60nc84I4GQM74sRq46HdTZmZjavHtDHmTY73/ovBGFJDw3TzSqwLbOfwb66/JkQ8mxmYDW0BBn6eUwuNWRFrvB9uRdti2aR+zmhBsXEzIyW4ODN5ehafO/b+Tug59LyiU2QtUl4pTovPkjB8PgklpKftyXmmsWZvNvyatFPqeE0OtLDdsT3gujkOV/UIQtmTPGynjiLVHv9mifgMgnefSMKrulxnlS1J+X1pyLlleXt2HaTBQCHUTpIx0VV6OTl2pWwGvBI2Rc4j9RCjYSOo2+pTVyecd01JputKFDVf7B+tjXjfFJwjDl5qy2lzMaGJxfaSeNvJGveNH98kcGcjp6vUSb+yoAPV0ccTqO1J9XD6P051g8MPVFBj9WP30a7raW8L1Ayjevy6fFZ2KHtQ3dK7RGQcZwMSjmPueSaqucAxf8voprTyBzoeT2mt19FSXQrZZu3u20V+0X0x/8VV5Ua4ychzIRL8+0Ld/2/1gS9wkAMvhnbbN2wdVI8xpL5MT2j2tQv4Z14MX1i9LdJ0HL3AfAb4+sNagW52PnGt0xske5OSXN+t7+Vj5hwepthlrgkm7CdTwzaR1stymPQWhS/72/v37v8xnoQUwxcNG6uNXGgnC7sHVAdrhlaWLpL/4zuF97n8QBEEQhDfIniPdgiB0yfhuqA77LQWCIAiC8GsgTrcgvFly/wKlIAiCIAhdI063ILw5zIbTQn6tIAiCIAj7QnK6BUEQBEEQBKFjJNItCIIgCIIgCB0jTrcgCIIgCIIgdIw43YIgCIIgCILQMeJ0C4IgCIIgCELHiNMtCIIgCIIgCB0jTrcgCIIgCIIgdIw43YIgCIIgCILQMeJ0B4zV3SP+URE85mpqvu0W+4dM4Hi8gxJUsUH5xnfq0dx/vpsK7Zgu2qxjPaA2eVR31Y29P6ZzqHde+cZ3j93I6JdH24XHPSrJ4bSt6Y+HbMAa9Jks6H7aBr1Nuy0IvyZ7dLqZs1k4DtghScEcWzoOyEqOhwPVM5/7py2Vi9dXRgTHdM50IHn86s5pu45kG04htVntZDdFfl02f0ZIW/cRDhx0uEfH6uHmRJ2cnKiLifleaIn9T2iFXxeJdLcAd2yJ/unBOFezxVKtzefVk1jvLplc6EFSH/dqBd+tH27YdxdKWuANc+grGMKrYHraB8OxVIuZ+ULYGJqYy0RVOCAOw+leP6gb55jgcaYuX43BGavhIHC5gb5qK6i8NbNLdWbkKhETYb9M1AXo4VlLnXt2ebb1RIYmSmeXqnmJ8uuy+TNC2rqPIPzatGuHBKEJEunelvFQWZ979fDgosqtpXIIgiAIgiAIr55GTvfx8bH6448/1J9//kkHfsbvuiLIkeW5w2yTSZhTnMgTj5aWCnm3W+Yk+9SStXpZLNTSe93JFBOdh+qfX/l4Xk84Hu8G5ocGsHu4HLbou0Zlakh8bzyKuXQl+f2pgjSUSVZ7Z93TbOZqeakyLF86PzmWYV4uIt8Mao5k2WPZV+RIx3sX4H7NNLKYS0n1xzaJ7p1TRy2XsLwFfatpL3o+P4eliFS3Da+LkfX1OdiCnjq/1tfYOhSeART7RX1aSnCfuC34Eel4WI+S/r1F29bWJVummqK+55WErkP5uLqE5aiXQ8IOJYVV02fM81OX6rqV9DFz3agPn3vn6hrvHehNsXyFfuJk7ft/aV8iu5fQu2T5i8+O61cnX/odv3T2tkQORK79SpyHzzB1uD6H0dnK0tWV911OhnzNOfoRXE8TcozGler6Cr8KjZzuv//97+rTp0/q6OiIDvyM322N6xShck4ubtSDc2KHvsOQVQIwLcXmTJCCj5T5JYHuLPZSR39U0plzYKkllIM3UwvvdRdSTNDokBFg9EfpMlOHjgrbOx+p6PKt6Z1fJ8rUhnHQxjC+N4LPDGQ+fqeSUzdsG2a5m8kkr713Jeci2jk7fdKpPycnqOt9NYp0UevMs7qnc+C4eVBwYflAapl+VoMlzye/VyvsZ3wkpIFppI4f2Hn3So0KQgOwf4FT+Xxv73eibpYDNWpDUNgmV0rdujKsSEd4UXPAtgxkhTJ9Nj82Iq9tPDN1eQbnQdus4T+7Aa58+XqqPg+WQUrd/Qqf2aDfsbQxfw/8YaXuXR6Z7oOjY5a+Byf1R5FDtFXb5tZlQ32H85aDJv1xoK6cLtk0xTw5jO+GCh5sngsHtifoZtDXcvrMTAdfiqudICuoyPrhazolyrQptaNNubTpRGZ8C55rbEFqYjDQQqDztk+jQFsa15mUzZCpZ8jxUD2ePpn7VKSG5dgvKte1OlfsuWYvjZXlDToQLn21Im21oXyxblfq1p1b0Hm8H9sMq88xvwm/NI2c7o8fP5pPntR37QGD2a1N2QCl/jwlw6jNGwxut8YgoSF0Rs8PeqToS/3tdG6dWxiUzG96kASgM8Otm8NSS9bLBZWFb1wMjC6Ucejssi8DGYUC2jhrWH066bW2LGyCk5gwNGV8d+UHytW9Lj+vL8j8yg5mpQ4E4FYMmskkr72b3NM4Vi3m1OImS59nD/dfwHN7AzW0Y7zRmdU9G5xAVrcgw975Z2/gU0wuosF2or6i7I/fOSdn+vlc9aBtgvPguqJOwqAKBQnLi0U5a2kggTbicp18JV1smqI1OIK2XD2xgRxkerFZe9W2zVZM1EWkR5OvqJvH6t2m94dBftRHHWa6Ao7LeQ++s3YSgfbFNusPrbO7bdvm1yVP36M64HlnxpHKAVRgyeuLZMlB15nLAPsaFfHIR9rz+oypmwsUGaanYJPWatl4h6Rvo+C5aDd1JaIoKwmhvX1RFBSJyg11drLKlC/Re1aLQMglwPW19gttPDrUgf6BPubcP6CpfIFIB7TO+3Fz/O4YFD7cDDu52G7/ifA2ONCNlEUng+iPXOR0/eCNCn97CP8emVxih5wq3BCu6auRjajTcrDmeIPRjgwwfWIGyUQ5CJZiwsvInajZ5aI4oJBx1gT1Mc5IiI4y+FUCPBJLXSX4qIsZKAybyMPDN5eCQ8WMIK9vbzAMDTJFkXQdfODIDN6NZJLZ3o3u2TaJwXf5At/2lB3jSWegb3yNLPXsJ4Zv8xw0vuSrl1qPTNqAllHqjTb6/gyaXKadheVLKKhwyVUfiUBRSOAoIzOlq+gH2ByoLHFkciPq26YVKLpm5GRSUza6vwk6xLaP3oKxWgTfISQnqwcN2raS2rrk6nvqrR1LlV+UZ/Uzuj5LDo7QnpIdcnrYoM9MnsDO9dSAzdLKylFLRRulnoM8x0LYhtlPkGr5Skwj+a5foDXzqbNfNti1FRvIt6ADJCMzrtA/4V+FyLwgNHS6v3//bj55Ut+1zezyNnKCVmpRYrk2NTY8mpEHd+z00qk2DtdsKfSA3mJyyNgBmznFXdO8vXcPRW7RcJtBxx18KbsE6/yOVGKVASlL6UkxOMpuF/1GET6B3t1bc+jZ9zo1heRUmg6yZ+zkcoTZDEZOdhWmMeAkXkG/gcnZbWATxwqDbTgJCXQHjiDlq0HbJmmxLqTv21Jw6jLlAGgH7zpIa8BAp6NJn4Fp5BNc6wML5Q57LY3baK1emni2teDbPkw6kJGd9yXz5Us8/8xyknPtVyuTi237QIrJhe4HTi5tpGwKb4FGTvc///lP9e3bN/Xy8kIHfsbvuiZIVSCg8286gyxE1c3R1DNgUdIqun+LCS6/xvV5Xa9cxKU9DS4t6zoUUxw2pK323gMUKSorf1UbgyN0BR1mhfmpZfU0kZksKCL5SsDBjuRjckAPbrAzTjKlXG2/3KxtY7S0T5jVApbaFR7m2Vu1bbt1aRRZzyZTDi49pyIHukmfASjlwKbP0HixUhv9qYSu+l+j+/pxBm0z5jTrFaVM+TahbftVR1fyxfQUkoGdsOSvQAtvl0ZO9/Pzs/ry5Yv68OEDHfgZv+sU0wEJ6Ngu8gAzSOt3B3nUI67YMCjMMdqlow4EzyUm7DnNoCU1AxmHwNCwHESTYsKXH3mem889ZjAjwHN3i5OPQyXcUDpk8vY5+eBP0tLgQLkAl1uiTLz7vJFMMtv7wOWslyjbyiOOZaqX7FOTQq7bhFlejpdYk+10MEzUBUVct8iT3iE8/SwbYxvjtBILObF1f6irg7bdqC5Aqb6zvTObkCWHJHw1E2nQZxBKNUTZTk3OcMkGyjpK2wggZ74kNSKLYkpTXfvZfH+7Wri5fJuQb78a06l8EbsvoeX0NOFVchg53YkldD2LNpEUOknnBusNCxrnvPK8bzg7SPUw64H8Orf8HJ2TDzfGqegFc/qgy5Jd4HnCrL7JTAGoj0+v9kt6yeW6fZNYVsTJEE8J4vJ2dXDL4Sxf092Lp+gYGsokq70b3RN0EXM9d5myQDqTyKUEZ2seTCQiTBSID0jFiYTd7BXlQFPEz3x26E1M8RtFDm0SOJ2HctLOQzHHtzOqBm+HiQxyJ4UHFrIxtrGQVuLR+ydAr2OdhTb27bhN27ZVF0NS3/kYsBlZcqAJeNh2xYBIkz6D6OADppiU5gxnARNIkzYVPBdkncrlz8a+ZYW/rSrVfgV7o8e/tclhydOzBuTaL3zJAo4ZwUOmas7+nRe4aF++47t5GNU2zrtN+9HpMxL5/hU5DKc7yf8AJ8c7Xy5KwB0ldF5NB6N8zlQuoc0hg+vOgjd0eFaLeGm2Bp5aUtgEppl4r9sYD708F+QIQmkfbtI78/Gvz8UpFqv7dPkPE13fVJoI7hL3bwHB80IZ4O+p6xrJJLO9D1vOVmf8hICO6yP1VDkKmCgvmxDh660KMsVUDDPYuHvj67xCJSWwf+H1uKxcec+9EspJv3pu+7SHfLwDi88PBnCGfhUqKyu+3a1hHvR0bmxjImDhnRCTi6uic4Yvwebcbdq2jbp4UN+j++kbbtkfM+SA9iLqC/h6w0JXaNBnEHJIe72SDaINMDnCMCPxz73Wr3ksTYepxdre+vY75s81r9bzz83Ts3wy7RfZeCg/Ow/LFkTB3EQOf6twcluX77F5pjno9YGvKe1T6Iq/vX///i/zWRAEQRCE1tDvuIbZ3842FAuCcLgccKRbEARBEF4veg/LhhsoBUF4c4jTLQiCIAitU/MXKAVB+OUQp1sQBEEQWgNTSjCXN859FgThV0dyugVBEARBEAShYyTSLQiCIAiCIAgdI063IAiCIAiCIHSMON2CIAiCIAiC0DHidAuCIAiCIAhCx4jTLQiCIAiCIAgdI063IAiCIAiCIHSMON2CIAiCIAiC0DHidO+D6Vz9oD+e8KjuxuY7wWD/sIQ+Hl+1gHRd5lPzz18Jp+OHXf/x3aP68XinpBsKwv6h/vhjDpZTELph3zb/IJzu6dw6WYfhhPryhEdbzsP0tG8+9dRguIsKM0f2sD0g9fhjpKx0DpUy/fDH7gaNgxyk0OEeHauHmxN1cnKiLuRvYAtCNmRfZCIobMCvqzvax3kNQTqJdAfohht17PVNnlbm01otF5v/iWDtcO1yomKc944c9/FwANMQzepeO2yH+CeUJxe6bPq4V9ia64cb9t2Feg1+ZlczfppUrpdqC9VuH5rQdd9XaNA70IntIZftl2RHOikI27Lv6PBmHOZKszjdjOmcRVlX98yJOlE3D2vzQwtMLsx9z9SmPiUOoNfn1kXdATuIQg+ObH3W6mVpPgqVzC7PQI9eh5MvCEI9NKk/u1SHF24QDp1fV3cm6gJ8qkMM0sWI0+0Yq3fH5iM4fQ9fQzcGnRtZJhcEQRAEQRA24v3793/lHh8+fPjrv/7rv/56fn6mAz/jd6lzmxz/+s9fhv/+69//MN//49/wryL//e9/mOv+8de/3QnsOjz8Df/66z//gu/+9Rf7xkO/2ev4/YDgt/Txj+ACzX/+hb/xe/3nr3+58sDn6Dp9fvE7XoUcuRRkEBys/q5eURljGf33v//6h7k+LAsjkFFRxrZuhd/h3v+yD8fn1NWpVhdKnmNhdcGj0G7J36vkyQ/9vKqyoBzCZ5bcO65nVK7Uoe+r9Up/l/HMpDyjMtWUhe4dtB1c//8l7uuui/oXUlK/sNwIr1/x97Ts7ZF4LmCvcfWI9abQ/2vKn+wkYblTR2VdE/cM+5Tpm1jWqvaqKhv9ltBHcz/+PPcsd7+i3nmKdS/UtaT99VHWr0w7BO1TbJvCdZvoc0X/L7ZbyfkF2eN51Tqpm6Qom0pdMYdro6i+pXJkFM+JjkJd8FHhOfnPhyPRJnpcKNYreSRly8+JdTJRDipDok2MfoUyL7axq29QFntetU3R907Ule7Fn6XvkzOO6Etj3UnoGytLpS7HbUSEz42v30rXzPOSehXLyrUd/ju0F0FzWHibkoyq26ero1Gk++9//7v69OmTOjo6ogM/43edMDhy+b2c3vm1SZafqcuFzY0ONyT6jYomYj1+p1wQm9MfsRxHfj8AfyvNXx6ru8fc9I6+GjVMEu+P4rzynjq/7jL3D8oYp470ztVV7gPpTRXF1BOsR3JjA9x71CQ1plYXDCXl8JS0G5TnusPNiCiHK3XrUpXuV9ie0fOw7Nfn6tnksp+c3KgHBeXaMI+u8pmzS3UG31HK1PpB3dA5LNUpuywDdXWl1K29/v/W973XSe76vnapc/pZDZY87/1erVDuUf/SaVPKbcLUZTc/Avr3Z3Vv73PzoKBiFRtooF+f6fPWaA/MfYNlSGr/U/XE7rmG/h/qVk35TcoYldWlplWn/VTXFXR1qHw94cD26o8SduB4qB5dO+Bhymbba4OylYLPOn0K72FSz47Zvob7FdoUr+OYExq0G+rUs/lxK7BPX6vzZ5YOCO0X3HpTfS5dqZ6qz4Ol6Tf6SPVpyoMFQ273p+BxQ5XO0MkAa7e4/KyME/qAYxfXB2h4tJW+q2XIrEADfax9PlBoE7jfcpA9LpTL1mDGAq6TWEe0FcUxHduOCqzPw46C/f8RdPZo4a5P2m0E6+v6BOjWGs67eoQ+MVQvtm+nbEpDssaRApjXDG0NGu/1Ve9D0tTocs1YUW+PG+rabKGW8Kj+Ka+VzULoK/417QEr2Tuk913pejod4akKOTa/Ixo53R8/fjSfPKnvWsHlPdsDlVn/1BsMoRmAyZNTHvedayDANohRHH4/N7j1T73SwjMLudvYoaJdsdM5KJG1DTz3GxruxXwd0HigWzkl9uWBjvAZSmrq4srvjPbm+eGI2wjob+xkSgqMSqm/9vUhJYZObWcITBa23L3zz16+DPc8dMrq6pSjCzjwu5mKH8jwuDf54eO7K9Nu/HdrgPpqaNpY50lvJ88AkAsfUCdfUZbcgOCABmWH87xdgIH5Fs4D44DN3pjaZ5bRoCwgy+VtZv4gtGHoVEzUV2zE43e6/RAYKEd9bJtQ9pML79zporF+BLpzC/cp07M88JnhPXH+7W0KkFP+JtTVlRyz0F7MLhegqz11NDBfWHrPahHkcU7UBfbXTXWnCnxWlGc3/XwOg9+DuuX6doH9yvcp2q+xemL1gfpdtJF7OlD61qxM0H4Xrixd6DPIN8qb1f3rWL2zygC6egXGBgd8Lq7Z5UVzuwITvvMejgmhPkwujINXaGQ4l5dv8pXspXdk6mSWooE+1j5ftwmOAaFsztgYUEGtbP39gz6L4ww+oD8sTBTWD7e+XUx5e6Dr9+wB5TYU6uvOAzmR8QAB83umbEpTNrDptE8NneXYPrjyZuhyGVn2uKmuzdRCe93eno+HagD6vwL5HfsOpoaDHrh4i6Ds+WTY/I44/JxumrH+gIM5ur0jaEpkotyLQOx31ED0TbFB0DGje/FIcqhc2uHiDqDGz9SnygXSg84GQMNdsn9qoHGj/PA6uBJrw2bYdICvZaUWthMYg0M4OVcwPYVubzATFDx8NDnVednzmlChC/zNJ4EBBSaXaFR0J9XgTF6Xk0fGe8XRoxUCg4PMftJM3xkQ0tmEnsTnNaD2mWU0Ksuz+tmwGTEyEugI07G6t57oyMaDKhaNSlY/SJSReObyBUfdov5Xlb8J2W94YTbL6mqhDQNn1rCF7lSyflHhHmdtD1eLcOAGCSotQi0dkmcnkST9nGTEFelSn509guMaJh7MAdX2aKXibrgJpCupNk45KEjh3JnSXcSOHzUyq2IjfYyeb9ok9eYu0pMaamVbcX8dqItf1Rufa8pb0PUS4vouX+COoE1NjWMNzW267ptZjmmFLpeRZ4+b69pssQycfnoOyPgr3Mg7xdqZ31jGDWx+2zRyur9//24+eVLftQEtH6ECeO84iX/9np7x6Q6JMMfOKhQpUx72tXDc+e4Po+XIrE7Z3DF5WyQ6b64xM+TqgmXjjtjZpKYGSp/hEwF7VKXKdESTsjRoR9uGI1VcDdGYFarnn6UDBEVLaVkwKlumXmxDffmbUF9XHDDp9ZzXA7UsrMrskbjMJnUPl76DNuETY4CCGWBMMXhBv7f2+jGMwKKd9jobOPZd6LN1PEcs3YKvBAKkqw3tXBq+wb8tamSWpEV9LEkXzKVWtlve/81g+mbleJihy2Xk2eMNdI1STOzESAfLcMJBznhvoOhrCva1M6ndNY2c7n/+85/q27dv6uXlhQ78jN9tBzcq1kGdqs/OYuOymlaG5NITSzHBGR8pAuJmn2Z5kcAlBX2v3AFTL7XsEZ6PXjlI75/wXdX+4IsBzWmgC9n4+wRHtMy2Mygy4nUzPsK0ho7poixg2O1ycJBXF2CiSxVQJMLlFcZHi+lAMVnlb0J9Xd2y8Jb1qp2Amqjcxphom8ubjA8uL5cmBs4aDdZV+ag6QpaLDZI4x97m7bauzzCeXJ2r3gonX2G6BScnYptHva5sSqnMErSlj8SWOlcr2211ekfoiHCHmL5ZTp4ul9HEHjfRNavzFNWmVQvjXBtnHIN45as/h08jp/v5+Vl9+fJFffjwgQ78jN81ZjxVUzvZoXw189kKkTma64evRrA8rYPjU0x6gyvKMUL8UoxehiBWC6MIPNXAAgr4WFwCoXxF81k7vTylBQYOrjzTeSsvYucRdf78dfLl1fXLQK3DI8I8r/78KpQfOCvz2ghKDZm6oJekNOFSFrTrHOVplmKJvhpFDTWd121I6RAyjrv666Q17KwsxT5IRjxeKmfQIGUjHXsnZUPyqatrEp7KxUndh87Nfd990Yb4FcM6zPJxVWJpAZNzDj27dGXcUEj5okHYfE5h9+VYG7UjfY7l1aauluuK0cFtnY9YZrmU6WMdpW2S16dqZVvV5qZfbPNH6dql2Af8iyC2ZZO+md/3N9LxTF2jDIbekRqa1BKt39oZ75/eUaC2kG7zSthTTvc7NbTLfW4pguXdUafRuOXIiqV2l2LSw4VEhC87sIiJyzkOlz49xWVIv1Liy6c3CRlYHnNry9xsycaLJ9yoxGf7eml3g/y8JrA2ceUjx9VsKCMi+V2f+yj9puTqgtnAoeHlgLY2hQjy43m7wcGbTqcSdCzPAC1DrF84F7AThm5IG80OymLakBt/v6nVM7u8VQ/r8K0XiJsQ0X4DbNtogpQzuasaiOvILD+S60zX1ZXuE7QN27BcIJpE4pIxnuuCDJpk2ezbAkasHCayn4fZOJbI1+YT2XhSqwf2qtQ7m688YnpoInPmXxqQS6CoxnFzq4Jt67OJPHM5puQFzoVeUg/tyPhu7v+dqZPluoLjWLSvKIs6mRVppo91pNukrE8VqJUtTOpMRDXQSdMv4j0/e8Pkl59fMT2c4gZr83lroG/ihmEc64L2tu2fqctAcqzIssfNdY0g2RyrAZzLnWvy9Y4HPvpdyWaTjq45kI2UuNzPlyNsJMSDy5elKQUs2koEM3/MKQpzzzANophewiOhEbT8EpXvJFWedv6S4uo+ypXDJZwo9SF7p3drFNvEQvmayd823DAZkK8LpeVgA3C63VDENoq+H2zOa5gbe62OnjpMeXFGE5/lB7D2y2LakE108NVXqT6o8//QwfDPHikf6Uj9/uP6SD3V6pkf6PGa+hxWTm75UXY4sbPliwajgOq66v5t2wYPfL1VSQ4t2Kebl6G7B052FaZ6Rc5YumzWPrJy4NvTkv25BHCCsN9BYX0Z4Bi+8D4V1lO/Zqx6SVvLAP1uex0VDHTWnGBh7UKTbHw9Gat72/qs3xpSLy9cUtdi8c+9HrywDVy5OlmiK8e4tN88LYCokVlMI33MAO+H/Ye3SVmfSlEr25ROQr/AVxTuNF2vEmNXeF40vnowNUBtygzfDAbtFLT3SFmPNVeX02NFpj1uqGsazCjoqV7sXKOvh8HVrP0SUD4TEKBnB87//vgbvqzbfBb2CEZX7Rs/0KlsHLwQBOGXA9+mQps7xWAIgiAcPAcS6RYEQRAEQRCEt4s43YIgCIIgCILQMeJ0C4IgCIIgCELHSE63IAiCIAiCIHSMRLoFQRAEQRAEoWPE6RYEQRAEQRCEjhGnWxAEQRAEQRA6RpxuQRAEQRAEQegYcboFQRAEQRAEoWPE6RYEQRAEQRCEjhGnWxAEQRAEQRA65gCd7qma//ih5lPzzy4Y36nHH4/qbmz+3TW7fl4F47tH9ePHHKQsCIIgCIIg7AqJdAuCIAiCIAhCx+zV6aao6+OdOoAAsCAIgiAIgiB0hkS6BUEQBEEQBKFjxOkWBEEQBEEQhI7Zj9NNGwt/qOvznlK9c3UNn38kNhrqTX/4W/p3wtzLndcwXWU6Z9fCUdzAqTd28nN+JHd5Fs97rNo5OZ3r86LyVpfHbzLdVDYD85MgCIIgCIKwO/bjdM8u1dnJibp5WCu1flA38Pnk5ExdzszvQH/0Q12pW/gefztR96ueOr+O3rqBjuv1uXq+1+ecnNyoBwVOfKbjPbj6oU6f7LW6PPhc7uiO74ZKufvDcfOg1v1R6FCTcztS/dV9cN6z+bkAlnvUh6rfqJOzS6WrPVZ3jz/U6NjKA477VaE8yGaygfotB2qEEx1BEARBEARhpxxuegk4sGfMC598BWdX9dWp8yzBSR326byLifkK3NfLWzivd64+R45qEXA+lzfsWpwLnIEDC07t0Dvt+B0/BycMCzind2RjxlCOq3PVQ4c7vJm64LMIC3O4ef3U9LM6763Vw611woHJRaE8RKZs8Bmp+gmCIAiCIAi75WCd7tUT93SB2U+KHB+/M+7neKgG6KR+rTmvlLVaLopO8fJljR51lIaho9A2TQN8ZnyAdoSpHInyphjcqceUww1MT3ECsQii/UiqPLmyKa2fIAiCIAiCsFNe70bKwZHqwX/n1yxnmY6RQp+4LXSO9bUaLG9YOof5EaFyrNXL0vy7FCjr6Fz11g/qthABH6t3x/B//VFUF5P33hQqkyAIgiAIgnAovF6ne/kCru5aPdz4nGV+xJHkRqxfFPnQ07ka9fUzSu9H5cgB73OvVrhxtJBzPlM/MVTNc8KD40JlxNE92WUSBEEQBEEQdsHrdboppaKnBsO6NJIyUteO1RBzRZ5/+rzqAlOFmSCORuWYqIuTtONNaR/903Az5KaUlsnUTxAEQRAEQdgpe3W6Zxje7Q3UZn7zRH19WKve+XX0do+xupvnvb2kd34VvGpvOr/WmxltnjhFjEPndTqP01fAkb5fUTniN5rMk+/xg/PxDSiR4z27XKgV3HkUR8Gn88LbS+pJy2Z8dwX1M/8w6FcPlrxyUBAEQRAEQWiF/Ua6J1/Vw9rmZTd3/PBtHPa1ej4P+lodPbE3gJSC6R4LdcRywkf9lbrnry7EVxsah9qeg68YLLwBZHJBrwiEirjzflwP1EtiIyOB97WOt6s3RsHNKw/tPfAYvqh4r2gOKBv7CkR7L3zNIL2mURAEQRAEQdgpf3v//v1f5rMgCIIgCIIgCB3wenO6BUEQBEEQBOGVIE63IAiCIAiCIHSMON2CIAiCIAiC0DHidAuCIAiCIAhCx4jTLQiCIAiCIAgdI063IAiCIAiCIHSMON2CIAiCIAiC0DHidAuCIAiCIAhCx4jTLQiCIAiCIAgdI063IAiCIAiCIHSMON2CIAiCIAiC0DHidAuvj/GdevzxqO7G5t/CgTBWd48/1I8fcDzewb8EQdiY6Vz3JTjmU/OdIADTubGzP+YqpRrju8fS34T9ciBONxusg+MXVhpyLLUcHn8R79IbkrJDjMjhgn34Wp0/36uTkxN1cnapZuaXtwrp61ucXBjb82YdPVO/g7ar6HCPjtXDDfQl6E8XE/O98MuDdmd0/KBu0M6eXChUjTZskR5/ZYztmr073XpGBoN1z3yxY/TzJWp6CEwu9ACjj3u1gu/WDzfsO21ghANkPFQD6MOrp8NrIRpMJFQoEDA5vDpX4M2qs8vDnRZOT/tg/JZq8dZnrkJDpkqrxqL1oAaOv/ervhqJreyUvTrd6PBeO2977Wb1+rhRD2vzU0fgYOyfLwiCkA9NEt9iRH92qc7ABr/J6Or0szrvrdTigB1uQWhKW7Zo8vVBrftDCUJ2yP6c7vGdunIO70rdn5yp0A7O1OWZRDYFQRCEdqAI8upJxhVBSDFbqOW6pwZD8bq7opHTfXx8rP744w/1559/0oGf8btNGA8HysW4H77WGkGdbxQfUf4R23iC+Xo6dcSf71ZNTE7fCOyvpqfOr/EcnWbCr+MrLcnvg2dOXW46zxeMy7F57hXPfce6T9Wc39cUKnxenDoTXWOP5JJSdC6Ue1oiG6TQRsEJpuwt58CGz0zno8Xyz8nldCkJLLeejkL5tYzwVFeWoN5FeZc9v6AnUX3q61HcGxGcw3RVH3n5e3Xlonpfn1N/7o/0ObFuxFTes1DOEl2rax9zH+rn/ZE5xzyHfkuklZn7+eeVty/9mz+PrtX3dOfyZ0YU29PYj7iyBYrtHOsl3Zu+i/Sv9t5AjgzwsM+M2qv4iPryWkK54b30swu6XtsvU+il+VQKVH3fShH3bWjnMr3KxdSLdLZ3rq7xvqZurk1d3cPnVPYpA8lXNyQ7z95nA10Bis/Nq3/hukIbxvJl7eL6mtct3mZZ7VmnQ+4ZRm7u3HR/ThL1jZRs6trVous0Ulo1rul+tl5UvoL8itTLZaYWy7XqDYYZ/UnYhEZO99///nf16dMndXR0RAd+xu82YXDk0zqef9YtiozVu6Rv31ejkg6AShmnjqBDkGlHNqJ3Popy07VBKKSwkDFt0HGTYN11B3SAY/H4yFN2EJhQXLHOOH6n0qIEp4QLhwxAdH8o9yiuC6GNo5/EGPCeGYZgM/RE6fSJpyOBTKLnoTG6Pn9W9zZt6eZBwYVpIxxzPFSPV0rd2msxzxzbLlGn4+GjL4tdlyeDO1LHDywv3Tw/HtB0OTHV1JwHxz0mtRvq64G6xjYymnOeza9UFrYxK75/Gqu/7Ll0HeqeHxhoaROehdlgq3t9TlVqQnVd4ZlDFTzv5mENqpQYiOraZ3Lh772yctls9SzZvkk21Es4bzmI7UcJ089qsOR7HUy9Y+NGduZUPdnzsI3QRuTofgK0n65eeC+4/xXYmx/DF7Opq6Stssqrdc1vENPnqVFkgxDUZVCgZ6NrJGOV7pcBZPtWKva5N7IRxj4GfZuKWyhtM0xqD+ns2sgiSBsYqCun83Z1OK+fOtAunz6Z81A/cYx4hPoM1Yvtk9m6MlWfB0vWZvhc7APV4xs6f7H+PzhjBdjxx/VbOKBM/BRkoIVBv9sc/az2zNahvP6cAssR21xdlJQfkmrXkNnlGfwW7nVqsi8hV89nP0HKvSMokdAFjZzujx8/mk+e1Hf1cCd6rV6W5mMpmGriFZcON0r31Wmyd7McceZd9IfQWbhhI+y5aWXPxz8TO8P47soMojxfXXcaLPew1qBVYzseDnSWHjxPPwuNg/1yoNxqkam7Los+vChPnaGcftaRS8RvZrRlD5nO7cCIaULmvmi08SsYXD/TTU0btpgDi+Xy/g/cfwGl43UFwz2Egq3umaMF9b8FwfTOP9dPenrPahGUd6IusF6uTp7e8yJyNNF57FMZA8OI8keB87w5GABGfdSRUP8mF6bcWfUYKJzHBlE8OOfC3HCMHS7amOXuX4bJf72PHNXJhRmoYyHkUFdX0pPwebPLBWhWTx3Fo0CD9tmWYvuWk6eXKANeT6x3un8VgMlEONhO1Ffs7MfvIkcgegbogy7KhlEscIBcvey90N7c+jawbRUsT+eU1+paqj3NvzS6XwVlQdndZrT74MjZNMeGNoLsI5QhqBfUk9viToAKLJm8icb9FM71DWn0kxrS98lsXYE2imw65QXD9OZdxYUUdAvSfKAcF/Y+0MZXWr7BBJfZMw0JIxyzs9qzmQ7V9ucUro+Hdg4dZ23+I6c91a5t0kTPly+17Sdszl43UjZHz+hpaYRFFI4T2rHmBmTylTmgHc7gVgvWwcZqiK9zIPRsWS/p+MhNr+BFNMFvBpotln5gcmXQy0SlQCe0S2telLaj6WVYYv2gbr0g9WAZwM6Fmo3MPW26AZJqn+1Zq2W8tZ+MhXfOKIUJyv+V2W2EZvI5RiWV+zn7SdGWuE7reOZIb/NIlBGZPAWOSd2bCvLqsVQv0DTJiDCgoxeJaGgF5fmvRrfYJC2X7LcyMP20faagRw3aZ1sK7VtKpl5CKYsLfLoNc6FImpERrW7Fti0h5yU+YEMbGKdl0L2S9UhTVV6tFy8ggQjTng7Trx6KnSGv3aNnbGYjzBskEjqhr+uSorwb99P4XNLPnBXnCmAybdtW2/7EJJlBulMWSW/wJqS4zFnt2UiH6vtzCl2OtJ2bPKWc9vx+tAmN9Dzuc0KrNHK6v3//bj55Ut/VM1PeNuUk7dvcrv29WjCH/IHZUIhMdQUzENY4Mqe4a7abXGwORVPQ0bSDgT22XQJOUBiwUlG1JGbV5/lnaZQjrx4zWknQS7v692BAw1QLjBri0jJdX5feVJbStQ31dXV9/XqgloXVof2xlUMSQe2ZcjAzsXmZI+WX3juPsG5BfXlz9MJA/YoHMeyRSEPJYCMbYVL02tSJbAp600U/bYCdHI9YSlhhdaIIpUrcr0D0Ojc5SEOkNs5ZAS+ek9WeLetQCipHE7awBzlspOdCJzRyuv/5z3+qb9++qZeXFzrwM363CTTbM9Qt9Y/vhq4zuFSHjI7t0UvvxBbK3bgjOVjaBT9aTLXIwyyrEbj0pcvR2oANM2me2+cOvkS4QyiaUlamLVOJagdcEz2qh09A0zSph3vXuR3QeGR7ZlOLTF5iyYYdTX25mlN/T0pVoroeSvscGODk4FufKHd+T/2qEW2Xl9rN2674CNNYEkRR/i5txG7oop/mwtJANtkrYfZc0KSaHEITCNiib2a157Y6lAGV44BopOdl+76EVmjkdD8/P6svX76oDx8+0IGf8buN4CkflJYQR94wlUR/551dn1Khl2jL4Y48d9rT0ZRwqYgvEfZdwjhPo8iBp3dA/aJl/em8LtLYBWzy4dJQeBqMhS1zgzF0OW5mAA2ZKDd/gnOvAi8O2nBev+GkK6gd63LvqkilT0xPoTUzojC0RFeyimPuYZctySBWpGpsVA+bX5pcTcGoOEaPc5aAU+UyOpNc0q6mrq5JSF4Jtmkfolj/OrvSBunlZcAsqzcn1YcPmbi8FelKcdtX9as6Es7cRn2LXquGxS1qMaV67Jgu+uk2NO9DNnffpDls0cZZ7bmNDmVSVY7sFLsWaa7n3aa7/MrsMafbDvwWlg9Mh08lIaNC+HMKbwQpkDqXbyDh94Wz6VVnJvJHObcGtxzffOlJbyoyuPvoYz+rOsyZduVJpeyYzSIG+xq4spQUvXFG45YL7b3dlNnk42fs+m4NmtjhMmI0wYHJw7w8xMuIJku4lIoNF+TulwEDiYk2B2ke5h58z8Hs8tZEnsNyuolZVj2mah5M7MyAayaZ47t5GNXOcE7Ly4U6E/alXOrqSn0yGBygXqWdJa99kk6JdZxGrBxwfXFS2QHJ9jRRQ/OvUky+JXf4/IbtAySzvNpWQnsG9iHV9npfCfarMI6RMcGnskQb77P6Vmy7jH2Mc5Jpk7D5bDHpfK6sqKOVK0zN6aKf5mGi7LxvZfahOOikHXXr6JXbzlq7ndWeW+hQLpMLk+oXtjWmWtFG8i43TaZoMBbq/G+fEaDTw9rV2V+ZPW+khM6Fyxu4nTeFmaHbHb8OXCapSS9ZP9yDkpl/EJjiES6BFe7rsDNvD6a1NE/D0PVLPSPn3eTtE090KuqFS39xwVf36XMpbYG9LYWxWuw6hYaD9UX544BkJwJwXB+pp3qvWdf3Zciu038+OnuZ3ORRg6UL7oGvqQqXMNPlHCkbocqsRzCxgwEXXx/oynoMxWDX0qus6pbPS8pFr3XbYDmZqK6r7pM4ONjf8JV3JTndme3jHDo6zw46WA68LysHvrKrUdrapuCzbYqPebZ+eLIPhRjbxNr6St22lyLWOrnlRVsJ7RHknabb3uYDu2AAHdfq6KnO1uhVuTBCndm3Yox9DIIM+Bq+9IDi0A5N21HOLvppHvoNKZv0obCs+lV2rKxJ2zlQL7WCy2vPzXUoH0z101Xwz9D13EfaUq6e62BNF39mXtD87f3793+Zz68fjCqYUAM6k23kZgkh+AYCLWLMiXsNOY+bQfXEjV+dRYmEbXib7YMR1Wt6p7XYLgturKVdeuy1bVtAYwTeriNntOb+qLfDF2lf4UDBlRjaxP52x/Z9s+dIt3CwYOcL197M0pj5x45z0gThzWNyuvfyVoxDpVGOfga0zL7930goo/TVhwTuC/L7kgTh0NDvn89JnxQ2RZxuoZwgXSHKjd/5m1cE4a0wVfPC3gb4DvdMBH+w4xciMcmn72CWH/zNha2Z0R9BwbSF5DuiM8EARLG4dfm6mELTbbqHIGyKXsXucg+AgIjTLTRCv7JRBg5B2JylesE/Oc0mtLhRm/6k+K864OEmx2iSn97/0ALm1Znb3BffBhHmA+8zX1cQtke/blbG9q55WzndgiAIgiAIgnCASKRbEARBEARBEDpGnG5BEARBEARB6BhxugVBEARBEAShY8TpFgRBEARBEISOEadbEARBEARBEDpGnG5BEARBEARB6BhxugVBEARBEAShY8TpZuBfFLN/6CD+a2OCsFumai56KOwZ/Ct1P/ashNouz6FHtAj+tcsfj6qjvwb/Chmru0fzh34Kfy1VEIS22LvTzR1dfmzzJ3o7hwz2KyjnwaMdy7jtWx9gDwhyYpJ1tsfu6t6JM3MAvNV6vU3KbIBMOHcHOtzX6vz5Xp2cnKiTs7I/Yy80R+u3+AmCZY9Ot55ZX5/3zL+Fw8QMim2PgNM5DKwj1Tf//FXQf2rXHvdqBd/pP61vv5M/w/vr0WRVo8m5Ddhz5DfsA/r4Vf8i/s4ZD9UAhuHVkwhcELpmb073+O5KOX97/aBuuMG9R1dE2Ds0EHfhGIPjMPJ3Xd2ztj+5UQ9r84PQKbPLM5D323Py32q9BEF4bUzUBYxrZ5eydiBo9uZ0D458hHu1iJazJheipG+Z8Tt1bD7ihOtr4B3N1OWZOEyCIAiCILwtGjndx8fH6o8//lB//vknHfgZv9uW/rB+40Yh9zva7MF/x6XXMHc2tWxq0ibsAfcbmF82g21EoXzS6P5mPTisR1yu6Bp7JNeSi+WfRjLgFHKJa9an6fzrc+WmRv1R4rpUeRvm0vbO1efaC4rPCYvPfudyIB3h14Zl423Bc+6qZRW1M6XJmM/4K92z3WX6ap3RhOfk5RDqa5hMXIoBryMcpv715UjoQ1LP4vOsHIv3bKVeQHyf2H4UqdO5+rLR7wUdhIPdSOuaXk3qj4q/c3LOLdQzkkMR09bU13vq/FpfV5Az28eS/J1ItKv5pXVcv/NHQWyFc2rKY8+v0Y1aXYpklf497GeP//t/0zWppqd2D+5RJ2f9O97L2bIqnTJ23uoUPzVHn+ge+mGl51hK+0TjOkQ2qvA7o6AHkZ2pay+gus3junAZ6t94f3Hy2rRPUX1S9ld4DTRyuv/+97+rT58+qaOjIzrwM363CZOvD8plEYDjdY0KlVB227kKud90Tbpzo/Fg2QsADCZX7N6k7FHaBNxv1Fp+eV+N4vuD0/r4+BjVIy4XiwBz0OHlBqVR+XWnDeUB4D2T8s6EOn5UBgLrnh48HLNLtWAZRClj7yh5Dl6TNFIFOUzUV5ev0len7hljNcRERmKlFrSy0lRWUNfCye2C9bxSty795n6FjlGo92jEr8+f1b1N0bl5UHBSiRGvA+9/pdStuRemelndPVpUlmN8N1RQCHcOlmON1/JyGN09fmA5vPcqKce26oUDZnAfTGF6Nj8mQT2IyximvGWXjezUqXpi53GZ6Bx/ndvv0qxKkpmrz7V2ktcT2wn7Y9UAjStLcC6WC/57uNHXBSuNqP+kEua+IIse1DXor4l21c9O2+jtgLqSqpnywHEDfbw/YvVEuzE6dvXR5TG/paDz+zq3vGIjYa0u4X3AiX12/QB+V6ADCfsxuPL97Ox//T9qCWaq7w2UYapOoWuslwtdpgZyPh4+qtMnU44qnaK29zqlT22oT8dD9Xj6ZM6rW6kcqCveJyilsEEdSAZs4ycd0C8SdpqcZWhXnsJ4wxsso72q27zeViTZsE+V2Urh9dDI6f748aP55El9lwU4XmexctIABQ4Y0zyf++0HBDvwgOaqYWo0cTni9jygN1BDc+r0s4/g+g087NwWsPfFwcDSg4fqOqCRsV/6cpFMqCz+cCLqnzqD1KT807l1WFfeaBgji/IuizJzY0ysjIEjwweGxnX8VLugTakebCcXTAYG7Xxzg86eY58Ph5Vp7/xz8hlOJmbwnC2Wrh5+UBsol+G0eqJBYiNZuXLpgUbnE5+p1rKj4P7cAdKTVTZ5AMM8hEKv7tlAB3p0CzIqk08d64dbX/7JV2qnXg8GHTZwF8oBYN2Dsd1MrnpHfg2JdDeqEyhD0E+IFutFqWymjTXgaF5UvKGBJr9rtVyEZXR1a1Q27B/heSSTwbDghG3F9DPYSdRb9ixA9zOYINUvJ1UA9+WOqNEJ7iBSu4LdveW6eoH2oMRGR6DD4aN5eFTZj2IK2uxyAc/qKatq43fHIPqlCpswvMbBHO66tMZqXcLJACkG6wfw+y30lYL9gPssWT+D8xba6w7rPT0FCdqgQDM5954Xm29GbapPYB8WuQ/DqvM+Qe2ZXwdrQ8KJxERdoK3mcoZ+egXOAzrc/NTZ5YWRe157VbZ5na0oJbNP5dhK4VWxt5xuAhSIO1EOFwni0UiMrFmD7COffEC3+BxxHuW0BllHDojAePFzt8UbSe7wQcFMZzcGtgya4eq6+kntsXpH9qhJ+dm5IDGMQJP8WNrIsb5pM2gg0AQOWlCG0CErgoYWndV4ssAiqOw5FBkw5ferBVYmHC97x2xBUSTi+J12dti99a79TWQFDlWYkN46hTcKzH4qDLLYsoyHAxqE42LMftJZCfnUEQ0g0E50q/WLWuovatARMttWpL9W5kbG65finXR5PW3Wa/kCje9sSgYk42Ik39KobJHjh1B5ekdbprOFTFGwgWNgKXHmmlC4r9GJqF0Le3NAY3RV62vqgwf2KHGQOcxO2jHB9gtqC3CcriuX3IAB3CPT4UYqdYneApKwCVGftTz/DJ+nJw6h4xm2azM5p/pZLo31Kds+AIk+kV8HI4PUm1aMnbeOK/VTkGjpS1ky26uyzWtsRSmZfSrHVgqvi0ZO9/fv380nT+q7pujoYBQVzo1mOSV9rfjoDEVcIkeva3IGxG7Ru7tD5zsvOhbIzpI0/mySY1YWaFBBEs5TGUVZPato3Nw5FIVB58I5H+bws7WdoXMvr9Vg6R2oYDHLpE/FzkaKNutF9sUs39I9atOqUCcxoucnX9x3OySZa8YKA7t7w7SrTRPzx7V/Q1Wr6DSwH9cDtUysshEY0MHIp5usp5wicJZGYGuD4EU1lbo0OII78uCQPYrpcWB4VNGfmqgnvgpiV1Ss19hQzjn9LM0G+vT8M5oItEOhDkYGOVA/rZoMZLZXtf2othUb08BWCq+LRk73P//5T/Xt2zf18vJCB37G79pCz/TLYEv+/HgzL/I3S12ET9lobSkJBpbgtYz2qF8H2xHVKw3FSJg+covvVxzQUfeDisuV5By8rDwUhSkrb5tpLnXAhHHU13qbEzGso/V6mVU1cs7IYa6LTNmVGN0H+R6Cg5G5w0TJ9oWJDPK82eBoud9QGhjJv0bWM5uuZ52iOBcZ9dXoQ+1EjFGmS8sXuKO33fGR0y8m2uumwEBhRWVnct6fPtVG540McqB+WkWT9qq0H+W2QhBiGjndz8/P6suXL+rDhw904Gf8bhMwKhbPCHEjlpth0gyVp2GA0YwumM4bLukQehmLgM4T53/tD55jbNNQeHqNpUn5deSEgHOvAkMATv68wUDDVxQmT25yFK5ITNVnV4aqZb079VgY5Pi1ZoYfPOcqHDDhHvMmho2lmPSHV/THIHDQ9akULcpqh+hldLYv4KDQS6SOaPmX41YeDN3Vy+R+qvwUFYx0YcTernQcosz1EngqhcTYkGSqQFtom5Rq153BU9EKoFOEkfDEyhjqg3WkmjjeRKRLJtVgsI1iUG4v3mNK7RYGBXYn5071KdV3zB/oqY/sVsgg+iM/tf10o/aqth+xrdiYBrZSeF3sNac7Xibjb/aweWtB9Jvl9eKx2WouGGD26gxXhh2mdKRhzrSrZ2rZsFn5+Vtiws1KcO+6dToeVcBBCa+jiQ8YHrQsBMt/ZstywSazFPZ+iWsxiqijO2FOfrAMCPVttgLKU0xwURGIN1ptIyuDfrVU1dsiWsYM0oWcwqaTkm2hqFE4gPmNqRaju3F+JEXJzWdLi/WKJ+c617MiNajwjCi/snWZN3Gm0ufOLm9NNDcs03SONmQVbIJNspXDWNKuwGaBkWrIIQycKb6xWzO+m4d9kJzyVEoHYhypDMe7Wpe0vULbEcaHmkzatZ3qnY+o3cL9KbuT89b6VAn0Hf7WLmw/HL94VL8UkAFudMQxMhCyuQffFDm5AAcY+2loj71u5LVXZZvX2YqNaWArTVpqFJMUDpS9Od20jJbCLNv6Po2RiPTrntYPX+HXDbD5fuafBHTW1lI5NgI6GUVjPJhSkSwTlj8WSFn5aYkVl1fNvxnFDTkxdlafgJbbwvJqdBpQpU3mGxsjaOmUpQxRPl2yDIkNkzUEm1qBQmrJVrLaF6g39lVefFJypJ4aymcrUHagk3yygq/6KvRbo7vBpAZfNVY4sc16hffQr/+qnhQeB5Mu/douv9zctsz9AEv3qRw9y85Nl2l0jPY0Y1MinGEdELyu8fK4sang4bhn4zF82dBGV6CjiehM2efg6+diW3TMfoeDXh9YkY6C+msd78pJc7Uu2fzfMKB0rY6e8u2Hs1OpaPLO5LytPlWAY/ziiAVdYHIO41d2qijZaWhv2wfMPejVetHAg2/h0uKy50GbDV5csCWvvarbvNpWbEG2rRReE397//79X+az8MrBlB09C8Y8tX3klgrChmC0ZoTvXt5yQBcE4WChd14PlurmzezF2gNiK181e00vETZkfKceo2gYGjO37JR8JZMgHC6Up9jktWOCIAi/IGIrXzfidL9WgqU1ng8fvXRfEA4InBzG2RN6wrhWD7eit4IgCIjYyreJON1vCP1aPVlyEg4XfKNAcQM15khKOpQgCIJFbOXbRHK6BUEQBEEQBKFjJNItCIIgCIIgCB0jTrcgCIIgCIIgdIw43YIgCIIgCILQMeJ0C4IgCIIgCELHiNMtCIIgCIIgCB0jTrcgCIIgCIIgdIw43YIgCIIgCILQMQfudE/V3L4Y/vFOjc23rTCduxfOP961emdhl7h2fFTSjIcP/kW1Hz/m0LPbg+65gX3Y9LpuGKu7R9Bj9ifoupBVM7T9jf8qniAIgrAZe3S6mUOdOF6DodeDYrHsb82Jn86LdXTHnhtqeto3n3pqMDwUuTPd/pU8FjaRDY99Oo7CIbP/icX2vIU6CIKwGyS9ZCN0VOr6vGf+/QvTH+01Wjh5WplPa7VcyN/G3T9r9XBzok5O+HGhJuZX4TA5rKi/8Csjuii8ZQ7D6V4/qJtgkD5RFwc8So/vrpTzt+Oy31sn8C3CHap75WraO1ef9xXmmVyY8pypS/G5BeFVMbs8g777uidlb6EOgiDsBol0b8DgyEe4V4tLFfh64ASe/RLe30S5ILMgCIIgCIJQSSOn++joSP3xxx/qzz//pAM/43e7Jp1LndhIN75Tj/F5VctW0fk56bj9YcYyWKEcUVmDTZ1TvaGKPo+Duoa54jwnnucTFnPlw3qw30EWU3v/Vpfz6spgKZ4Xl6PQ1hW/4zPal1eiDHBskrcflzXMlTdlinQlfk46vz6VT2o25vFzKjYP58m5m82qRfkmnlPIF0/V2WPllNdOkQ4UlDWWJRxxf6F20+VOtmtEXOfHu4H5pZ7itQVhZfY/wOgbpcr1ztU1nV+Uf/jMEj2I7VyGTdH35TLSZY/7cukzC3oRn5dou4Iw/DODtrPlj54RX16ow9a6YMaA0kbT0HVYRif3sO6xrUjeLtFmekzwZS22kYHkUmyXYn2iExJtQudk6qIgvGYaOd2//fab+vTpEznaeOBn/G7X8Eizp6fOr1kHRYNwfQ7f5gKG4Mqfv7ovT3GZfH1Qa/PZGYeSAYYMUKEcWNa0Eeydj3zqCjC7XLg0jt5g6J8xPVV2C+H64ate2iQjOHLfW/qjlOEDoOyjTfPS4VkjXwD11coqtwwl53m0YS7kzZO804MX0ra8cODqIncfn+HkR/TV6PFRPUa60ju/YoPOWL07Nh8D4NpAJuhEXAd6ROeEDzRsJuf2mKrPg2WQonW/wv7Bno3tNDoOcsWrsriwzUZ9nQpVu+pE9TxVT/b5N9C3+6NIVz+rwfLGPZtSq/C6QgfW/fr0yZ53ox7W2K6hbdA69azu3f1u1HIQ9vsyCtdCeeGhrLzY9iN1/MDKWyWs2aU6g3NuHsCiuVS5MFULdfVK3br7FdoHwTYC3X0Gu6nPg7orkFGJXawj55lkW0Gn0Vbb824ens2vADlx0A+e793v1HYl+1Dwma7tUA+gja+gT/4Yvjj9RDn1RzmOYPe6oBmoqyulbula2266T4+OWeoj6ADWL1DZQptB/ZaDzccEoF4/sWxRm8A51GoZuigIr51GTvfHjx/NJ0/qu8bQwMdmvjWGenJhOivrtNoJ9m+w8G+14HnIYPiYTebwPO01DFiVOeVoHOKBzNaBWzUw+lfmpnhPW157aTpK7surHQaWxtEbKPuCjrHzvuwGQhhsrVO18gaNDBjQO/8cDpIGV66zKE0miR5IqI3ss9A4umszy4CDoXMAw41390v9rW+PVB55Xw1LR7025TVVXo3YAGYHiW2w93O6C/SgwqY9bDlQ5v6tLDN1eWbKYA+nh311ahp4fDeEfxlc3XDQN98xcuWs81ZzBkCmI/ZIhtgsE3UR6Z6e1B6rd7zt1kvF98lOLtI5tN7hzh2s8Vx2L+jbC6h8MGErpIxN1FcU5vG7Qv8NbQe0l76Z00PU/SGVj5cf25XtkSiDrsUmDct7C2XxfesdSC7aVAzl32qPDOgQr79uH69v8FB1pwsW1v1WO64b7feoe6axrXFwZHZ54dp9+hkmsKj/QeVB37DPpcrFy2/1ALvkrddPPanPe1NSp7pggfItWfkImCSe9+C+/HvQATQVfszRbRaPddjP46Etmxz9hEkCxsxWT8FD1UVeZxWEV8+rzunGAZYGdRYd7B3pZdrli3dayAmggR8M2kVkoIih+uw9bnWbYwDMBj7vHBlYlGw8HPhywWzfOiHO3+wdgQmKWC0KzoJ/Q0dP6eqN1XBgy2ucERbJxTLYZ/kIpndiPCu12MrYRYY9swxcLuuH26C+k0u8H6ufbT+6l49K23ZO0Z68lsqrkZ5UaTXafpBwewFmC7V0KuTbY7ZYgnTL0JEsKrNTJvQBsYG57Fbq3nsRetAP2E7OadCJsM67OQKnpwRadTDPp/5s2w5K/hOmOCj/SucdhvO7x4YONxA58wjZjkTfdPYGDtKTwjmJN+gsX+BbXxfS/cQz4USvayXoa9mqkoHkY/v37CdMCLEt21ulCBwkhJ5h9Q0YD9UAnbxiwcLzGlD3TG1DVio+zaMnzIX7IKbP9f2sgYjP1WPIs/qZq0sBmbqQvH+9LniK11PAKTGOBHpt2qxQRsCPnc3I0k9Tt7zVAkF4ezRyur9//24+eVLfNYZHEfGojLp6h4P5GwVml7dhZM86VomBu3d+7pyM9XJR8ewiOgIYOt9lUeUiRUd4/WJCvZzJk4t80EBBBlP/u7CRsxRv7B3rFzCBTTAOFVtZaDa4F8vwvNmIhqMvaEIJrcnLROvMNwgu0aIe1fh/reIdX0wdwOfHqSMdUiXnNhibnNKRCpakucxpgovfuclRQufAKcdl8XgS1wY2R3WkiisiTUmnxuVB15rJn5aDOQJDOFEXNpXB/N65rg6OoLfwSZs9qtLHtoNkUWW/KOJ/2NTWIYfC9SYFjQUS7BGkkFGbtUuefmIk36YL6d+DVC5BeOM0crp///139e3bN/Xy8kIHfsbvdgotnZnPuHRIg2BqOU53bvw9WC4DYxQPQuuHe+eghzm0+fBc4hQ879AfuRE5ljKBTpAzmOlID09l4UdOwDELs2SogcE9Maq3V4YVy3dkR+XErEV5QV0xzzDWsf6ovUhiLjxtxJU5dlA3ZhM5bwtMoHEfBfVjvsSewLWDdSijSBlO3KGj44pSq4M4S2PIitjXsGkUEaFr4wCFO7gt8bYPJwc4UezUsaEIbmKFwxy1efUbUCtHExn/9ZgpCiy7sTE+TD+jNstDR6rryddPnEeb702frds0KghvhUZONzraX758UR8+fKADP+N3u4Tn5rrlTJ4qYJjO/aBMHZx53sXlziWLaMIM/Ko6pxyXmWMbEeTRmugDTxEoOGnTeaMIlEuZ6A3UFSbOIasn76iw6G5h4gCOw7zlQTdYSbATmcwyhHLhzhM4YXOU/UwtXM5F0amfzusd3nbkNVVzt78AI4h8AldcpegaHyX1aSh6iZpjBl2C576zHHbH9nLugmKdOOhQ4gQosXKDEfEuHO8CPC2nGTpVhuX1WthqTBml11Zgc3Sbpwk1wKS07PIvwtbLwqQxRCkkhJF1MvVkh5CN2lAXqiDnt39a3XdL26xMt4v2zu+b0myin9hnadWo6xU1QTgQXl1Ot591s+XMZJ5JtNzpzknnsWEkzaW8ZuSP2jQDe/ClO5+vy+6JTg07P13mCpyT2KPNPUg4aJjNXURU9+vzDpZawflhOcJ6UpFZhiBSzs+7VufmpGDlIFoqzRJdW/KKlku9GqXycrvFR/e8LgVLxgb+dh2/lyC91J8rZ51i0XYeppkgcAfBRJY547t5+FyaZK9VKhPLDuKtOd4mYsqdt+CPYzVl8hUmq6hvfEJjIv7mX6UkrwX4pLowwda5zcm0NcZGDpND9yWUeWg27SS6A6CddYpCqJNeV8A+YSAFdTooFEw+cc8A3zS5L7bRhQp0nwYbEb+QIAj0pNssqdtkS6GcPBgF9yrY4Rz9RPkH7WGc/OefeswE0rpoUutCBROEV8fr20hpZ8YOXBbP3O1NS1/lKR2TC3YfMNZlg7bfqBdhlta4MY+j7A44N95wUk38x2iKqRKUX55MN9h2w2QJNPCZz2jkwSDmlqH0PGd848iyx73yr5Lu5EWpHZ2mXaSxUUsH6luq/JiKEX+P56aEubWct2NyEeYf/8DXnxXqdAwDuZ8M6NcHlvdjlJN1vOvehFSPedsFm5Dgq+xCG9QEjNRHddaVhu/MKaXotJH7Fb8Wjusj9cSEcewmWnjo1wfWpng4hwmvaT65or4EShQGI67V0VN3/QRtKzRNoBvXgxc/GaaUJLDpwWTSvE5x7x43so0uVGHy+vGVje6+cAxfgjHH9hPeZmndNn2AByBOnxLjWp5+hpN78/rAYNDcThcF4ZD52/v37/8ynwVBeMNgtNpGxqveQy8Iwj4Z07us8d3wXeTD16HtBL5ru2afhSAIjXl9kW5BEGrgueiG6ZylolS9ak0QhL1icro3frOTIAgHizjdgvAWiV/d5ZPRVfjHOARB2A+JyTF+dyg554IgtI443YLwq0CvEct9TaUgCN2yVC9x3vVB5ZwLgtA2ktMtCIIgCIIgCB0jkW5BEARBEARB6BhxugVBEARBEAShY8TpFgRBEARBEISOEadbEARBEARBEDpGnG5BEARBEARB6BhxugVBEARBEAShY8TpFgRBEARBEISOEadbEIS9Mb57VD8Kf5VPEA6RqZr/+KEe70RbBUHYjD063dqA+b/ExY9HJXZt95ADlGwPOOZTc5bQFC/XX0Svx3fqMdaf6Nid4/JWHSVxAN82+2vfsnFAhgBB2J4DjXT31Pn15gZnOkcjMQezJbjJzbYWsz8SmQp5zC7V2cmJOjHHzcMavlype/bdmfwtekE4YML+enK/giGg+Zj8q69kNan/QcuKAim7DxodkvzIr2xh5nkYTvf6Qd2wzm3pnX9u6OSN1d3jDzXqm3/+6lBHGalNxLG6twb3RpHPRPTVUCJrwqtioi5Aj9+ek/9W6yVoDqx9JxcKh+beYHiYTqEgvBIOL9I9+cqcvGP1Tnr4npmpywWbCB0NzCdBEAThV2HyhF73kZIRQBC24P3793/lHv/zf/7Pv/7rv/7rr+fnZzrwM36XOrf++Ndf//nL8N///usf7vt//PXv/zbf//Xff/37yZ3111//+Re7/v1f//I3CM8L+M9f/0peY4juGZTLwe7xj3/D0yKC8qfOgfL9g/3OCvHf//6Xq+9///sf9HuhjERYj9S9LHif9D2AQn398Q8veDiN/cZvRtfzNoJyud9rZA0E92UHf7YlOLdOpiX3sDLN+R2PQpmb6kfi8M/lZY70P6pfWhei56R0EYjrhEdc9//8q6z/4VGsY9hu5vcKXeKHfnZaRvQbPT96Zsm94/Yp0yd/6PsW9CAhc30vrttAQTZwJBQ7VY5Y5q6vJ+rWRr3q2y0+9Pl4TrGsoQ4VZRb2v/h6uGtJnyiWMX5WrSwK8g+fVShL3IZxv0m1MRzFcqRkHh9l5xi9Cto+0jXAX1e8j2uDWIbZfSWn/FZ+ifajG+L3qbqYw8j2P08p21StM6UyYwTn1OgBHkUZJH7HergT7T2Kz9ayD69Pnof3S9rm4phFR865hbqW3Ct5RPoSyMn8FtfNPO8//0rUD7DtsL38SmxH2/KLz2Flsc8PdcOUH88ryB4p6lru0SjS/dtvv6lPnz6po6MjOvAzftcq08/qvGc+r5dq8X89KRdn7Z+ydJOpOrV5E6uFuvyP+VyKzm0upJ5grrLNA6pLx5jO1Y/rc2WLl4Lyigrn6Bz1VDpQ73zk60uM1btj8zGgr0ZRTjXlGHWeSzNWd0P/jNXTxHyyQLkKZSiRNYB5gWFelE4Jug6FEJAjU5RF1T3qfi8tcxP92JTeubqO6tc7v1KPhVQpkDWX3eAokommd34d5F6m6t4fldQDdTxRx03yObPB+v84VU+UzgTHzYNag9zD55nUseMwFQ3LtVGaHT7zSqlbcy9cOu+PHkHm1+poYe5/cq9WeF6sr0MV5Ltizjpey4urZf7MzrtRy0Hc15G26oX6O1LHDzeuXDxVr4rj4aO6UrfBdbEOaQbqysnsTOnMB9t/eV1RnmivohxQ239W9/5Z0NbP5ucsWaB+jo7Vw435HQ5eTbQVsdwf/AP09dDXnnn6nII2DnJBE+UAXQBD12Lfx2dcq/PnMlmUsGlfaaH8Uxxw1y9qqWZqsVxDh+HjsWb6GezY+kF9/b/0vg7az+HSR63OYDNEOgP1AIPO6lEjnxo9SMog1iXL8VA9nj6Z+1woGuHADxksWV9K2gLsc1BG0CAuZyqG2ddSVv+AmnNRVnFdtbgybITpc9wu6L5pfYmJukAdgrp9dveCesHAs4ZrLiYzdXkG1+E58J8tQ5D2tLH8dN2gOxbbsUX51fX52eUZPbM/9DZgfHcFtnql7s8u1Wxy4cvlbJep5wY0cro/fvxoPnlS3zWGDAkoFh7Oy4AGvoUKQ9W+ojCJvjq1bTY9dQaEHEESDM8/thtBtHCmc2tw2AYRUiTAKNx4OHBOjM9p9p2ZjA7hlS8w6qDgV2ZURYWNr+eN6okV2Si5uZYOewNWfxxcvKjCTr+EryYX8NnWD7HKcpGnKmic9K51MCpeKNAJzWdOpIhe1mk5wM2dsZjOw/vbc7HsL/hdlkzZBIzLAu6hm6bu93b0Yxvs/fy9eqqHnZ6eYQw5wgc6Ywz84fXf5V6C/PycydeNDFQBbWwJ1hb2XL/HQueb5upSPdgHmBEDI4oZTUH+KE3GrU0wmDzTdL+qI7zX5Cu2NcgcBnlfLWN7AucC+2docGeXC5BsT7nMK5J5VCe6jrWjpa16jd+pY6jBcuHuQvfJaaLe8yIcROE6bPPCnhpQ/iUvJ0LlR70KZTK5QF2EibEbycEJugKHDPWKFwra+sI+O0MWY4xIYDAmKK5/9uAICrl6CuV+Ye8HZcDOENgx+P0W2p47HbZOOOCar+Ap2jkx/9qegdJFLZFFKZFelfaVdsuvxxvfNlrn4z0+2s6ulwv23ATGJq3uw3rcBjpXLZ86PWjUr3rPahF3FDg3zKc3tuD4nbuWxgwcT2I553S6XJwtCR3OlKOYwk6CbtnFkwu0Q6ztjOz7I+2Ij++GVC9+TSUbyg8EqHUqqlvQjluT1+dJJvDvK5LJVH0GnyPQzxY5zLeXkGPkG2K2WDpj0Tdep3OA4dyvtZJhThco28g6+Cy6ePxurGY/fZyBnE4zE7JKsHyxpdBRVh2x9UadO2UYKbKvWnLOcSofDqP0Sd3WM/VwIqLLib8NB/ZJkWGBkl7mdpYGkFOYNCbw/KABQgc36Ozk2Gh0O/J2gUGC3x8MwSX8M0+mS+WbRk/gdNNYI133ezv6sTFMhylv0rB++GruO1Hs6yJgvLRc2ATG6Fo4UfDl1INmBJvI4sTIytpHyTvaYxENngj1NdZfqL8n+kp8XjbxM2c/aQK2fsEpawYwGPrXIuoJm+6bVubP6mdU1kAPDa3Vi8qPdqn5G4aKq1d4O5RG3N7FOunycyfXEkVDx0OFJiv1LEuOLKhc2IejiJmFzi1Efg1UhtheAabtbfuV1smc1w5aF+IVklpy+wpFpCMalZ/ZQbIBGJXmzpG2SaGzj/ZjpRZxA0ZQ/0iM26HOVcunTg8a9auUrAwUZXYyAAV21+oxo3aCsSVaVsU2R3SO/UANS/VHl3G14P4BomXL92fNLm9hkgyO+HyuYG4c+RQ1bCQ/00YldWuNzD6P+nwBsxic9M1xMhU46e3SyOn+/v27+eRJfdcYcrJ1VI2OYOYIgHPk9vKREfdOUltKTwpoZsIO46BZ50orpv6JsI5JSccvUnRaioO8TnMIHKhKUoP79vBILh7lCtjS8ys6bjUoUzNzNd8gNlKvm6bu93py9GM3eB2itBt8PpuUdQuL5u4Uk3LFJgL2qE4Z6gLTP69hqudWu8IINkVbs/S5zXrh6gNGl72zlG2WcinUqSwVLgGlQq1V+ZwmUxbQB2kFyp0XTjIwAmjTY+h33jepDCZgwu4fplM1qNNWgE06w5UtX57kRKExpvzPP7ccF/2qmD6KgYXY6SudrERQ/7C2kx+BHauRT6UeNOxXCVlZ2zpSxRU/glaW8NIOBl8GyWpTTBn9qrU9Ur6FHiNVH9rg4bYwWalkE/m1pqc1ZPV5A43vfRBBFABsmUZO9++//66+ffumXl5e6MDP+N0u8BFAcDqmWplgFAiXU3OIHXx7GCFTWgb8O1AQMBB62UEbAvw9cL6gc8cDXOy06iNcRklBSzvms0unaHVZ8/VSKVOYmGFeV+wA2SWz2t8tW+nHLtFLYBo/QAZ6uQU8lYcfHdqiCmaKgmAs5SU8ulkGTOGWlDP6cj1t18vbJ9RPHGy3c+TqJtSm/DksX2psWANZuL5sJxlRNBQdMvpdLxlfW4eMyoDL2fy+/rDpfdl1SlJczajC2hM3UWh9ptQh9KaxnhqQ122iqhUrGRaKNpfZ2ahfVcqnVA+27FdjndJYvroLtLrqUQ7JalNMGdPjJhxB3XT6l1pjis9Vs9WXmBz5bd3PMsnq8waT7rJGXeqwHzZyutHR/vLli/rw4QMd+Bm/2wnuVYIwaxmZZf/S1AyER5XZ8nzBQQJlm+toCM7OrKwpYsKcXYx0TufeuJMxYB4OpR/wNJjYmYMGzWlHP7P1y3Q8RUBjlm4JUBAezQGFn6d6DM+l6pRQ1i5PEqD8MvNZG+fw3GCp0MgrT6ZTNXcywIgfdz5RD+p+b0c/doqJYiA+DcWvAFmClBiW/8fz7h0Tv2m5YHjL9GpH6LSB4satg4Cn5QCly74mxYLTVb1szmeOXtqUPU5pikJEeflNCpyNfJIDYB20NM1lgZMMnESXrcBAX6c+asaCjDIgpeWI2rmKgtwTbR8AEwWayG9tp8s3OTYpfx76WZhiMjV5wPEqfgqdGlKVFpGgUj5FPWi/X/GUTsSkvyT6TptUyao+PSO/jHbj4OIM7Qb4WFfMp2iFWH5dtFGCzD4P0jSbR2/VGa6KJwKpbXGYOd1JuKOpKc6q+ezJLiloR43nE/PcYFpqsd4LECzFsJxe/axomcIth5mIO0+DQWfYnhecWw0pIuGvTy2JBakuFM0xz4Eyu+rw2bg9pytNYuiNGhouTycCli/Fz4WT3blOXrky5TKAwzeNMUo1v7ejHzuEta0vb8qRZu+9ZzLgovPwTcuRrnO9QgOF3+1Alyx241YwwUQyJ7NtQf0zGAS1sQ4wEcAwv1pHkuKe3Fq9CpMiPQHLylGPBhicXGKVirmgRWwuaPHNSriEzZdpbc5k9FYUVu4cWYzv5uFkkBxJn7YynYflCPPrtX5jGULZ+ok1ki5Hop2TWKeXyzTV9nC/oBDGKWlhuX278jeDgiLYH6DsqVTPpNOY7B9AoMPV8qnTg636lbGt3FnVTqn5B6HTMSi9JbhhWO4mE4y0rDDlAWUVruboPrquyb2GMuLgCWWMV7yCfgJy15FpvQIQbio0ZDuvQJb84LRS2+H/vbX8Mvu8XcGkPWjgc/CNpZbkJAH0CcfHWp1ivCKnG2WBHcmyUik/R++aN//g0FJU+rfqwUUv3ZeukkRLzXEE3JEbBTARKgfeP5leopeSgzQHg88zs5GeXRNHkz3FJaeyc70B3VSmlCIR7w9gBL93pR+dUWxblG1RTKgncb1wuY1NdhhxBN9Tv0GqW1BPoB74qic7EcBj+JLVr9pC908+IcHXt8WytDLHAcWeh+/aS+lXe/U6DiaL+jVh4RsE0qzub9TL0D8b5le0HJun09oO6deQ+XvoV7VFy/iY9gG6BcJz52Fu/IsL1eXI4pjJHg56lRpPSQjLoTcA+nKQfkMnCfNcr9XRE+/jWA7tePhypNo5jbXh/hklbc+DDDi5x9fjtWJItit/Iygogm9aKkn1dA42lsGnf6R05sf1kXri+lopnzo92KZfwbVoA9nz8ZWahbGWxgyQaVDOkQock2T9Syg5F8c/3W3sM6xeZ6S4pfocHMMXszoKDvcjBo9YIAzrX3RU/Xd4fXXaWqb8ymyHYvsCWpBfXZ/HzZ7xBCY1aXPf0fXRhLEBf8OXdZvPh49VEPiIDlPOgCIIQgLWl3DloZ3BXqhmTO8exvfXHobtmtK7vWH03sOkUdg93bQ3OS24YU6USBBqeVWR7qnLCd5gA6Ug/KLwvQgaGHytww3sPDXmV8Xk9Xb9xgNBSBKlYLQCTN7pNchiQwQhi1fgdOPsXC8J2JQ0THaXILcg5GKX3Ozhc79xxUgCVG0DNivOJbUTnWAZVxA6AFex4iRT/A4G0LbHTgqEZaZOCoLwyiLdiKSVCEIb6Fx06UtdsFQvcS6pybGWJXihc3AjW5BnDAdM+PDPYLfV3+0fPaHc/Yp9M4IghLyunG5BEARBEARBeIW8uki3IAiCIAiCILw2xOkWBEEQBEEQhI4Rp1sQBEEQBEEQOkacbkEQBEEQBEHoGHG6BUEQBEEQBKFjxOkWBEEQBEEQhI4Rp1sQBEEQBEEQOkac7lfA+O7R/ZGD+A+NCW8N/xdYfxT+quH2kC51cF+hirG6e4T2lM57GOBfZ/zxqO521Ql2/bwNoT94s1cd1bbv8dAFJQhbsEenmzkXhePwDdTBMZ0n5Jg49jzw8wlE4RBncEOMU5eSqT1EtkIDdD+dg5UWhP0heii8Nd5YpNs48nt0LLWR+NUmDS3JvYd/OntTA7v/tt8fM3V5dqJOTsxx86DW8O3qnn33Cv9U834ib1qP9qVG3dZ5v3XrlrdYt47q9Eoi77vhLfcJ4RA5DKd7/aBurHNAx5m6bOohkCEZqb755z7AAfP6vGf+tWMmF0x+N+oBvS5ipe65bC8m5vuW2ELu3ink5e2rYdPR4ADaXhDeErPLM+iXF6playEIjRA9FN4aktMtHAAztVg6r1sQBEEQBOHN0cjpPjo6Un/88Yf6888/6cDP+F1X0FLrD3Pw9R+evwzf03nX58rFmPsjdg3Pd52rqbvWpDFQlNT+7o/0Zg69FBWci7my5h4jF2rtqfNr/D1cwivkMyfzbKNnwDkD80ubBLLFg8m3Hbm3R21ZS8vAZBnIOvV9+N3UthX9HulQoo1q2xGOlFhinUiLztyrVblG5Su5dyz73CLE9eL9yf4W3svIGGVp9Iz6k21Pl3aky43XurK5GxVlnq5X8Twsn76fXjHpj8xv0fU58ijWPaMHV9ZZU/Vs/VucMuD1JqduHF2H8PlxvdJ6zynuNYjtapWeIPQ7PadcX5vWjVPfnrk6ldhXUVUGa0tLZJhTp0J7RO1VxJSR7KUdo4oyhxsHY2LhdyKWS92zPU3Krc8t/l7XbvQ7fllRl230RhA2pZHT/dtvv6lPnz6Ro40HfsbvtoZyeX3HsJ1scsHSDvpDM6BAZ7feLaalNEqX6KuR94w1gyPvsDF659ehsSEjqTtoc7SxK6SexDnMqTQJOGfUasqKNpaxGGigNwNA+3KvAep95eq4UguXW1Rf1k6olDnoUKKNrjJ0BQ17bPRjneiPNtWxBpDenaonm3KEOeAg03Bw1To7OmapX/crqkPduKTr9ezTmuD+MMK7++OSMdwKVMu34fjuSp33Vuoec89NqhSeo1b3+h7REvPx8FGdPpn7G10c3w0VPNScD0eqXraPufvq857hp8kF/vseNJClPjk9z5NHoe4nN2o5GEHdzAllVNa5/tm6z4Ij9dkXZjqHepq+Wl23etD5iev1gEIrBct8rc6fi3K21OmJo0ZfN63b4OqH1yE4bsDoxe2ZpVNkp6CuirWPKU8StA9g1NYPN6V7LXJ0MWwP1B20TVW52mbvB9YB/nu40ded8VxOtK1XSt3a+4Ke4VgY9HnTh46x/MGz6x1v3ebKPVtfa37MooFdqqnLtn1CEDahkdP98eNH88mT+q49wEjcooFA9ICCRlA7JWA0brXBos5DhsRgB61UB4oHtCAXGg/vcPYGQ+jiABoZ5/l5Y4XH/RK+ml2qM/zsjIc9R+ema4eCf4+HNco+h3n62UdsySAH57UDDcT0ieV6W9nB4KbH7A7kngANJU2yXKQay+Sdq5yybluGMpz8E4Oi+42NFk5X+OTE6Zoe0JHe+Wc9MIFODa1KsfrZ80Im6gJ/b21AQD1kTizo7wKq4usATD+Dzvq2JqCvYJW5s1zA1Gt1H97/Furl6g5MLkCv3WRlqj5DBwmuqaH3vFCxONCZD76z9TqykWYYsK9A17Bd+Ilw3kXdJpIceVDdI9liXzrbsg9ntYXps+BokFNhy8Kv2YLBEfTQ1VNYr4uqew+UvqREzpl6oolkatuV62tjoHDLm0BfUpPBep2C5rGTm8BWQJ+NFRRhDnfg7DaB9CG0lUhq4tUcuC+vx+QrjYf9U39PGqegvres/NSf2ViWBOo+ov4R7tmaXOT3+2Z2qb4ugrBrDnQjZdEQEzCg2Mjg+uG2+WZLNN5fS7o3RSfRCbyGTm2+6x1Rasd4OGDOcPjcyWXVwIOM1XDgbuiW9HgkVBvwqTq1XwQGbaK+2vpvDXsGPH1E5eBOr1LH74zZalXueYROV4Oytg6Ptsew34wRJ4yuqOmpa1eKtJhy+4j2scJic53i9Z5dLuAJHbNeqkVUveULVMTWAZii8FeLQlvH58VQvUB/4242+4kxTl13DTglMFKigzVHpwUc4ZSPUsb6BWe7KXQkzMqd5j/H7/RgPB4q7IqBI5hJjjx03YuyhbMUnrYp2W1h+mx/OFdzmFyAZ9JaX6VngT4XotCl6Dr3R+nIa76eABn62py1WhYbquS+FTpl7NR6uagZB4CBDt5s5XADWh/4BMhi9sb0T6NJSwMK950p3SRhfVeLeNzT7c0nIzFU7mT/yKeRXaqtiyDsnkZO9/fv380nT+q7tpld3nrnhqhyiqp4Vj+jy1x+mY1O1vAc36ANDsgIcKPZntzT6CU9HwUsG6DLqDLwW7F+gSGkK3qqq2K3x1i9O4b/Y5MGexRSpCIoIkrpAOF1yf5FEaq+6vdX6r6Jxw2k+iEuXeOkebDky97mR4RSydaq1F8vJU8eVPfWadYW1Gdh2teH/+WRyG2ht0jQJOlaP782vQsj/Ch/H2jgDnsjPdkjtTo1fgdThJxxAeQwKkaIm2P0YV+Y+rpVSnewYFUSU+7nn5Gz3oTN7ZIgHAqNnO7ff/9dffv2Tb28vNCBn/G7rvHpGZa+GhUSuDZBL2tr/BJ/YFRbxT8jOEry+jqlsLpgDub8dCd3jo54amBgukoM5hllbYQZOLrGpwiFx6bF3h0mIsTSY8KjfDmYIk5l7RW/CtQsN6/XLeiVW7qOclQ5yxdwuTchTx5U99Zp1hbUZ6GWa5e60yIwSdLP1KlBOe/U13mzcFiH3bRzIz3ZNXbSnaNTs59Bnno5eB8jt632oxh92Bemvi4HOj5KjVsb5d7cLgnCodDI6UZH+8uXL+rDhw904Gf8rlPGbJMddDbnn8Fst3Sczo0cM+dr/fDVdFie1qCZLZZusA6jsWN1N08ZUB7N5K/DKzoX07kduNgSNBhml5bH6781E/Xk/Nt4UI7q0qXcY0xOHuHK1aCsnKAMXKYDNTQ/8NSO1pk8uch97/wqjNyDTOfmC72MruG5iD6Pfb+QU7TBMjXVi8m6HJ37julKZzwXuVWivkwOQ08N6gtXIEcepXU3aS2bkt0Wps+uFmfqjJzcSP9aAybKtI8iSgOpAvo47Vcw/TNfT7oipQcmFbAyGhuPDyaNJitPGPdmbO94l+uDKX8y9aQtmtQ3ZFObwmnjHoKwTw4jpxuNULRcpJciwbnCjU90kl6Cnnz1m+aCjRM84mDvVzeKs2vcsmnirRM2V1LD87Kv1TkLmZJBMOjlN+2gB3m60dKYX02dqUvcoWMobjJsBy4/X2c8eF06lnuCsFzaWcgrK1BaBj7h8e3W7VIkz8HnugIHtKUrdpAP7vU/vbqu3+Kyy9dZaZ2FSWLsHEzn1c4x1QvrHUVB2YQDsZvPaKnd5iKPwmsaDbAUxQ4dqeIExuaRR2/ICMqWdiqy5JGsO+9L9aTqnNcW5jkwQaZgI01koSzBytHmDpMPDmj0xLWYrucBnQ0UJXJoM/Ukn+Z1iycl0zmmSLB9P1k65Tewhv0zrr/FTFiwz9c63mW6iGl/oA/RSoMuf0aq1haTT6ovjlNQ3zi/P9aRmPJyV1/H2dgulZKSMfQlzOGvbR9BaM5hON1J/gcoPhoR/S8XiYYB2vmmaLhcT7PRlyYUr8FlMxd1ZVBOY+r+LCpid78XwQhH+r4+wg7g8m38DBhE02+02BCQ31nwFyA9enMMGpyu5Z4gntigs1BbVkt5GYptgik+Po+8C0p1BZ7qc+Jtzqv5J2GWoM2/9gvqLMhe+QkBHcOXwua3EFsvHFzZdddH6snUHfNkadmevYEgNZi67+geNQMz6goIk0/O8HVwhT5n+hh4e6xsA/Xidnd5p4J+43peKw+sO+orrzu+syytwynSda57tu2zocNFk9agr5bVLYewPfXr6mqW84MAA5QPXx/oylevJ81oWjfsawt1xCbFI9xbwFNbcnWK7BT026C+I6XKNuzi+WgfaLJd84q/ZJ3SstOv0ctJsdCBAVuv/M2xhlQfgmP4wsayJCXlVk0i85vapTKa6o0gbMff3r9//5f5LAiCIAiCIAhCBxxwpFsQBEEQBEEQ3gbidAuCIAiCIAhCx4jTLQiCIAiCIAgdI063IAiCIAiCIHSMON2CIAiCIAiC0DHidAuCIAiCIAhCx4jTLQiCIAiCIAgdI063IAiCIAiCIHSMON2CIAiCIAiC0DHidAuCIAiCIAhCx4jTLQiCIAiCIAgd88qc7rG6e/yhfvyAYz4137UJu/+PueriCa+V6dzI5fEOpPSGmc5N+/9Qj3ft13R897gbGY7v1GOH9Ygh/XjrutEC1P47si27fFY+xsZ2Yr+bQ3p7IGXpHGMTtqou3eNR7cCkCMKbZI9O91TNjVOQPFKWYTxUg5753D99G04xc44qj706NFN12jcfewM1bKkg2ilI1BWP1zQQZrThLhxfB5bn+lw935+ok5MTdXY5M7KWieTB0YYj9AZ5O/paPs7t1CYIgnAQHG6kuz8iwxQMRrOFWq7N59WTmpiPwqaYAaF2xJ+op5X5uF6qxcx8FjSzS3UGzi06uHjcPKCSrtQ9+w4d310xHg5UD57/9Ct0kF1G3nb5LKFVyInfY+Bi/XDjbME+bMJr55dakRDeNIfhdK8f1A0zRvfWwQP6Iz7IzdTlmTnv4o14FJHD5uu+Vg83/vuTs0uofYuQAzFSNoBdx+Sio3IYViYq64630r4HwuzyDOR6IRPVQ8P0f1H3ENFXQRDeIgcZ6UYHzzufPXX+WWa4giAIgiAIwuulkdN9dHSk/vjjD/Xnn3/SgZ/xuy6YfH1QNpPE52+z/LhgqTCVN2fzAaNrTA6lOy9jySqde8wj8Pz5UR5iyxvz3IZGe7DyB7/xerEy4Pd03vU5TGcMJpWnXBapDabxd1EbtLGUG7QVlzd/drjcn2qroFpx+2elC5i6lcpnEyJ5ldw7bu/qIuh7Xp9jy/bViK7R7VXMkdXn4v1CmaXkEZUVj41lwduu7F76ecX+wjfhmc+kxzAxv9b3stf4dIK47Kn+maiz0RNdtOpnlRLrGpRnYH5yBM+xFOXtfqfzdXmb6Yam2D9Y3ZNl0RT1J+/58fMe7woSSFJ8XhN9ZZg6UZ/onavrsmuitkq2bXROqzYuEp6uY1RObsfpiOtRo+u5FJ6Tvk/Y/ulziu3fUK6mLCNckrXj1Kb1EoQDoJHT/dtvv6lPnz6Ro40HfsbvOmH2Uz2bj0odq3dl1o06bGaaBBpd7mwi2JFrRqvBUXCFAQdfa/RYzjOU5JTdbup2IK7UYqscPm1QyfhwsPzGSE0ubhSlEyP9oSkbXGcvwjSeTtax0cGL2gBkfZUysCX0R8zowkHGGZfe3ZKHX/EY310p8iuB1f2Z0mLVjpF2ONPQABC3v3GialSgXWjwP1VPNpXmBiaY0I7hgKTrMzpmqVcgC5RTeVkn6gLOC3PKq5fo8X5X6lbfH477FcojHNTGd0MFN3PnpMubAfXVa3X+fO/vdXKvVkyH8zGpZlgWlooV5skO1BWX8wn2D9TVpoN2zrMi0FkAXbObWfG4WQ7UqEI/NdjPR+r4geUA83w7w+Dqhzp9YveGNq/WDWSqPg+WUSofa2+zZ6bPDRgB10G51w9fjS7l6SY6Zdfnz2xvw41aDkau725Cjr4GmPQd6hMujdHaDAPq35VSt+aeWJfe+XUoy0J7gi4p6MfbOt7Wxjl7DUA/uQIheduGX4HtAjvO0/BuHvwIqftWqDf3qw10Hes5Og5SG4vqp22m1z/TryJZFNof+g9cGNqNOrlOLuh7KsPK2g1JOxJeL42c7o8fP5pPntR37bBULy7UXY7eNKbhBqloKDR+QwsM9ua7wOAlcPnM9qDBF+mpgXmVB4/M+0GLvfVjy42f07l1atkGPVsOcOK0PwrOwa0vGzqp6DDp68BZuNX52FQfVwfAGrMtHHInVyb43mC43YCEgNF1t6R20g4AAeW2RZ7OwZnzihC01Qt+ZwYyhG9qsvfuD6sGT+3Mtpdnjo4bGzhg4F1AOQJ5TT9DfXybEUYW1WVtCMiKO49aj8OJI+bXBlW35T3Ki1papp9hwoNtE9wMZIu66HS4RaC5l1zO5Dxjv++rYdMJQyPAKR32Sc94VVGOZXbJMX6njqEFlny3MrR7qHpUseS9a/U42pOh29sGNUA+2LCxPZyegsRYmXJ0E/rbsB/puZP/FmToa3PApnK5TL5S8MLbcd2e3N5QXdDWZuotOvE8qBBEqUl2YK+vtOxsP3HPck54mPs/u7xwTjldA5OKWy6bi+a6Pn53DOYp3Cw/uSg6uaFuG73hb7ai9keRhXbuFgTbO/9sJgLby1UQXhsHmdOtGSgfYH5WP5kR4Mx++tk+RkF81LdoKMBSMKM0UV8pIoj0VI7/4JbTWLTUOR78zSo2HYYGKwQGn6+F0jSAOe9wR502EJbj2C4FGMNG9Ecu8rt+uA2jO63CovhmwCJ6R8Xl9BLijZTBwEqDB4IRFjb5cJaay4d/D4A8LuGffHLGB0C3ctCgrFuTeAPMEmeYrAy0QrJaFNosPm9bVvErTswKk9Mnh45uBnI7fkd9LQ/dRoXnIaUR1i1JvmlHT+abThgaQa82jRxnA7VfFST/muht7JQbsnUDo4umHbUNYfZv8gQ9yAcTkFgXc3ST+luF/DclX18bUAiIzBQNK1a/TXsWbHiDZ/OJvj7CaDvZOHQ053PoW6ENq38bkelbi3BCtYmu03gK5biuXDJJ6N/yBb71eqTb/0EVRUYS05O8FuQqCK+NRk739+/fzSdP6rtWoIiPYf0C5qMEHglF0GDgYLLtsp/DOxuF1I4AM9sndOTFpZbs4DV73LDOLm+940tsm9qybybqIgoR+qXuiCpdqaQihWnnjBUGnGjZ2zpH5qhKn+kKPdm8VoNlcYUgG96f3zqDI3A/NgVXVWwajG7z6pSRBlAKAtxzhNlCxvnjK16ETpXzqy7xZClPN9Mpea8Uak+dUhHWOf/tT/VoG9fvYwpJGDAiWVbZNdO3KOgUlI+t/uUC4ynphGvfpqlYGiqzHYv5wQfRnchVEA6LRk7377//rr59+6ZeXl7owM/4XRfQcpn5vF4uohl8iE3/0LmsBujwdTnFfmBYq5cyi0ZLqeYzLo3TYFWyREpRIs3xu6kenIC68jfC5SVGB4+MsJxnDQzgrY3c+4DlpRt651eVKUFVFF5PSEeU57lXTKTN6Vt8JFZxumKKkTdME9jyvcImepXHdtHQHNa2w1OErmW2viemYei2trna2fnzpc7ZWN1dgU0lnarWH0rZsKkCtFrHo6x5ulkb0X9NUHvqPpCq81b9wqFt3HqN7R06unmrI2V2DQ6+8pfDzL7G1k7+EhtPa6Ayl41V1tbuRK6CcFg0crrR0f7y5Yv68OEDHfgZv2sXHVl2PlaUpxaDG0ysP0nvdmWRm8KyGi7fWWtmcs405ekrlONGsGUwlzYS41NWeud2w1AbUWa2UbMwmQB5zVlU3+T/ETAwuohkf1QeMWuUJrB7fD47tMG9bV+fAxnLJ1gaBacR/zlbLJ1exIOaPeeQoEHrYP/qKk/nyUU70skUEvOXZuPUgUL/5X+RNofUX08193gOOnwxvYynIzWGnKAwRUMzVsNGFdA2DftwKIuKez//bDTBT9aT0n3wGVOTmx6uKuXopk5TKJf/q6K0PduDbByOdWe4ShkGSUpl6ajoW1uBkz8MMOWlX3LqywzsQK6CcGgcRk53sAzFl8SiDS4lBMtqLM85lT/qzuXnRct5HJ2DhrBlsIo8E+7cES395Uy+UTPclAPycuv2JppFn3VeIL8u2GTFI49W/nv0PItLo8YxpkgrnQKD/626nOhNfASbRPm8b4AvfduLzeY/DcuL5+eUot8cs0v5zC4XUB8oZ5wmtesJgsnVDHJ83SSoCWaDFLZNUAGQLfZFmCD6gNxMLSjJm08UuW4zKgduPjFDzLN4rqnNJ+cTMT5x5WQ7CXryHb8Bo7gClQCePQ8m1VOa4LjIvCFe6dEbiVlgoICJUHNnuayeRv6YYpLKTc/STdrbgTaTT3BL2nAHZDmBpaTbk+rDAx6bQjYO2o42pvp+4mVpNlq6t2Vpxndz82+T2gjXxCsi03kUYKjB39NgNtGWrgSXkWx/INDvfLmmJnrJ1yoKwoFzsBsp9VLZpsvo4HCeJP7KGwy29yYSbYl3hBcAgxekrdC9S9JLkMC5g7PLd780g5b8cLnP/JuhN9CAoXr0ExYXneLlCaLA5q0R5l8HCQxG3iH2KwbBRML9xVLMhU3lGvsBg9KQUsnI3Ak7GExuL74+i08Qhi+7LSvqHciMT/TwVWEpMdZCOgx9h0+K7GvOok7o3sbhJmP4TreU/vuBG88LnA5o15vFEZMfTBYwLSKYyNtoHpuI0aNSfaPiWRFYfpsaop+tX3UX2pI0x0zWVj7hUjsuyS/UEcuFpc13NSlS+pWiOfXE8oNj3euVbIbM0U2Ua/S80jbcAc4JxHI0d9RoFRUUMgwOXKujp/qgEML7jzvQFhsbF2x0Nzab/zVmtF3QVD7wA8f14MW3jcnFhhOCZwxfSva+lHIcPEO/PnCT1Dtsf7QTvP3huD5ST+xmuXJ1Ez36vdlEQhAOib+9f//+L/P5jYJRShOZw0G4oz9j7mHO706eJwhCDEbBrvGd1G+t/43v1OP1QC03coSaoO0mePLVQQlBEAQhm4ONdL9a2MbLVjdQCoIg7Aj9fv+q19QJgiAITRGnuyXcO7x9AnLlBlBBEITDJP4LlIIgCEIbiNPdBZJWIgjCq8NsGE7mkQuCIAjb8gvkdAuCIAiCIAjCfpFItyAIgiAIgiB0jDjdgiAIgiAIgtAx4nQLgiAIgiAIQseI0y0IgiAIgiAIHSNOtyAIgiAIgiB0jDjdgiAIgiAIgtAx4nQLgiAIgiAIQseI0x0zneu/LPnjUd2NzXeOsbp7NH95Eo/51Hx/oKTq4r77oR6LFdwC+4c1urj3PmD1ebyDljff2r88yr77JRnfqUcjn0PvBofE+O4RZDYH7doWZov2oYvU/ikbecjoPv36bdMvAhurmtoY6mcHbKPz7YDo7Ftjj0536KSVd6zc89phemr+jLvqqcGQKzqW41qd98w/94zutKFc3GGMTXldWoYG4JGyT9s5zDj7ow3HJmaqvEgHqkuRhvDJXomjw2WwAy94PByAVmn6p90/r56indilPNJ0NWCiPoAter5XJycn6kT++u3GtDcJej1Q4ODQgwZoz0bH6uEG9Bt0/GJivhcq+RX1+bVxUJHu5OA9Pd2pMzd5WplPa7VcsKGMlWP9cKMHu9YtgXEcWnISSuvSMtwBW91rI7mbPyFtnNFRSkP6atS6wzNRXqRL1aFII2ZqsVybz+kJlJ9gQRs8dT9CzRZL0CrNLp6Xi+ub7rhRD8cjcr437VbkpOzNcU8wHqoBdLhdyf3g6i+8ecie5djYV7niIvzKHITTvV6b4bt/WpihWWfCndM1kwszWJ8p7jeO3x2bT0o9/+zA29oiWmwdXXfYyFdJXdpmcGRd7rV6WZqPnWOifd7b9/W/eXAOYe/8utWVkclFJOMdwZ3c3tHAfLKwCLxaqZ34YrNLdWbkfdhRqJm6PDtRNw9r1R/tenCeqAuQz24moMImzC7PQIcvoKV+HciGyerIm+RX1OfXxoHldPdVGOzmzoQgMKafQ4ebe37oEN7bkDRo1fAN5F/PFsoFu+PJ6fidclPC1ZMY3ASzywVMRzpOsxIEQRCECho53UdHR+qPP/5Qf/75Jx34Gb/bmuUSBkRNkGLiUjpWeEoSt7EtOKKcpmjzYJwPzSOh/Df9vU75uGbJ3P1R8bpCOQrh1VTOqS4nXXt97lI04AEl92hGsS7VxHKpzfszm+l8dkdPnV/jtWFEMdVGcXnCsnpZlZW7Np1i8lU9uNCwzb/mudEo+6hNavMc4+tT3+Xcs6gL9e3DU0zCyWmQ3sNkUdeedTIvXA+HS9eJ+hSn8jpLgz5pz62XURU6Nag3GIbtYXTYPZvLyDyX9Nv2SWZbivWMI+lapoW6RxTuU6GH3Fak7BCXqz6K0X16Hj7D1b1kBaCm/pawfxd/R+I61snEU+wrhWtZikFOWTi6XOy8hvdqVi9jK1KKTLIO26Hu3lQ+vJdrc1tGbpOK19J1BR0rXpMqp3tm1G9aa09zX9K53rm6xnOS/cGUl/qCHXdS5Yiel5I9ELZ1pq0p9LWS6yJZYX3itUrLRuVgFPTZ1F83Gdenkj4vdE4jp/u3335Tnz59IkcbD/yM323PwufKsiiec6xWT3BGirFiWR8MzOdNG0lMN+AONNIfpc/NQyt1Ia0YBylrLKjT7XGjYS3agMVy0UavA9kA5DCUWJT+qE5WvN3L0ilm6uez+QhGuZCRQToSPQfqe7WVJcq4JxnqYv1QHnUDF08x8ZPTsRpigi9hZdG8PWOZo/EvXF9LyXMB7HfpwVP/1m6fTLN8Aen1jvyAh20Bg/azS8+6UQ8KZGTLadKzaNHEpS/Zpdup+jxYqhv6Th/3Kxz8m5UbB8Lr82d17+4DZXB6W4RSA0z6lE0rs4s8NGCzzWd4wKnkkBS72kBdXSl1S+eVpJ9V1h/Rzs7pk30elH0NfSBqZ61LrI66UPWOmukrxw8sT99cW7QdeWXJo6t6mYlzWRoly2HOvvfxUD2ePplyYttgH2SbbM21FSqFSgjjU3TNyb1a8TGMg9873YEDFCQrjS+nPU3aGunc+kH3r2QqjE4bw+vX8J/V+SCVi+zdqXpiz1pD2UMZaps1OjbPwgMejva4uj5w3VCxfluSwlawMXDecqBGBRuZKAe0gaodC/PA+lypW1eGTWyV0A6NnO6PHz+aT57Ud5vgN/3ZKJ5PLSnfMGQ6nlNSOKi3InGqimVlOgoaUvNV6bmIzsvEDmXhg910bjuFvS8cZAgA6PSf4b6pjYZ42KLygZSwA1xmsqyNeG0+O74yqRreeJHRpV/7alg2iHADSdjr9SDuZYP20xta30SjkrJ6WaZFMFAujXwLXJl8BYqR0IZU3xMmIXYGwnLQrW71zj9XG0GeYnL8ztyTycKklmzWnlzmLK3LDnx4gI5WDd7+uUCiftgf0pOamj5pnL/M7pAJDppQSSinvy/Yk1voh6bfVgN2IXIGJl+xDx+rdw0UiPZDBClBUIaLDfJtwXEa9rG9QwcaczxRFQspVvDY5e32eb2o74H8FvAw/mYfKheKmTnrYDduoaGr9V23D94/cKRs6lh/WIjU1ZalAV3VS0+c4/FG97fVwrRHk3v3ntUi6BjaHgRjJlx7kZxVaaafz1UP+2twH9BvHJOSfQH6K9d9s6pY/Raj5u25PdgfQhnqZmQ2ntIU4TzeF8DeJPtMAOjEGbs3YFPYfIDH15mL1vbJACpHJFfbBuZfWwHty+WubVWV3yN0xeHkdE+ejFNgOi9LLSn1uR16lkhOJwurHidGv/XDV9NRjCE1pM6th+ecY5TTlIGliuB9Zz7kqh1kEz2YXISddj/wSKmO8Gjn3TvMxY17OYSO222hw2tShtq3UZes1MKWKUhFYZHQxtTck7+JB6NFRl98lLfOYWMpJtYBYPfUA+1m7RnKfKkwKExQtMhM5CoH7zDifs9GGT0YaVKTmnb7ZCb0BhAYbL9Gmjb7SROL7GdT9M7I2Cx1N+kuFH0vRN+aQxP7krc9UECj4Hw+q+33gyfeirR8gW+9DHS5HlRRzCTlcn037ZN86xKNFXF+fn1Z8umwXsbxCxw66sN+nGt07/UL9FaO7rv5m4aNw58aZM0kv2CjC/tGzKqiCwQkaNyeLZDoD/FqF60wrBaFlZ7CqlgZtEoQ2lhnOyrqTPdn6HIk9uMYe+SJ0mXwyFjNKbRvUzsntEYjp/v79+/mkyf13Waw17FB553a/IGUIjqsAh7O+7NjyMExM2eHcWRyOksO8dtLgoBFG1QZ0w6ofzsMcwrBzKVn6zwFZZdvVdmGegfBp5joQcrntjd4a0miPUOZg/OLEV/zL8SupjRdRTkkgqjy4AgkyCcl9vCTk0rsYDtiS8wbRKXobQNgHCj9Bu+3oU3wbxDKpOCsdQOVy9o7fqRyzjjUPofLxvUCwkmQXXHx41yjez//hN7KwQisTR/Q11VO6Pgm7C45yPY0YwQLgNijPrXO+B7XA7UsrCYasutcliabQq+88/Fe3kTzumjkdP/+++/q27dv6uXlhQ78jN+1hUsxAYNjc57KU0tw3Bu6ARKXcDYd+FqBL8Pzw3jA9lVzPE0F67ldDnHb+BSD4Di4Ts03FSYiMYh5lzGx03dq5+H0NTpqJ0wsxaR39NmvJiQnp1u0Jy770vnhQNJFrvVuiCJ6FLnk6TfhUf2aP3CUrsySfBuv5zLpMyRrcraayziOnB0KVK4y21j1KlNqn8Nl43ohPLKbWHHZ6t4G92pTO6Ermy0XIqkdcZDtaSL0LBUuPMr7NqVOUhu1ocN8/5Hw1mnkdKOj/eXLF/Xhwwc68DN+1xosxURTHb3z0R2/rM/zp7uHRecLDjQMzHMdtcLNUtbmUWSLTQySqRs7jSyHb8UYRcZ5Ot/UyQplw/MCKYfQfK6aVFUxu7z16RsYqeDlxiikS/GJ8vX2CdPv3vlVuPwLZZ5nTcCYge733aTTy7GN9pyquYu46siKX6kpWzoPn8vzxoPJ8XKxh7bA9DM9SDrfhpyNdpe0t7c9NoezLs2oCKUelOQvx5v0dklVuSqpah9KxyhJVdgRG9eLmKivYLww1WpKqSRh22x37wiY0FGgp3RMMekoFYGLTW10wIG2J01wEhtbN4KnDyKldeapeJrScsT3FF49h5PTTTBHDalMLTGKSvh86uZvXNgOnp/slojpuFbnbMko2OzIcr6dQeMRB4p2wXll0YmW4Tm38VJbxmppKZMLHyXl9Xf3DDaxNQWXUVkUlpeby/c+LzK0G/Rgq4lSG6DMuSuMftOxJZycttKeVgfj6yqcNz4R4n3B9UlwenlufzYmb3qj7kBpINAX1YO6iTYpkeMD5Qzv6yfLluKAaCY+/Dt4ztUGtieeBGnHfYN8a0phQ50qvnZuhBsst5h4buWY0N4GLFc02audZMIExERpg/QIbE9QxvXD7X779cb10lCaGPQxXNF1GygtW90bJsyBQhsHr5CGYjGpZHHgAu+DdnQrG83pqD23nDxrW1l8Mw3anCp7Q30imBiBvArGNW1jgg3nhnQ5UvfsiG1srNCIA3O6QU2ZQ1E3wy7sAsblnl2nl9AyPH/rgqdgTAP00r83aDbKtQ/iaKZnu02N5felPPStrbm+f5CyYzHLs+0MGO0Rr3R42CbMOuIVocLktJv2pJSYytQUnU+aao/6a9uBO/t02JzLxLNtPnX49p9rdfQUnusGRPpdO0KTC/MaOXsdvkJto/7L7gGHfk3cZikrmFIARQgmc/p+2008U/XPx+YYh/X8cX2knuoKhWk3ukLsOv36ter0n12wRb0QlyaWWs3d8t7BRNu8CrDKENIYdq9fEeiuM6/2a9OAdtKe3rHF+zXfkIy2EvoyvirU1R2O4UthIytH+x48cIKvJgxT8RA8D+0htzH46r6ijcRy2PSy6nsKr5u/vX///i/zWRAEQRAEQRCEDji4SLcgCIIgCIIgvDXE6RYEQRAEQRCEjhGnWxAEQRAEQRA6RpxuQRAEQRAEQegYcboFQRAEQRAEoWPE6RYEQRAEQRCEjhGnWxAEQRAEQRA6RpxuQRAEQRAEQegYcboFQRAEQRAEoWPE6RYEQRAEQRCEjhGnWxAEQRAEQRA6RpxuNVXzHz/UDzwe79TYfPtLMp1rOfx4VHcHIYixuns0bfNjDi21Ba5uh1S/jhnfqUdT5/lWwhMEQThU9BguNk54DezR6WbObuqQHtQi3HkNj0fmfU5P++ZTTw2GGV4pc+qS7VX3+44Y3z2qHyNbt11SpuNbTiAyGQ8H0JKa/umWT+RtWTh2U5+dQJOziklZ3e9dYGT/S5jEX6muBw7ZzaCf64OPGU3aS9+v3FbU/S4Ib4HDjXT3R9TBfwXjq41NNwP5dI6G8lqdW+8ronc0MJ+UmjytzKe1Wi5m5rNG3+c1GsSxGg5s5Vfq/uREnZycqcuweu1DztlIZbn6ZuAKBrOGpHRotlhCS2pWTxPzqQv6avSL9NVueW0Ru+3KSzZFlObwMPboerBUN2Qv2XG/CsaMFGSLfvVVY0Eo4TCc7vVD0LmhXzv6o7edCoADz3WZR7wleG8f4LUOJzu4oJHJhfmNO6U6Sr6XQHErDNSRFe/6RS3Nx24BZ4QJbHXP5X6jHqwnjKBzfn3uItKbUKpDs0t1Zp570abPvbp39blhlekPZaDtBNOOrbbhofIr1fUgAdsF9kg93KiTs0tViE3gGMEbR9pLEBpxkJHuyQV3vHvq/LNEQxoDzlzocF+ogl2MDajQDuN36th8xAnl10DEM3V5lmiLV8rscgHaZegdwRRHEITXynQ+Un2wWbedLwUKwq9JI6f76OhI/fHHH+rPP/+kAz/jd10w+frglsZV/zRMazDLXz7PLIqG09K+/g2X7PXSuz8/e0Wz8Bw4gmUznrMbpV5EZShg7u0dY5hcXOP5YV3ispfeL8LnZ2NgMs/J488iGVEdeGqKTiPYLs2EyaxMlqVLk1zeVedpdH1YikfvXF0XrovuSUdcv2hDp2vbDDnAM9NzRnNPFhHvnV/TfW376pSe+GDPrNOhKh1kv5WesyG15XbEew24bIvlKfSFRPunnm37u76+q5WzxL6JlKEpyF3LRZdb62p/ZH7zBad29rfTOov/DmVSUrfYjoHcpnRdvf6WybyyvClZ8LYyMiC9NWmEriyFuhoKcqtuRyqfFlCh7oXLEn2h8HwglsXj3VTXM3FyrIf19alvC6TQHonryupe37+nCoeN1SIR4S6Dt5f5TKtu1tZu099IRonry3QEKLbRpg8XhG5o5HT/9ttv6tOnT+Ro44Gf8btOmP1Uz+ajUsfqnek71KkKy/Ha2Uh1QnRk4qV3HCRS53LSzwHImFhDMFEuDRqGH75XzTu9K7XYKGqgB65U2gA5Z6nBwzFW73yoVb3sIqfCDZ7s2DJtIgQd/ihHGtuiUg41kFGP7klU5SjDb8xRTjK7VIsgRUrLo07nQngbcrBseQN0GTQo19Uhk/Hd0Mtv9QQ9Irfc6DjGew3KZFvSF6gv2nvqc1qqVjPICYC6PPu0m5OTe7XCPhE7m6Nj9XBjz/Ereri6R9fAZ5eOVLMKhXp1pW7ZvdAORrqBz4R++MxSnG6WAzVK2JUYtIHX588sLe1GPRijXFne6Wc1WN6Ya8x52Fa2A5g0Nqq7S1UqDwyQLYaG5WlaN7YgVRwP1eOVUrfmGleOwGaA3gxVkHqHKVNxWiP2mVgWy8EosVfG6OExS5mEigZjToUelGP7AC8DXof9KuGYou7xusMDcNyotEHTU+iBW4wXJtWEUs5cyugO9s8YjoePQX+wdRbHWzgkGjndHz9+NJ88qe/aYaleeO4rAoPblbFy6wdv1K3BSueUrr1xY5atMv+UPQedZmfkbmz0HQa3K309j8j7N0ToiAFBjkgCY6B8kWw5tZEa3115g57KoYXB46rUmLA8Zpi6/LRGz0QIQue4IhJBgyPPQbay2E96hG9zViaQQ1n20ezyDM7VjgFhBwLKVQSnz3loTEfY+f1RiXOb4ShMLqLcbUA731bemGYC92A6aet3RqOU+Z2eYw53rpng1ehQCnRgfLX5Xor7/Hx3NsHyjjDoBjldGeUGQmfdyrMoM8T3hVQ79dUQBToeKr9fljm/TL5aH3KcALtikDgSXv30M0wu8ZmBkzxRF2gvmH6OcTayXiq+R3lysUVfgmdqXdFoW8Qn/+hQghsFesWLhnJgYillgEYksF/QthcZUVCwG7xcKIuv2LDH78ptbhnGFqPDHdbhor4de89qEeQlF9tE62vYBjplqqfcfkEow7CPusfPw+uYbbHAhOO8B+fesueCPFDedszZSA/ovsU0QW1nQF8LRhDO5XWffKW+tdFbjHCSwPvANoEO0E+9Wlo8UgGmJvSeF6HegdxxvOydf07bcUHYAweZ060pOo78FWh2KR4PNw4mckrXD7feOBvDQ1Tkn/LnBKkZPILZGyh6q95soZb2njYNhiIGCBjfMKE3k+iNG2y04Tm0vcFwC+PXMtzRsYebpLQBXzGAAY+Fko/tMkgTXBtFOgKtTQ4CEa5eaHLb1Dqf8cCciEZWoiNcpOvM4duozoFeRY4B1Puy1ospgdo+dhqqyl2m32G7avi53Bn2KxT0NgW+MkaTAjO5gYE38IWzQAcr0mV7FLxVsySfejuMsQ3W0Zn9hBJipLXZkkcphWcaGTjdMBORZzfr9iwLEY0idA7IctNIIU+xIIdqg5x/bYtXaqOX76QCHrGMLEFAQuuWPUeXgQUvHMXAEK1wrhaFCQHJ0tR/Ez3Q900FcGZqoZUstCmFc2cKHwuVgh7VEAq+aP3nG6c3AycOUZ8yx7b3TvVBkjVbKReEfdPI6f7+/bv55El91wrBZrTct07so3NxR0E7aS61JIpm7A4+GDDH0URG0cDlRLqEFKnBt4qJuiCZc+fbRGcrsbnm5a973I6m9WDEE6zAq+263AnIkQA5B0ptHfSKlZw24HaqDnRecCLqVgqaTL42YHAEUtg8XYBWBkCmLsCRGeGkdBA4f6S8nmzqUFG0vdO3Dhl9vR6oZWK1C8kvg0mtYitB9giiuI31oCxlq2WWL6AtLMIvCELrNHK6f//9d/Xt2zf18vJCB37G77qAlmzN5/VywSJymvA1bPaoWzru6PVxkydnpI/fTZ2BTJV7N5joh+FVvMqtifMC0BKtIRXJOzx4BL0enn7h0mpaXTnohm7LXRIls8voNiIXPA+cb5MK1gnB3pMM3MQX0wJK8nEPCRflBEcUo7N1DiJLB2njzUg5EflNsDbDvq3jppXcYxNNTq360RGumubrgblv10QrM3uHJgFtsEWAQRBappHTjY72ly9f1IcPH+jAz/hdu5iNKH7kdq8v4n/so5BvO50nN4nwfK4gj/T5Z6lDHDyHO6yU22c+B1Fs71D1zu3mmqYbKHmEgTvNYVQ0cGoqnPrwVW7x5qFNaWMlgUXhbYoOwFN60nA5TNVnFznaMJLHJkphzh+/94bL2rhUXZA3v296osD/6ARF1wivR/UyqotShXo14mWEMs9b8P7yys2diLBd+fvNNVGZo04+nRs7gDK3v5FDw/LDO32VodbnpKNi0jvSf5jI5gR3GFkkHU/9dVmespOLyYfeyAZs8jyNTsXwdqIRccoFkrNZkKWeIfRHw1Jl4PsIDDolJ/HcUvL0oPy+RrZle4caYVZt+6OGm767pCiXMjuY6oO06ryzv88gCPUcRk43RVDsUhxflo42g/CcahyA3TVwFAZriz+vuOmrBHjOrR2xednc2zjifFi4hDnqRKYR5JEcvtFudnnrnAaev+7qwCYjaTCtgS2TBjJu8pYH7iDZJfttlsW5E+VzdHM20Xg5+HzeMB+7CTwdgeuSv3fuqxaTRPIO3pICbefSwnk0xyw3Yw6t14uU/oaU6VAKrlexbrexgp1bbr4BOdWunGACGS3dB3oc/MbsiOmLOu2h7cgyOCq3UBd8duCpwAQC7cXq3uWUj+/m4bMLDmCFA78ROhiA8uVFCzZpV+AmNIZibnOivCbyz78re165I8mY4CZEtBNhuxVkmQR0MKy4ekSFYTnXVIbAoU5M/GgvEJaBy2Os7q6Kb2fSugrPjSfdLChUrwdFdL/FPhW2yXSOel4znjUB5I2pQGhHUrn8flJdzlYTJY6NvPMAG7Shf8lBRDRZsJvG+SsQu7EBgpDPwW6k1OkjRaeHXlWVSkjmjgxj/XDvnQwCl6jrnSnKZ0wti5ctRQYTAhzn84xg+ZsEMAKSzoWkZftgV34ZJp84/QAAZVG/rJp6E8c2FOuM5QjzKIvAOVE9UA7hWxIaQkvnqediebb4K2t8c20E6XU0kTxLtE9BRqh3JWka5TqUolyv2kjTyS431jv+Hs9NVkTrceqn9cPXyr7cVppDJVgX1KPA6R+pY+ynwbOP3SSTDnptHO9/PtJIvwdO/GZge1gnyj4XX6uWl2PtJ0546NfVcduZKq+JiDNZlD3POah0XvlEHm0+3DKQ3fXgpX6/DEx4bl6G7hqcWILAgzbR+uon/z9+nKqngk3APmPTQOx5+D6+lF1EXYXvVTTpHr6w8alOD1LofqtfEeiv1a8m3CI4kABlgnbxmQV73PPwLS5RwKmAm6TgNds4uFhnbAtWZxJ72g6u7m/Uy9CXVTe3/LVM4bD42/v37/8yn98O+IojE63Y2jHLBtNiTHQNnYcsp1gQBA5GomxkHB1mGTC7geQ8WL5ZO4VvTqGNnJ0qkLb5+E7y3YwxgiC8dg420v3qoPeo6o/720ApCK+FqZonluB9KsqG+fRCBiYPuGJfi5BBxSsZBUEQUojTvSXuXbQ2D3Bdl2stCAIR5727XFp8T3a7S+a/KtN5cXm/9TzgN09igojfRTn7giAIdYjT3SaSViII20GvW2vj9W0CsnwJc6Hx6CIP+G2zVC9xjnYyZ18QBKGat5nTLQiCIAiCIAgHhES6BUEQBEEQBKFjxOkWBEEQBEEQhI4Rp1sQBEEQBEEQOkacbkEQBEEQBEHoGHG6BUEQBEEQBKFjxOkWBEEQBEEQhI4Rp1sQBEEQBEEQOkac7n0wnbM/slD8i3G/HmN192jlMVdT8637a5+Fvwb3i8L05lGU5sCYqjm0y9wq78Ghy5ejN+O7x6AfHgJUpldsB7oo/6uUyfhOPR50PxE4bgw+MHtQBpX3wPvEgTjdekCwDsVbdrLIULo/d/0KMUbTtRUdXUwcpurUiqk3UMMdK4Q3NsXjdTu8doLzyid7MngfCPnOvCCkeA2OUru8jj6D7aL/eu2JOqn4C7Z6kh6Okfp4HY76rjkMp3t6qgI3dA9O1m4Yq+GgZz6v1D0p8+v5k9dkHK/Pla2Bp6f/1HSrHtBEPa3Mx/VSLeTPgrfDeKgGvbVar3tq8DY7WedQPxBvvyMOfcVgH4hMhF2jg17r5ULlDb3Wn+FHuaP+K3MQTvfUhTQtb9UhGKgj67GuX9TSfHwN0KzXNtPazn7xuIfuZuiPWp29Ty7MM84uMzt+F6zVw42tqz7OXsssKcF4OFC91ULdLtcwtx2+3ujS7FKdQVtciFXfMxN18cr7hLBfyM7v1cbvGukzvzIH4HT7NIL1w4Nz4F61Q/DWGN+pIXe4AwMJBuTmAVxTTe/8sywpHSxT9fm8p1ZPEzVbLNX6za4oCYIgCMLh0cjpPjo6Un/88Yf6888/6cDP+N1WsNSS55+XPqWgwiFI5RCFS29RjjgeUc5Y4R6JnDJaRubnwOGfk3hGRQ6Tft7Ip9H0ztU1XkPPjTYSug1z/H45z4s3JEbXmMKHda/P7aXoqPmcXG6aXaqFD3erU3pMTVlqc/jSmyt52bE6YRul6lKUWyvLtMFm2LJ24t/z+qR+Bwr58hl516YcWXWivrZS4HNDmy3Uct1T55/LLkyUN3pIsR+G9Yl/L66CFJ8RnBPIGA92/0JOt5Y7/jtLv2NZgz5O6bqoTTimPLTi0x+Za4vn5zy/XjYpEm1S0o9i21WqHwk5DMxPeWi58/JT3ahcUd+rUVJdZm0j+6Oya2ruSfVBmXtZVetU3D7mukRZqXwJeRdlXZSJZw8yMWTrREytzAAn9/g5Ff3JEMu1qf40qlfBbnjiciB196bf8UsnI1vfKttWph+J/l0oqL4Wv86ycylq2lPfV+tc7/yazknrch5ahnH5TNsG9auvf6O2PlAaOd2//fab+vTpEznaeOBn/G4bfGqJdgYm3utOpJjoRrk+L2YVO0ihmHNboOQe5ASHHaZ0vyN13KpnbENfjeIHl9YJzi1VPPwtugbTPx4fo7qD43VVHEg4A58To5YlydXLFxvrVur4XXy3RFlA3ldbdGQEB6FQVFFdSuSG1+UbEZOvHnf0yYW6ebB17quhud90bp+HaSkmp4305VpVqS0ZukK+vH52W4aF+trqyeTZzdRiCeXvnxqd56BBhPKqkjQiAI0fFDdIvblnJ+jfn32e382DgsowuWMfg2c837vr8Zxn8yu13ei49P5lYNteqVt2DcowGvjx3lD453t/75vlQI2qGgiBNnflWNlyh3mLOc+vl00J089qsLxx96Y2QbsVKIixXW4DlD4PjEqhH2wshxzInp6qJ1sGXA2rST/T6WRaz1a2TDx/qME9B1dXSt3q8+wyPg3YkU5p0W/axxrIGtmbTBLlBCVGXa2rdzOZaXt1+mTPvVEPa7D9iYlKLV3Vi4INaPbiE+Ic5gb3Ph6qx9MnU2e0B3hthW1LYccIfg22O9Q5NdHLsnMJctpzdnmmnw2f1w/a3myTCjO5QD2A8rEAD42TuGrudLluzNlchw+NRk73x48fzSdP6rt82BsqrDMweXKCjlNMpnNoFDseuEEPDtCaF/wOFdcnHocDtkmgHt9dmXvw323jGueJNpvRF+FzaLTFn33k1xlCfIbXkAJckQmbF53KZQsGdFDGZJ38vfqjdGezHcY7hyBTKLi+B3YE+2VVmsFYvTs2H7fAlsXKENk6hcjlljO5urowubE2tLJoIw1mdnnrZEj3A/2zaTjrh1uzQRbKwZxpri83D6S1pLdXRrGdnOCwouoPKwYt4wjW5zbrvoapJRZKMQGdj8cfZxDjNCL7EHDWRn3UxXAT8OTCTzJQDqt75pDOLtUtCMvLXe9v4OXBcy7MDceodNEGWnf/KqCt+QAx+QqDdVBHMN5QOJQzlxn2z6r+m03d87NkUwK0dTj4TdRXVMDjd14/wDE/763UfUUKmKZjOZCtCuuIq2Hb9fnce4JiLW3/M5Dcizpr61vZx8rIlrVlTzKhcsJ5t6ycoEu19d5AZqE+zdSlLswGaWxd1ask2GBWARe2ok3u3XtWi8AAV9u2FNPPMEbgOBXcx+gSTEAKC5K1di5BF33AoQOAPDjlo9SgB7dQPphA0Fe2HEy29WPOhjp8gOw1p3t8N4Sm0ngFZW+tCDorc9Chc9yHI4W6hH8GaRDO6dFMLrGx+NtD9KxcK4iPTPSOBnC/n35WijNNuzQCjYyPnf30c1acadmZaJZTUAso1ld2F5Z+E9bJDLhEqrN5A6KdK8NqYe5hjM9OYMZs8pU5+0cNl7JDVgvbAbksegqbkMtNt6Fuax/lP1aFgHwSNFLeUQ4dXGNM6DMYHetcg/G4tfXl5QBDGartJekL11u7nIeHm2ttKSdE9zWTWmJJRn3iiE8RiphXvFGG6gMy4GqM6H5j5b5UuDjSH6WXRelcjHY1DGMEAx1i+rJbfTET6uefxcLz1ZpNqXt+nmyqoWgV12emH+FqBoPbNMS8xSa1chXLIVzG1kdtsyT0g+67jS43uGfcvlruaZ2l1dUNHEPdDxIb4mNZW/YkE60T1u576p7dXGYJfVq+wLfGJjehw3rNLhdgCf3qJBL3m0b3LuhAtW0rUgyIOEoi87V2LkEXfcCTeHtJ5KNhYKE/nKv5FS6Rcl8mc8zZoK0PkUZO9/fv380nT+q7PLgDjArqDbpPGSh5i0nGmz9Sg2oWFDWCGRZOoRzWQffOd/gzLoXB75ssoxV4VpsWfXOqjOJM+TlG+VtlfArKFrLfKRsMBCmMMeH4yUDI+mXT99XkThDKsH0tjkaYlaP+0A8O43fwtKo2NCsfzz9LDSTpgu0T/PAdG4AJy5ldFtW/B0vH0MfskrK+vn7pNIvBEbT8Wm3cFFuSJ5s01vkdqeLKjabBqhTJIQ+MhAWDKRx8PD08iu3L7VM71PeDw8CUkwUe7FGZpgm0L7M22bxeYFwosOei5nb1yTmyDe9d0IEa2xZjbG7X7Ls9aWUYxqA+/K8LSiG5Y85GbX14NHK6f//9d/Xt2zf18vJCB37G7zaCp3BUsN3SWxWp90rCYZc3cNDHfwdLhdCJTM6wfZ1dMOjBYLptnvIh4vPsy9ojXIVITdj3CU/Z4EcrjgMYbJsaYilL98mBp5/4Y8t3uZu+lrw36TebTJVF6Rx8EpaGog+4VBg/i444JcV8D7NYivLzECpMaPC1gC43tMlmoQOliWwCjJ5RG5Yqbn3bOCgC+etAcs+igQxfBaY+mLqQ1Lny1dl8me2DzeuF8MhucfVpu3tbKm0bp9bmtsO+25NSe8HqYLpM4Cfljjlbtseh0MjpRkf7y5cv6sOHD3TgZ/xuE0jRzeeiU5TKN+ZpJ9Gy83ROy508jSJc2hmruzk6yzylAgbxqBNM58ZZggHu0f5GAz8vz5H6P+8ew00HzDGn9JQ24TnuQc6nfv2bpmNHl0f2UfZBRB83QPj0nCBXdZ8EcrsKnTVo33kr3hvo1ZXN14ZJnBMS062gHNfBsrzVt1BvI4fd6PY26L5WoiOg32GupFkarUgOJOOd3ICp0akhDZcqQcdoAsvzkx0YOcK8/RZWJ6g90pu0+cpbV2wkm1KKZS5tG57mhNBAtz857JoqudPSdbzsXtBDHlhAKjYix7LeM3X9tYzGMtsxm9aLoDRH1P8p6Xuc2rDVvWMqbRtSYXNtwKSFAX6v7WmDBoszdUaTED4mbz/mvCb2lNPNDXsqr5A7x35gmFywDXN8qcEuzQZL/Txn+1qdm/Ubnc9liJYrghXe4De+gfNJ/b/wfzwdhr91oo3OEcJTXXh6wG4dXb0D2fwjWB735Yg3Ze2XMM/b6wIc0F75y3nRtXiYSYfflGvagOeru5SNMFUpmUZlHF9NlAJSl3YATjmeV+6Ym8lZKs/XEObz+U0vYWQGJlfm33oDKZYznCC4SasZ0Aq76YPJjr+fxtgEs1Q7vpuHEyVyZNpIC9F6EU+AeFvW0cZgXy2bBCYaxAemVJltvmr4xgi2qdixvRy6oX4A3ggKHKDcw9USTNmhTcFsg5buD2E0zr+VyJMv623ZTibpcgJ1E/oGMtsHG9eL0D5G73wE+s72HBm2u3e1bStSYXPRt4j2Am3M3trTBKdsPWw53JvGcsaczdpDp+Qd1grpfpxunlpSMrvi0T8fhQMH5iT1lhA/GMeRZ4dT+LJ7oNP4tdQxQaqXdnW6SidOJyhp+PocS4fPLKDz1PjbRzy6HNu8VqgLSnUByhsb2ab8D+jMLp/MLU2CjJz3zByrsvZjexNoKTKtlIVNd40wUbfKyaCJ/rpXOtHqDpQ3mHiOlA+Va124X4ERdL9jrrF/HWHq9x/XR+qJyz2e2OLrspwyH4P82LX0mqst02wMqBcYeeITIHz9VpgfXY4bAOjayHmuJVM2BcBuoS4zmaXLjPYN2i6YGOOr14r6t60cusH0IVvPqhG1IdjHQISBXulXN0Z6Bf0VZUApAeY8fA1esXvmy3o7tpUJlvNGPSheTjiGL7W2JVtme2HzeiHOx0gGJLa7d7VtS1Bic48xC6DFAb679ozsGR3o7ILDja9PxLf8sHrQ21aw31hdrh1ztmyPA+Jv79+//8t8FgRB+GXBqMj1YBm9tkoQmjKllDvwZA5o5U8QhENgT+klgiAIh0TdErAgZNJaKpQgCG8NcboFQfilmM6LOX76D2+FS6CCUAnfcG/B70b4R4eiP84jCIIASHqJIAi/FJRGEu8WxNf4SVqJ0AidRhJvm8S9PzJ3EwQhhTjdgiAIgiAIgtAxkl4iCIIgCIIgCB0jTrcgCIIgCIIgdIw43YIgCIIgCILQMeJ0C4IgCIIgCELHiNMtCIIgCIIgCB0jTrcgCIIgCIIgdIw43YIgCIIgCILQMeJ0Fxiru8cf6scPPObK/r0x/IMa+rsfKv4jZAfJdO7K++NH8S/w/aq8unYUGoJ/sOSHehSFF149bCx6vIN/CYLw2tmj060HRzEo7UOO5Sj+O2ndwp3Z4iFO/9uBT0qjQ/qxUEAmQZuB/exanT/fq5OTE3Xy5v5aquiF8Gsike5XgZmgZIVmx2o4sH/ieqXu0WCfnKnLvVrsnjq/FqfsoBjfqcdtBr2VcQbYcf98rq5lIN0L03mufRD2BvW5zADEeKjQjK+edvP35LvUHwrIiO0XBEKc7kOHDPVI5cetB+rI+tzrF7U0H3fJ6p45YzcPam2+Vz1wysQx2D+YenR9DlOhdplcQHvfr6CZryV1RzBM1AXYgbP9zvqFg0P0Qvg1Eadb6JbZpTrjjnd/KKkmb5nJV/UAjd0/Fa9bEARBEDiNnO6joyP1xx9/qD///JMO/IzfdY5ZCs/LH2W54vG5qfvAsclyOC3HuXv4DZeeRDkankfP4BHJ/kj/XhJG1HnVLCqOkWU8n8sqS5asTPDb1OZrl8q8BnC8FyvzGWozGEZPC2QJh6sfzx+OlmX5RlEmj0JueYMyF8oBRyxqfn/8LbymvIyoY2HZ7LlR+yfbtqgj4Wlhe43jNnYnG3myfH+MSuM5ug+Y+yTLkMtMLZbkdcPdOHEdWF8w5U09luQbtWHcTnnFTeSiFy7UZcSvYz2KbQT9npC1vmX0rBIdzH5GLDtebqNj1KTWPiTtTEi1DMvkwPXb1DG8UENlCvWb142ejde5/sHLu007Rf0PKD6Ln1chV0advrlnRLrg62zqRLbcpNoFv4fQ/Yzd74/0ucEzg7rgUax3UT+L5xAZ+lNXfzgjlKM9xzz7+hxqYseiHL0olSMnfiaUOdA7QThMGjndv/32m/r06RM52njgZ/yuS8h4pJbCqRNHHYw6XUUqxuCoeB8AHY8yA5gCDWG4T7GvRnxgLS0HnAcGwhktMi5NUke2o5EsLfDbCI3mlixfXKxb9Y4G5pM2nIU9n2j8SZ4zdem89dBZn57ai9bq4SvmPeqBjQw8h+pW54SUlAOgQa84yhBFPcABNS1H1LGwbHDu1WOx/aHuweNKdAmfndRZrG/cxvE9O2b28xn+91i9s8Uzen78cOPzv1fYF0y7zBZK++lxIacKm3m9XJhNZLqNR8cP6sbcB9NZUBaV9aPns01pdNyrldOzkOPho7pSt/5ckzJTkDfK+kqpW3MenAZlgTZ9vFZHC/YcPC8qIDoY1+fPZs8FHDcPCpQn/Ywfp+qJnbeGcrvzJhfu2T7P/kKVZwLnyxC/43K4X6F+275UNrkyfXO9VIuqzIHjoXo8fQrL27CdqsvHwOvds27Uw9r2vaF6uTHPieVKNNA3fAbThTDNCuzYmXkG2ivzzLLUCkrTMquDNlXvwjQoOaajY3cPPLTqpPrAQF25MpXs66nUn5z6o+0M+zaeQ+AqJ/z7Bpe+1vYeNfuLKuVoSNgTUBM1ShlwQTgwGjndHz9+NJ88qe9aAzrXlXNU7KZAOIxB0o6LMcbYEV2n84YNj3ub2GwMjD/QAOufeoNhwaiX4gwIDAjmK7iB0j4hGKFkOfy5/ZEeGMbDgXOOeB60tVnc+BLWKFoLHDG7PAue48qJO9+byDJibY3bFjvotSMWMp1bZzJRHnA2PqOQJk+uPr6NxurdMX2AwunBfXx3pXT1UjLvq2HKQTX4crC6wmHbAQeC4oCG+HLTwEKAHKngMfZcrjM91bNt6h4Gj3POJ9MltnHRPqt3/rnoYABWl3yZ7D3N4M+eZeurHQCdZ1mmX5sy/QyTANDFWzbaTi5QDrZdShy46SmcsVILe930M7QxtO8t00Po01id/jCtuwg9H+UX1Avqirpm9YzRe16EDhE8A2VZlHdYlslX1F1oU3Aa/aMm6iu2A68b9MUhNOvqnjnH4KDclj3jJjwP56GN7BWniQxBZlwOun59ZdVztlgG/9boidJqUWMres9qEelZ03aqK58H+p67p5nIQ98DIXgHMCXXRvoGz+D2sYs0K9Ib1IfQcUW7nywTVHHJy96UnPqP38H0eq2WfIYF50RN24B6OVo9SfVRQTh0DjqnO3RKiwMPYZxdfu6aG1NgchkZHrOk9gOjKvai3pGy8dc6/IAyUU+2HBZyFDRhOczgS+iBgTuiGD2w0ZzJBatrSzSRZQhzerZg7LxkkMsLzoL04KzRKwDUJixKe0yhUiZj20ZmZz+io6D8jS0Y7TL3YhFiH12PYeWIHUMaxDWpwZPLcXa5AEkZjt9FAzLe+qs5l+sMDGgUpQfY5MLBdIkiQEZGPmLOoskWqIO9ZV2ZdkOZE7ZUuPhh20WXNZwcUcR09eRkrP+9KETKaBWltP+a56feAlESYU+dW4jeI3E0d/ZT4Vlav8uhvsjayZL1DKC6vtU0kWFBDqZ+ul/iv7XtCJw9M1GqfelGYZN3C+0Ul8/CdIhYvlC/fv4ZCSGikb7FzwBt183ZXr/TepNeQZigUSnY72dVU8VKsupPMkebW7eamEmtHLWepPpYKrAjCIdGI6f7+/fv5pMn9d2+KTOmLv/vUJahTNTAQUvJUL7EUureaOkNKAP3SpX6wc5iHTIaUAg9WfETiAYTgr05nRuQXdaeKp1L7BGaYFnngCJhOGewEyF7sAkvoScjLtJoo8HOsTKrG2zyYY9CShHHPP+QoL5g+zo/OrdLG8qwgtDZG6s73WiR45Tg+Wc4CTu4dmpfVtvCbWgWW9nu3Prj6hiuGPvASXpVsCWMnuSOIYJwaDRyun///Xf17ds39fLyQgd+xu9eB1P12RkLnxYQOL17gFJIolQAHJCvKtIhXh3GgdIkomA2DSY+7BoliwJjFMsNPsnB3bdtcHT9xyW40xA7FC3A0174sfkyblfoVQeXh22ij8FrJPnBKsAduGI02ES8MP0gdZ+yPGbz/HbYLnJooUhhmc53+k79DWVYBfVNs9+CVqDY6k0TWm2nNuhAVltCerMzmtTfpK3B9ziO4QQ7ud9EEIRmTjc62l++fFEfPnygAz/jd12hcwY1wRImd+JMRC04d8Q3s43V3RyuZU6RX+rXS1WtwnOQg/zM0OlHxxMj7zYqQPnYLH87mQ6xRbS2iSxbBVN5WMqIT8ngaSPxJMO0mfkXP7c3uHLl9VFQkxNM9NUoCrVM51VLn2E5eN4o5Q6az6llby5Hfm5dekE2gS5dhRs0od3mLQxs5Wk3mzGdYwSbr0DoNJKs3FbK30QHbho67gZyOhIb96qpeH7JHyBJnUtL7S2t+tAyeDKVq3s2k2EVOm0OVyimFekP9TRvp65pX1bbUaU3Wj/btd+b1N/ml7dtVxylm66NDAThwDmMnO7EUivNlGd6c1HhHOfEsU0e/Fz41ef1ghOA3jaLpOBuaP1b8a0Q2zNRFy58znKV2bN4LnCw7M6dUzvA8AiQlcEm63dNZLklQZ3YkjlGa3lkludM+zbBw7QZw6WY4OZD+hBGzIP85WhJtG7VXm/q0/Cyu+tWfGMcg8nRnbsO88K3g+8D4DoNB7RbJKJ8TE4rYWSlI1P6LS4b6Ze5dtTHlYYoCkaJv/GbIeCKwmRIT55656PIcdfYvO/gTUEITOzKiwzPvwU9w3oGJ0F5UfdTbQvn8lNxcoztW7s5MBczuSjkwW4xkcp1kDaTYTU0oYe+gG852lxGG7RTx7QuK7LlxVemZkPpiKg34RuStH5uZ79T+pNV/4LOFnOu251kltgTKFPRzm9jzwShGw56IyUSR4AdtDxb3MWdPJeW+80uePMVgkvenaSXgHEM3lLh0KkP1YNHfE6x3JvSRJatYpbSg93mCEwEztgbZDiFwTveaFhILcHcwnR7+pWNMsqvpbSIkgZb3UdtjPVsOY2ltM3gyRtvcEW5b6v46BzhgOaOkQLFjZadDdgfoA7gLQTXDF+K7eJWZJKpQ9hOoC8qmqQPXwqbEgNIz6CtgjKbV44l2nZ1f6Nehv7+4PPRG3Hac/r0crx+baJ/zo/rI/W0YZs6B4nuVb2ys5EMqzDRR9TJrYLRDdupe9qWlVkVMP1gkxQMTEfUXcmXR796cjv7ndafvPofB/1at1f4ZhE7ycTfS15N2wS0J2C/gkANvhKyk8FcENrlb+/fv//LfBYEoQaMKtmNROiQ78UXEDoCI2N68iDtKgivjOlc6e6bmPgLwoFw8JFuQRAEQRCEKtrcdyEIXSFOtyAIgiAIrwL+AgJLG3ntgrALxOkWBEEQBOFVgBsz4/f+t5HXLgi7QHK6BUEQBEEQBKFjJNItCIIgCIIgCB0jTrcgCIIgCIIgdIw43YIgCIIgCILQMeJ0C4IgCIIgCELHiNMtCIIgCIIgCB0jTrcgCIIgCIIgdIw43YIgCIIgCILQMeJ0C4IgCIIgCEKnKPX/Ayb4k0hn8IQeAAAAAElFTkSuQmCC;" vertex="1" parent="1">
          <mxGeometry x="330" y="870" width="155.96" height="80" as="geometry" />
        </mxCell>
        <mxCell id="m6Iovzg8GHnj-0ou7R1F-40" value="" style="shape=image;verticalLabelPosition=bottom;labelBackgroundColor=default;verticalAlign=top;aspect=fixed;imageAspect=0;image=data:image/png,iVBORw0KGgoAAAANSUhEUgAAAmkAAAGZCAYAAADSC6ZWAAAAAXNSR0IArs4c6QAAAARnQU1BAACxjwv8YQUAAAAJcEhZcwAADsMAAA7DAcdvqGQAAKeSSURBVHhe7f1PaGzZleePLr/By1HHSBrlHTnuHYTpgUBgkQ121g86+Ansrk4cr8GXEsh0QZlXzRNVUJcKnOoaVClNFGmwUdPVuMCNA9TchnoyWX42BKihOm2oRAaBBoVjcAmPbo6kUfQoR35r7b9r77NPxIlQSApJ309y8h6dOHHO/r+/e611Tnzp+fPnvycAAAAAALBW/D/cvwAAAAAAYI2ASAMAAAAAWEMg0gAAAAAA1hCINAAAAACANQQiDQAAAABgDYFIAwAAAABYQyDSAAAAAADWEIg0AAAAAIA1BCINAAAAAGANWa1I2z+hizdv6I3ZLuhk3x1fcwYjn2beRgN3FAAAAADg/mgg0vbp5EKJmNIGYXO/vPsN+ou/+wf6p4t/oX9J6uZf6OKfR/STv/iqOxEAAAAADwW4O9eGd+mr3/oL+uHJPxqx1Vj3fu2v6R9//iP6bneLnrXeoXfcYcs71Nps09ZWx/0NAAAAgIcCRNra8G/p4MPv0jd3vmLEVjO+SoMPX9JXWu5PAAAAADwaFhZp0/MjevHiRbrt9t2n4G75Fm213a7w9ow+/n//Ef2BqZc/pP/4n39Mvzif0NUX7nMAAAAAPBju1JL27jf+gv7uH/+ZLv5FxU39ywX98z/+kL6tPHLvDkYqruof6UN3XFyCtUH++qGFf/4JfcMdlu984y/+jv7xny+SeK1/uRjRD+sebPjah3TyT/8Szr34pxP68GvuM8e73/6QfvIP/8R5iefZGLB/pB9++113liVP87v7P6F/cmUgWdg/ueD9Q9pRFrF2z51/cUJNn7/4Yvo5/fJ//YY+N3+N6df/8wf053u7tPvHQ3Mkjy+8SJ7sSD+LRVv4TlI+/0L/dPIh2eL5Gn14wmXizn3zL/9EJ1nBVerv3W/TD0eSf3vsYsRtwRTfu/TtH45UW7mg0Q+/zUc1X6M/+eEJjaRuszY1+olPk6PyUMvX6K//0d2Xy/jbX/0h/VP4PC8bJvn+P9EPEeYHAADglrkzkfa1D/+Bfv6j71L3K5uUePPeadHmV75Jf/MP/0w/2bdT8Oc/+x29NXvCJn05KK7vUEdbjp616S/c7ld33iWvcaa/+xX90uzJRPxz+tF3u/SVzVYSr/VOq02dUqjWO8/o5EffoZ1n8ezWsx36zo9SsfRvv/kt+vrWM85LclVqbX6Fvvk3P69/svWdDv3dq6+TuvwNuKb/o6xk73zlO/RzETm3GYL2TpdG/02Xzzv0bOc79Lc/+TbrmB/Rd3a4TNwnUpY73/lb+sm33N8VuKx//jf0zXZUp632N+nw7z6kbwx+QoffbKu20qL2Nw/p7z7UMu0b9K1v7lBb6japBj7369+h/8YisE5L/atv/S29VH7id37zA/r1b90fTKvTTer7W1//cszX5Jx+8Bu3DwAAANwSC4u01s5hsDb4LVpdavjqgD78zlac5Eq8s0lff/Uj+hPZ/82v6POpOcps0rveJLLf4Wld8c671HEC7uubm3aHvqDfXVrL0bd+kk7EjWBBpi1agdYWfdMrQuGLK56rT6N78Q/+iH587hPdop1v/XVm9XE8+wp9JRNow71tevHiiMLXmcmpcyVv75G3g1X5Ab0+v3L7FhE5f/NzsUj9hP76W6tXa60tFkUFgbnJ7eJVseA2aetbNYq1XS7rd77ykv62184eghDeoa987f+TlOv/ufotnf34P9N//ENbXn/4l7+giROu77S/Tt8tCsQWfYUXCymf01/98pJbj6P1Zfp6+O436BudeP5vf/NfnLUSAAAAuD3uxJL2je9+naIB7At6e3ZEf/QHVtgcnb2NE+M7W/QN49v8n3T5u2gi2nxmJ/lveGvGdEpWz4iAkyn7G9R510/pE7r8gfz7J/RyR03EX7ylX/34L+kPnaA6+sWE/o/7KOULmvziz1h4/QH9GZ8TU/EObbwb5cHwj3dpd69Pfy/uxXe/Sv92a5Omb69cuphnX6Z/63Zzpuc/tvn/w7+kv7cmv6X52R//Bzr6lSpDR4sFysu//Qf65+CKXBVv6ew//yGX4Z/RL7waEsSUNfkF/SWLpT/4s18oSyinZaNOLE7ptz+Vsv5D+lgrVC7rd6bn9OM/+gMuo4/pUn+0+UyVa5/+w7/59/SnP/if9OsxUedr36Av/z8/p+ugWzfpy6Z9FPhiQr/4S84H1/MfffSa+OtEf/+aoubd5AWAWwF8la8bmtJv6Td/BYkGAADg9rkTkfa1d5VY4ol870+H9BuZ5z7/DQ3/9KfJJPysYwXZDy4n5l+h9e4OfZXeDdeZ/u53QQw9a7/k/3+Nwi0mY/qp/Pvtr9OXgynmC7r86R798Q9+Zidjue+f79J/KD3v8PZX9Fd//kv6nP/75Z+/TtLW2lSy62t/YuPrxJr4v/8H/bcf/Yhe9drRWtjaoKI0+eKSfrz3A5v/8c/oZ7+2h5fncxaM/xf933/2Yzr77VUm1t6hzZ3v0I9W+FbhLy5/SX/6P7kUP/8l/fnryyhKee/y9Z/Tz8xHf07/S7kOa3l7Th99JGU9pr//y18lwu7tr/6SfiCFNP57+ullai2MvEvf/usTGl3Y+Lif//cf0Y/+5ru0o8ytSZ0p3p79Ff25JJbv/puf/ZKs9/Jn9ONz5Wj/8jeMu/Sr34kW3C8uf00fuX0AAADgNllYpJWe7lzk4c7p9ZinRc2Q3pbm4J+OKci0Z+9SN8SjfUG/O/9FcIe+826HvvHtZ+Q12tvf/cxeP/GVvaXJD9K71vLF1E3YM/jqgEb/7ZWNrzMHvqAv+HtvJ7lIKvB2Qn/vdlfJ57/8Af3pv/839K//8C+NC1Sno7XzLfXwxc344os6wZTy9v8odVuHLuvPuQzdrvDFF7G+fnlVvtb+yc/pb17uUNsFrn3xxRc0vZrQ27m3ntLnl+Va/s0Pfk1BXz7r0He++lV62QkSjcZnxkwLAAAA3Dp39uCAp/Wv2lms1j49U4Y2mQgNn/+MfheMGpv05Q+9NUME15DG/rPNL9O/3dlwYumKfvfL0uT7jNom2G01GPetE4Ff/Pan9Icv/jX963+9Tf/Xfxkry9LNeOedGjddwoBOTv4ktdiNf0Z/tfcf6PVvteR5h/6V26vnGf2rQnzY+vIhfSsEtL2lsz/7A66Df03b/2aX/pc2yS3K539Fv770ZfeMvvzyJQWNNr2kX9yGwgYAAAAK3IlI+83nyvrylW/Q3w2+ZYXFu1+lv/jJd2kriAMJ+v+fbv839Mvf+e9JfJCLR3v7O/oZ//PToOBatLXlVN70d/QrH+PFM3W86zu09d0R/fBPvmbv25FXN4zoH+Y98FBD4r7la39Z9FTn2/R3f7ETLHo35dnWX9A3Gui0jZ1X9A///I9872/RV935Epv1bvGFuNf0hdJura1v0V/LTaQeTr5FX3HHHwTf1g+RvEPvGIX5Ln3jw3+gb90wIz84Gwer3rOvx3jKq8ufzXiIAwAAAFgtdyLSfvbTSxVv1KKv9P6Wfu5iub779c3ombw6p9fKm/TL8edhstx0T29OP/+VcZF9/r9+50RYi549syrvi99dxkn08/9C/ytYRJhWm7756r/b+/78v9Orb7YbWJfKjK+jvUyeRPzR/5Zr/g11b/RejbE8DxF59k173QbvSXtn8yvU/e7f0v+Q801s1itOi/tQeDs2wpZLlMafqzJ55yv08kf/29ZD8cnMNebX6iENlsZf/5ufc97/N/1o3lPETVAPELzT8le7ovEvbSkCAAAAd8HduDt//af0V69/O9sV+MWETv/yj52YcPzgMsalGZSl7ZdjCWNKmNjHOh2f0w/+7GP1tN7qGJ6V3Jpf0ORcB9Ivym/op5c38dPVIOX6V38eYr9+8ItyGqfnv0heAbL2fM5CSj9d6pme83G3vzTpAwSGKxa60GgAAADukDuLSfv1X/17+sM/+yn9ajIN1jHDF1PzvrH//B92qV950vGnNE4mXP96DeEHNEnm0QmNzWOdis+HtPdv/iN9fPZbuprqu35B08mv6NfLvv5iuEd/9tNzFaDOefjFEf3xWUE0LMBv/vxPOa0TJaKm9Ntf/niGi+2/0H/58RldckK0G1P4YnpFk1/9lP7s/87KtZL2L+jtOZ+3d+n+fij8hvp/fES/UO3pi7fn9NM/21NW2+X5zd9r6y9xGf3YvSAZAAAAuBu+9Pz589+7fQCA46s//Cf6H9/0PuO39Is/+r/oz8sPhAIAAAC3wp0/3QnAutP51g/pr3VQ329/jZ+BAgAAcOfAkgaAQ378vad/G9ZwRb/6y39Df4x4NAAAAHcMLGkA1PIFTU7/EgINAADAvQCRBkCJ6Vs6/ykLtOrTLAAAAMCdAHcnAAAAAMAaAksaAAAAAMAaApEGAAAAALCGQKQBAAAAAKwhEGkAAAAAAGsIRBoAAAAAwBoCkQYAAAAAsIZApAEAAAAArCEQaQAAAAAAawhEGgAAAADAGgKRBgAAAACwhkCkAQAAAACsIRBpAAAAAABrCEQaAAAAAMAaApEGAAAAALCGQKQBAAAAAKwhEGkAAAAAAGsIRBoAAAAAwBoCkQYAAAAAsIZApAEAAAAArCEQaQAAAAAAawhEGgAAAADAGgKR9pgYjOjNmzdmuzjZdwfvin06ubD3fvNmRAN3FICbsH9ycYP2NKDRvfSFh8nNynq1DEazx5J1SisAt8nDF2n7J3ThhMmbUbXLxs5+Qfc+Vs8UURA5AVWnT2mCtROPbwN6W4O2C8AdIWN2b/Ocjl68oBcvdqnvjr25OOFREoCnBSxpAKwVEzo1k5PaTq9o5xCTFHioWItmYQ1dYEBbbaLp+IyG7ggATxmINADWnf4ui7VTmrR26LDZTAfAo6K/y4uV7T0IN/DkgEgD4EHQp9fnU6L2FuJwAADgiXAvIm1zc5M+/vhj+uyzz8wm+3LsLinF/+TxT5VzMneT/nw0sCZ9u+9OWAHpPVxshvt7kVilJvn1bon8vFKsn46vk+3ipOM+qJKm2W6Ll5FKm9SDjkXkzeclvVcW25d9x2/FuLdK/gYzYwYreUwy6OINb+iuHJ6NaUpt2vKXNvmRNhDjGUNesvTLVizzvEw4jQPTVubHRVbbVN4eo5srPbem3RbSUt+qquR1UG62/Jl8EMpH51PHhbqtcpG6PNW0oyJN7jMvrTnVvptfctn0NinX0v3l+va7PW61vL7ouc/KF3Dps+e2dg7DNQRznQb9p1laAXg43ItI+973vkcffPABbWxsmE325dhdIR35cKfl/iphB9HKOeJuqhko2z07uNwmMsj1kpu0aOdwnlCryQtjBkI98O0/o6JUbveSgdUMpmlC+Fo9qt7C3js79eZIPRzucO4jrZ0Duqjcq009PUp3NpLveKQc9ITVPH+CnZwqeZQyu6EoqzB8S1f8z+az9KqdgwOiYxu/tr0nDiEu9y4lsW1H5yzvellbkcmfy/HqVJ037lBvZt/wDOhlZ+yCu+12OpH2WO0f0m4P6Hj2eTdKi2tnIdhctlOiuj652aWLrUt3ng1M50pngXhIO1en7ri9xqSmHje7F0meXpxOKu2oyIL3Kaa1grTBHm2eH8Vrcno0dsy7im3i6Jy4Euakt1CufF2pz0T8mDxxWU9Unvj60laNm1Lyx/sTX7e75VwM97bDuVOXF9uem9AwrQA8MO5FpL3//vtuL1I6djvYwFTDVHVoN6gI+ycHbkKe0vmR+9wNHjLxd4sDWwz4rhmDVkC8h0y6Fp7wXtaPQjEvjBpEw/dZ8Bz4/Az3aNt97rcw1gc3G0/O4YKqfLJJwbDfpU7h3sVzF8QP+PFSLWq1fPn4umK0e9DEdrk0mO2IQjF0um6CXCB/zGDkhYAK+Oe2ZC7LZWurZkh723z8VmJqOK3jY0rnMrlfOqEP9844hS3aCKYpEXJtMxnq9ioTZbPq6dNulp/+a8n3JmUa0tS9nmztecoieNO0DF5yG+fyT9LD6fP1kNO6orOskw5esuiXNpocd9cI9RhpXZ2lAoLblvSp1s7L2N4KLHqfUlormMXVlMZnaXrC11hEcfFyNag2wX39eF56TblyHzhW5crXlTppd72g5Lo7KOSJr7/bWGCtgEZpBeDh8QRj0sZ0HfSNWMbcSisMKvvUDcpCVvzedB5X5a040wWm56/jAHhL6EHWTrqOzWc1g5DOC09iahDV348CxaHcTtFC5CbfwVYoh+m5Egf910HwBJzlxyCWAu/m0hPIMrC4fu2+37+Ms3isgz6pw1WC++gwCtjWhnWtLZI/nt6C4Odv9VyZiUXIXza3et0GV29rJkNVj779hvQ4AV367jh0kAaEsvT51kLQMrnMKju3CJq0ZCLD0SQtA6mEyWW1/+n2p5le8yigsfVYSacwPKMxJ6EdFaWhdO7wrclVVaQGFr9PNa0FTD7LVkxhv9uhluoznnnpteV6li0AXJ34/uLaUTFPd0ijtALwALkXkfbpp5+6vUjp2O0wpL3jdIXtYyUam8ULoqh2onxI+Ak3cyUuT592E1OIF73zXLSrJE5CISZn5f7XekqCfmlKFhP++7oyi7v4oMMOjSuWYIdx/Za+2xAvAHvKrVpnuZpHjRu6Gfv0bNFw1qu3iQWw1s2/apa5T57WItzPjFU4LhRSLz+XrluQmvbvt5n9wJWrWVyl30tCJ27ajlZCw7QC8AC5F5H2/e9/nz755BO6vr42m+zLsaXQq+WKeNID+BUFHRXceunE1e7lK1HlwtLbsm6r8XWYxKqTd4dkLDU0WT3rAb/RQD4P63KyRDdfdKsuSd+5GJMJnMXawV27ILQbM9ZrM9deA7TrXG83MhmmWIvImAoGpwTjgjXp2a5YFlaDcnHVxkktgOoXizMkYxC6CXUWt6VQ40zOSu+T41zq3OZs/GEMujfWpLr2WdtGXLmaOi59z9X7jepuVTRMKwAPkHsRaVdXV/Tq1St67733zCb7cmw5lGuLV4shvorR8VjRFTagUQjQlRWonqjF6jKkM/E7GLLAc2YwKrsUGuFcGgZe9elLx9gmsdqXRaCOrTCxLW5/WruMTfOiY+n2T7rhfvbFkUokBreBdpc6tNBU8SxJ7JtHrC0+k0YYxxiwO3dBKFGr24J4SRIWyd+MtidldzJaoRAdjIxVoK5tzEW5cQ39S5aqLep08xQW6rwhRkS6/YVw7rpl02JESOnVJHmea7EhEBVXo1Djziuda1xuMxdYi99nGXwsn18IGrdmq0OV4p1DbblqauvubmmUVgAeII8iJq2/Gy1i/tHt1NQ9oTO9XMxM/8Hq76wUSbxXZkK/macsdbV6N2uahmrsSEClW59/PMNcMtw7jsHxpbIJ31exeiHPKmbLw2LrLBZOcK/UuhWS8lPXK8UQ3SbKihHLIQrjwIL5s0HwFl2+Jq/B1MmC7YKPLfm0p3mtAFe4PCzRxDBn43D0pMwLk0rDte9dkzTrxUJZjOY4y4WeFFmQH8z/Yg03SYtUmfRXrqukfEt5rsP1S2mryaKMryGu/8lptdyzRZa40uV2s0X0EvdpApf9KFkg2MVHWLyZeMpCzFrleynlcmV4wRCTb0MapO6SJ0WTa88QpyuiWVq5nKVvJmUPwHrzSB4cyC1iEfso93xztzkvuDFnXe+GDwjkFiWFeWJxhit1cprFFYkLY67r1bpBSm7LNM9yXnp9+bz0PXmsPj8+OS3nqYTJ5wrdgM3gOs1ipiQdpTqW/OXHa/M3qz6XsnpFYei3Hlk3TtMis5YU/dDLFl3mMWmMnOddY/5e8lqJUp3n9Hclzyqt8haQZWPSmJukxfZXzl+y+CrnuRZTj3x+sqhwr7UoFLy0h+uuP09EPJkQgbl1tOB9mrKZLBDs9eLTp3YMOJ1kbetwgy5nLPBsuXI9UxbP1r1OF5IS0sB1zw1OXbtD18Evz/eXlY/P862IpIZpBeCB8aXnz5//3u2DNURW6N6K09SSAm4DWYU7y1sjcfxwMW1O3oH2iPO4PLYdEPoiAOAOeCSWNABWh4iUdLEv7sroGn3cP/7s4sBW8jAKAACAmwCRBkAB7XZLY+nSF7M+ZAaj6qtQBiPJa/pOPQAAAPcDRBoAjXCvJXlE4mV8LWFEWoy+cT+rg1cWAADAOoCYNAAAAACANQSWNAAAAACANQQiDQAAAABgDYFIAwAAAABYQyDSAAAAAADWEIg0AAAAAIA1BCINAAAAAGANgUgDAAAAAFhDINIAADQYvaE3FyeU/QDBrSM/wfXmzYhu4ye3AQDgofMIRJr84LF7Y3r6g4uPEjOZqjfE++0JZD2yf0IXhTK4D5Fxl8wTUubzR9kQbB+/yH/DqgHNReDy9wC3CeoFPG1gSXsw2MGq53/l+85xYrixCFj0/GaYSfdwh/xPaQKwKKsVs7adP6lFEgDgzoBIeyAMRj0K+mxySi9evAjb0fnUfXBLGMuVuv88Fj2/KXzdg/BL5+63NEM5nNLEfQIeG33a5Tpe5ofth3vb3Daa/Bbp8vcAtwnqBTxtINIeBPv0bNPtijh5nU45MhE9ot/9rqezES1okzNKx20ezLf3CEM5AACAx8K9iLTNzU36+OOP6bPPPjOb7MuxVWJjUd6YTVwRaSyXi1HJYpvyuIdy/FcpvmWfTi6ycwaj8Hd+XZ02sy0US9WinZfzfSuVtCf+GJ1eyY9zTfpNpcdcR7sX273C9SKNzi/FlC0aT9bu0vwwlSxfvKXJVp/z/Qe+XiQtqv7qy+5CpeEG9/LXXLQM5mHK2aYxbw811Veh0laL7b+a92L7yOud89txH83GXl/3I5MfucecPpzEpLk6NSEDvl2G/FTvMS9ftkytxbjdq35e/X6h7HQ7qztHYfJj2sm8a9vPJTmh7memrVp2gUoadbtnCvWa1UI2Ps4v55hU+9kydW8plJPJT5YHANaUexFp3/ve9+iDDz6gjY0Ns8m+HLstZABNY7na1Lu4oIsstqm1c6A6rrZeafi7yYAog8AhBS+cgc8pBo/ZweowPVluTIczB+ch7Z0pZ95MoWQHpcrt5TtFESD5yVyTnJ6DWxrBzCRTiikzZTBn4Oy/pujZZbF6KINuzXfMQFx1uUpbKA7mfP+erhd9r/ZWrJv9LnX8ad6ad9N73TKdgze0dZm6xyVtxeYT8G31ik7d92Q7nUh7Sct8/6RLfFI458XROU25vSV5lzLier9S5x2NOzcrB2nTB0TH/r6nEy7aw/p89XfNeXyaChmod4XOy1d/V45bN/vEn+dN2kZA9Gjz/Ch835ad6udSJr3NxG1v0jaXDh282aJL950XL464rebjkmWzexHr3qfNtVedNskbd6jKmGL6Kw8mIX+8HZ1fuU+ZSr1yWoj7chhrpB3x+HilQjT4XvEKMl5laWlSCE3qvlAHXF01YzMA68m9iLT333/f7UVKx1bG9JyOpIPKIOsOUYsnB9d5Y0xXizpdP7GwMNp2HTt0cD94tGnLDQYykIcuHwZ+GTTdMcX+yYETczqeysdStalbmtA9PMFUYs9koGJBpifDGLs2iZOrzzeLg5IRbuoHMTU4tjpdM8iaiUiXm89jjX915vk8aMaYskL6RHgdzLImSZ3ksWderGXC2Q/EKn7Pl19r52VlMhNCORi36ZDOxj4Xsb61y3VyKWWwmnuZtnYr7lpO7fgocYeLe1yqut2dUdaDl9xWpY5SEdPflbadWnMr7vbhHsmaorXh7WQ8UXfbJs+ldCwPp0+XmRPW7VBZN2N+vuoZvOSFCI87x8on39+Vthv7+b6sAqdjOlOV3t9tED9nqlSf5/tFdQxpXZ1loRCxLpI4L87btm0UUYC7/ioCLa23XRdqYK8l7T5+zmk55v4cxpoObXB6bV9x8L12/b33n9Em9/5xWghZmkvMr3tTB5y2JJ+lcRSANeZJxKRNzlxnHp5RmHe5k5+5zjs8G0dRUcFaFIzlSq3ANp/JSLZP3WhWodMwsvBApS1fBn2uFxayRQvMvMFfJg2Z2POJLa4gB7QVkigra3cPZbmy6dbEckisR62Nhq6o5ux3O1HgnKpJxk1+hlaHgk4uYgOJEyFo4Pz61ftgK5SpF7KyRQvmJlWKQZeDQ7cLX26DUMATshptNfe6PbIJ0DG+5pzNqGOTz8llQTA48aqtiwbVT3gzXWXzma0PY32ckY5lqaRvSG/FROPvuxJm5KsW2w/DuBMYky12W+pDSaxYkGebNKtkws6SXtszvR67PceMuqD+JbfMuFC1/dW18xLuWnmMLGfMWMpsn7HpavdqLN7mXBkPZ3kSCsyte1sHlfwzptwBeCDci0j79NNP3V6kdOw+iIOcdRu+qbgyb5GGk4t1s6RibaZVRNHECvAgkJV/LtZqLIVVWlQphuk1TycZStRby2IUwdPz1wUBU6LhvdaKOld/GRvzdEidcXQrJQsJ/cDHA2Juvuow1iERJlHc2S0bS8T9Ku03iPsFhUoDrt5mYmyBuuiICWxWWzXX0gtOv2nXv7USn07ieWkIgCy6vLvWfr6oZi3i6qCSfwAeGPci0r7//e/TJ598QtfX12aTfTm2Tmg3ZnBNVaw3y6JcfXpb0N3Vfz0jPd7Fm2/z/QgPC22FKxDqLtuaFYNyeYrVyQ38fNWiJeJm95rPbOuXFVYly0EttROws0o0YTCiXtu672tfkzC+XlG/uUOa5KsOZ0nScVzJphuEX2wEoXKzgPa59b9AXcy1cppr6dCNdNPl5heWPnYsjX1z7n7+XFyRtbGcADxB7kWkXV1d0atXr+i9994zm+zLsXXCrCIN0TWl3XUWPZnpeBAVpxRIY5x62XJxMJq1ihaXS3XwNjEXbp+XjHyHPl0Gt2Ee/M/XGDWzts1kUVeSOl+7DxPL3/4JSWiLoejKcUiQcr7M1t/lq5s5yrhtLOnDIAyfP1pgAohp5vo9cPWv07jCe83DpkXFx2lq3Vg6ztLjXO+mzZQxE3TFpSm47xZdoR7tdmecS6s2HQ+GLF+1OBffQrFxPq6sYHnNKYUEuAda5lqOauuCMa772IasO3ZG+MGsa9XhY8JqxhEfp3hji7+zgpfqIIYsALD+PImYtGWIq8hohq88lcloa5ZZIZpzq0/6CcO9szCh6/gl2SqarkLVrRC/E+NCyumR7ZB2FnBhJTjLgEFiaOR6s3wSdecP9+jYB73547KFmDnOx/Eca2JWbsmTouHdaX16HYPr0nLj8xcqBu3ylIdNmOn4TKVxFfdycU/Fp28VzmpYje/hRYGUQ+XdcZZcPA5G4naLbabEcO/YWXbSxYP9roq/NNaUdKJOXrxssGWUP30XH6S5W+oFqKJRvoSSIHMxqdxWc4uQXoztn4zSenQiab4xlNtZ8oCNq//pOc2oUkefdp01K0kbLygueECZnh/HNsSCyrop86d5fbrL9Wrac1gQctqSD7MFQmUhY4XwQhbhIjV1YCykbt8jiz/ur7OGNADuC4i0GipPnon7sOTuFHdFflzOLQav2KD30kezY5y0FS7DPFG4HQdW4z4pP11aDWRuCqd7IVdv/fnm4YfSZ8Y9q/JRQlmtUpzLRbmRau/DV1gsaD8v+6q1anX3mo+4jfhWmWDv2VdFFP2qUjZntKHO77XF3T6nrGWSM7FEcZFivrsp9ZQ+9CFPBeoFgbzyIW/jUkbeleXPO6Dje3nSzi6WfL5qLNgN82XKyYkBc56f6V28GVdU+L5s3WvdzzfTejSv45hXL4z0lbONuMiRRaGMA03DJUppY5Enr9HIXbul9nbYuQ6WZNP2uVDS+LtD2rhUaUkWVizy5XUcqq1uJmVkX5mxsIu5hOQzq8M3W5fJU+wArDtfev78+e/dPlgh8n4hb3nLH2EH4E4Q68hhh8ZNJn7wIDDjSmdMR7fyupYngljOzLqmwetOALhnYEm7MQMa5W4qHgSia3TGI+wAAADuFBOTtvZPWANggUhbBTq+SrYQ9CCuJqzWAADgrhGrYx5nJsfMU7vzYl8BWBMg0m6LPFYMAADAnSFPp+bvqrM/c4ZxGTwcEJMGAAAAALCGwJIGAAAAALCGQKQBAAAAAKwhEGkAAAAAAGsIRBoAAAAAwBoCkQYAAAAAsIZApAEAAAAArCEQaQAAAAAAawhEGgBgceT3D80LQi/oJPlNNLCuDEZcX/lP2D1pBjTiNnyBBgzWmEcj0uTnPvSbpf322DqgGWgL+ZQNg83yxHId8dAN5mF+/9DQok73nttdEIx6a1CPxe+pfiQ/UF/43G4rEKf+/vlvFwEAgOMRiLR9OrmQn/vwP2j+dGntHGKlDO6E/uXE7U1pfHZfv7Fj+378rVxNm3osgMoLF2tBKX+vKS3aOXxT+W3IRRChO51OOalbWBg8AYwh4R7GZ7MAXclCwPabW1tTmEURLPM5D16k7Z8cUNBn03M6evGCXvjt1E8kjxH58Xaf11MKOW3t0EuM+OC26e+6tndfv4MoAu0w9n3zW7muPxydc++wyMIlnVRkoumxhHPo78lWN2ao847O/dVZX3WXnXQHtNVmgXt8xn23TVvoswCAAg9epHU2ogVtcrZHyXzBE8n2k/gl3T69VhPH5jMsRcAjZ/AyFWi7ffcHM9yjbSW2tJAajKJAm54fpd8TGowZw7NxEIHLsn/SpfZ0TGfDPolRsg2VBgAocC8ibXNzkz7++GP67LPPzCb7cuymNFnVVmLXMvOz/nw0cG4Rs59+lrpR4nlJLEwlpiUz5aqYmIuTgXXdmP15uWiCShPnceDTrvNbirmpNcfrPJbPnVe2QimmLlo6CveoxBZVz6mY3xfKVz1pW8jT7tKV3Suvu3IMYSleyrnu9DlJ+8hSP69tFcjz46k7PquuSt+ZXV6l9GV1yXUU2ilvOi05MSaONdplJrSE/msK65ZWh2zYnFivzBFmQmcrXcC5+mvUzvap22nRdHxmFpXGddzu1paPlIMu22JZFuLrZpaf1E0xrfaepr3VxOzJVj/+yVZt32n6eZtbTnl/qH7HXNMcy+5fk/G8Pc8qnwp5f9Np8Z9lF7R55rr6r/ZzE5LT2qFDcw1fh7GOQ/rCdfJy1Z9pCmVlL2j2jVe/3XOfqbqp1G9pXLLYtNkFTrvnzk/SMqsNuM/yOnf3Hw1c+g93qOXCCOT4aubBh8+9iLTvfe979MEHH9DGxobZZF+OLUP/dXRthA5QHABsQ6jErpnvlBtnu6fcIsxwT1wTllanG+8x2FKr89ckU4bpoKbRaerjWFo7vWgZWJgBvQxfLsQIcR572cXL6WNMeWSTgOlMaVmkNClbe05tGJAZ6Gbdg6lJhwwaoUPLOaV83RC5R5r2NvUuLugiu1dr50CV3T49K649JF4qH8SU687A59QU1qJta3Hm1FUDquXF6TvIJ7asLgvttIwu1wmVNBr3Vnp75Xb53hsd/mf/GYWvTa9p7HYXg8vmIJZ9xXrfhP0udVqqn/YvORf1D2BIWR7QcXC3nk6krnX74TR1iU7d594l2+6VhLHFCMMgXiPGwucFbHBp++3ICt/pOR17gevqcfP8KJx3Oknbt7TXw50rlT6+TqibGgYvqTOO1zQhHTKe5A3cjDFbdOnPE1c3C5J0gnfteVOHw5wSd7C0/dXhxpSrU/9dTj/xff084y23WmhzuRxwW56cbtPef+LP+XvGTR5CctIwgc3uBW1duus7667UBReauydvxby5sYNTpPNm5ilXf8aoHNz1u2Z+MnnqbaqQGXdeDf3deN2JT5O3Qs9tA33albRzXcVQHE43DxBizd7tD2lvm79nwhRiGM/T8ILN515E2vvvv+/2IqVjjchcGwbTcVmsqQ4dY9dKsVxt6hZHs0kYWGx7tK4Jgxrg9sOM4QZe10HNkaThmkM1Fr9FG2dccWjhMj0/LsYIhXRs86Si0qfzGGN51IQqHTDMtrrsOD9ulmtUtmZiMgfUgMGbK5T9bidOfGpgilVrO7WhEB/U2nlpBoRoYdFpaTApzMMPrqGMmBan2JVrjFPSk60bfFxazRYyFOOQ7MToCHlzE2LOUm1rQebUVSPCZOTbAaP6zOBlFDoxH+rcmXRIRTk0p7MR7klXbxcTV8ESEcW0tNPoLXV1Lf3LHanDtHXj6nQH3LiSLPw0XAd6TLALUx3HJvd2k6/DLiidOC1hLI3cz5MAVmvho8llci2P7ec8Xqg8mnrUoo3p70o9xjHVhKQk1+T07s4pp4rb2YV0bD7Lykj6uco7zwdneVka13iabrmeEQ7ur3pEAHPv5DpI6vqYv6tFB6fXiGc3bppySb4zm9bVWeXc4d52esznTVWqcd9LX8vzNufGZs5K2qBkIW1DTWnSBiTtx1x/7Z4Vbtbdn34HlHnwMWkGt2LQAb2GsOpwg4+hLG50w/d4q5gmPtXmB0B1bdfoteAwT1yaeynLQmuDp5mMydkNA7CtKCkLvNS1kwqi6gBncBOqPjcXgP09GRgalu3wLQWdZCY8t8rnupPxZBjNHvwxf9+tUsPAoayVccLU1rtNklC88XUUSyYtRqg3mBTmECwmwzMah2YWy3V2nJJdyZs0K/OSjR3U5ccTSRhcOc2hMiJLta1FmVNXTYgWJh0v6fuMcjsmA3UaW7nWLDABp1irt3d1euosW0LFnevqpxJ7aiwarp25/lcfnzqkM2nI+slSZ+E7f13I2GBk+loyXrh6rFoTxyTd0I+ppk+GsXgxtIvSuguz9p0JDcHcT51nFm4l4anbeR11ZVKoAyNMRLiNRtwfdV+ez/S6zq6rxg7eTD8PQtWWf96WmmDGWzFm3Nj03qwNCMO9Y14YsHDj8jnY4fXt8c3G5KfCvYi0Tz/91O1FSscWRVYeuVjzFpa5VFZostguNCHjmrCYYF9ldWju+rCCQlPfSevQliLZZjxlt7RrJ6VYHk0wZcuru8QS4wVdFADpx84aWnRdl7ACwA4E7pDgBd1q/ICNiAOTi8WouDJvk2rbWpw5dXXv2AnAUvdkpHaJTsl0r/F1FNKLvvbCWRRDsSwpOvxiQwtss5nZl8t5qUezXTs77NC4Ysmuxy4slEW3YuHzOCt2Lkyd+9gsqnResvZuxmUuuJDnBn3axnOxKKGq1Xwx6kIOGmKsr3rx6be4CI3YftNutzMxO5/S2GoF6mHi9k26pSv/pcZlMWyIJTEseLX7fAEatgGLtUByAYlCu6FR4ulwLyLt+9//Pn3yySd0fX1tNtmXY6tCx45VUe49vTVwU1iUy1PER3ChlGNjtOsubvf12oLbZk7ZOotn4jKUAdC5CGzcQzYYs1g7yCZD7ebTm51AeCBwLsZkQOPB6A51mkG7MUOaG7lYmrGqtqWfkA7Mqav7xVmBHMUnI7XL1guPxApaF+IwG+vGsaTxh80wVh1xT1XqzbXXJd6ZFlxei9a9s5zb8rMW3ZJVxj4RW7AMOWtSuR3yps/37UnEo1mAzRAFzqVvrruANaqMjk1cAiPs8wVx3FLPhYuzmka33tIMxBo3yzvCNLEEzoLrX2LlbGiFxJAtsQhbpA1wG5N4Ti6gpfrOU+VeRNrV1RW9evWK3nvvPbPJvhxbBllt5JNvEuNjrEh6UOfGmH1hMFqsQwWXZ6tDBxKvIChzunZ9VTord767Fgs5Sfp0DBMPjj47fmJL86I7MXe4kXy3YdmKK8Z/ZgYHFXPV2qB/xyvn+DGvvJU4MJYpZcGsdHC+9sgdGIxiGo3oU0rtrl9NEsVPdItqd6VFTyJaOKgYPMVN2lbiUg7CRj/x6JhTV9GBsSzKEibuIZ8UNzk3IbGYijVAZ1zSHx6s4IkuuFVSF7JYdirWMC7D2RYybWVcVLTOdk9VY81ugA4PmIF9spSFoYvbqjzxasSCTMIly5Ctx8VeH8LlZ/r2ohZfHRawGNbdWhC/TcrIiJBmv6rhxfLxtnXr5WPhzcn76jLlX0IWtrL4mBHDWEvzNPiYxrPtbV6QrMuCb/15FDFpualVP2XoXZCJdS2YeO1WmAtnEwRDy8SOC0nciI7tEuGi7nWzt5yvCE6fBHEavFtRttLEps+VSSmY/Q9px7kRGpdt8pkyh7PA/f/xP0k9qqcXbdmmsU2J+4HPjR6N7LOQgLt/M36Mj4ttoPIELKOfUI5usJI7hblJ21JCN9ZFzX1m1FV1sl6UVCyFeld1Ph8/sTh0enXbkafrdLX3d7NwiJLbcQ7J6z28pdfFDs1w5dnF44x26Cx9i066NgZLx7OVBX4R0yZ4cdDlHlSp2xo3Z8DVI5d9Lmz1wjdfBNuFyhXVeumcdUaXQ/LS8gWx4xP3laRumpaRHXeknaSayy9SHd7yZcZNLhd5sIDLRX/HxoGV4w4rGAteKg71O/4s8T6V12Gov0sidf9klC50jWB1YQG1lARZszYgCydrHbVi38fvJV6SoiDmvEi/XLngfTg8eJEWA/kznEshDi68guO/ExeYo/SAwGyUy9NQdXXmVpwAp6sUl3vX5NaqQMFtUntueEJu+bKd7dKw7lP/cW06+LyKBUCzjCtoBUh6kzKRdJTSL9aq/LicWypQZvm25a0YEXHDNo31WY37ySHurzwPLAYWizuy7a74HVPnuv9HTDuqe3qWS2e+mHeTo/urmevGWYKKMV8eH8xfemdaPbad6cWJvJJCCdiZOBHCq830AQURnU4UaAHstjAhSz1ym+KbJ593r3W/TxcT9nUcs2K2XDtV95VXkCzWNjTSTryb1aejeRmZ9sJtNTUGHNLGpVvIskATcZ88WOUWU4n3wT9Ra+ppjmtRxgS+p15EyCs6Kt1ezpN8JHXUIz0hBZFqPvPCaTNbzMrrOOaNkVGQme944TSvDXjLdiL2S+I3HpPvz7ZoPx2+9Pz589+7fQDAGmHfL2XNByKQVqWP1hkJX7AGDonHuXth/RQx7awzzl7jAABYBx6FuxOAh82ARrmbjFfn0TVa98LWB4yOe3OIWAgeqJkWJ7A6yq8EAQCsB7CkAXDvSNxFTWzYY7UoJcH9OeLmXuwVBmA54q8BoLwBWEdgSQNgXTHv5npaLj/7qhIIhtvGv4cMAg2A9QaWNAAAAACANQSWNAAAAACANQQiDQAAAABgDYFIAwAAAABYQyDSAAAAAADWEIg0AAAAAIA1BCINAAAAAGANgUgDAAAAAFhDINKeEP4FlrJlv8gDHh3yKwbux47zn5xaS+QHvf2PM/sfgZZfx3pIeVgPbD+PZQjuG9sXH84Phtv03t0ccdf3e1g8ApGmJqPKdkH4If0FGYwK5VjY7rlHacFZ2TChryV1dVbflAa05X8rq9Wh7ppXajF/mHnWD/lJspntDoD1AZa0Ik743WMvtgP+UxOZKyr31g4dLm1JuP+6vxfcxHUrq3137fiD8U3p0+XE7d7FD64vXQbWCnjYGdPRixf0wm9H5zR1ZwAwF9P+bm/MN3MKFrAPjscl0qbn6SC5zO8emo5S92PXd4O4eBaf0FZEf1eV3xGdh1lGfvRale3uin/t7wblPjktpbdN3UVHuzWo+3tBrKe1P3Z+Q6RM1bXtb3PGdnQUK6xIf9edu71Ht6rRblIGg5e005rS+XGWxuEeba+6n4CbI/XCbQpVAx4CsKSBR8SQzsawXawP+3RyEIWPiOntbNU03Nt+8JPl/rNN/v8Vvb1tSx8A4MlxLyJtc3OTPv74Y/rss8/MJvty7LYIwce5G0vHX/Fxc55eTbd76jtZYHP4rnOrGSuM/zxuZddJIY5OzNDuGr1gymnRzqF8nprAK7EvRRN2dg8+p+M+WSVJ2cqmync15b465qa1Ng2qLJOyLh1Pjw18XZnP8+D4ah3NrUfeSsWSt4lmRefSExsctXYOzfeTdltq28W0Zux3qeMLdHpOrxcWY3l5pcyqz0rd5HkI584rA3edGQU6PBvTdAHLbZ7u9NL2fnIsrdMaN1ieL85rqZ83GzMiwTUWrp/ef3YeHLqfmy3Pg65ft9WUc57+i5OB/a46P6Q57zP5NV2e/OFKOwpblt5CWZfKsFHZJLhyMOOPH/Pn9EF9b/9ZdiNbZpyH/2o/N94ZEwoi16hpTxnVcs+/VKjDmnLJrzXz4ZaQ3xnnPBHuRaR973vfow8++IA2NjbMJvty7MaEBpg2gv6ucoO1u65xckf2A7O4SRdazreppwZ1Q2cjTvAKGfCThm0GrmVdarZDVFyheQyWaeDZPfic3kpdqHYgzIvBiBvXSVdf7nPgfB+EPE7oLFht5qf1VphZ5tyGCnV00KCttHvpYCmTQt4m2r3VuG3NwFpyA5o2N2eg133i6u0K3ZUL1qekNc8Dnzt/8mzIcI+OuaFbcTdrUrH9t7epwjJOJ6Y+87TIsQM6Dm7h04lM3tm1pX1wvq6Cu/8FHY07lTYndXi4c6XCFbhfXrkPZ9KhgwOiY/MdHzrSLA+m3XAFxVAEcW2rm5ox6pB2rk7D5y9enNKkUIe2fafpH3d6VOxapl1u0aU/V+IC+ZpVcREJLnX9HT4+PT+O4TKVsuYyJL5XktZC2XCeeLKY0xeHtLft7zul8yP73WB1nndvcd9yHcQxlnFj4eSU6+0/WfeuCS0IIUHzQ4E2uxdJG5R6rs5nL6kz1iEMXIdSB1mDtnVIIW+ySZKLSNuQ/jqRtrFLT90rfS8i7f3333d7kdKx1cGd4NgH8fJg93LA7aDrOk6MJTGdVQf7mkbCx0pCwn/mG1ESyyVbFCitTtd2Jml8YWaJnVG20zEfcrESsfH6c2yH2j85cAOT/i53CnNuXMkPXsYJKcYA+fNWw2DkBx4Vq+bLjjspFzFzC+VeQCYII8qlY5sjkqbYuZuk9aZpqCOUfyGmKnymRqvQVrSYDW0txnC1dl7aCZvbVNc3KZW/ebFeFjc5qPv7NJkJwg30lkLZSZ0e1Itc6wa0TK+lga+GZm0vxYsFXS7tLTlxThlwK9qV689pB+K2tWkQ8R0XiAml2DUeN+TW7W5Wjlzn2jXcf22vbZJsYEHAFS9p1UmTdKisGDobXIeTSzXZcZ53q+2xAn9tnMfZNclDEAhp3NdwbzcIAzNGSbtOypXLWspQ16Fp3zLe6cla6qxuPMvO5TH1jE+M/WoeXK7iok/K35a11ElMrhvbdFpN2XCbTPq6y5P7a3Ea3tvUQeyPvnyT4l2Q1tVZ0gblHtJ/wtgj8LHkHM7va+ljm89iebPI7Jk6TIVhf7cgwGSO9ALtJol/RDzyBwfSziqrXQOvrLzlIVktNYYbXJ3vRlY9ZpDmVaKf31obxgWx3+0o8ZTet783b9Dcp27wHcmq2gkTZWlpbchd1GsLuDyOw01c51kJ6h5hUuItiCTpo66LrrTcmzE51Z1/gbSuHG3Ny1Gf9V9Hi6NrKzTYCvUq5WbrWlvMNkmSrduUzvdw76xmEmtO3bX9xGe481djLFGf3A98d03KRU8kq8AtsqJYSy2NA0n45KzS7sfXXPm+3h2Ty2x8Gb4lsUOFvBlX8pTGhUdezfUU5u851qQy1Ti7Jnmw7WZCeRYitg4reRSGZyRhpVZA+2uV4v3GlGXTUngKuFS+dQxGMm6z0NICwZV1ZczP6sSWjRbDDnfeUjS8t9DftVaslyMRRVkelqBUP8O35q5m7NFoF68Zo1R5m3Jp9HQ2L0wh0Crci0j79NNP3V6kdGzVDPeO1dN/wqxJdBbVQSP42ys+mDJXtxFlvOpJ5wZYwWhZXbmXsVaSuLJu95rFW3h0WlfK9JqnktuiRbeV7FVhB3RLc0vGzbm1+myKEWtiSdeWxn0yhkUluJNJbVFqwitKGCvfqXVVmXs2dfFX2m+zPBjL3ay2v/+Mp/lmzL3WKjEWHxlPMguPKWu9MPabdmO6slk1je7t6dMu13O7LW7mLA+3hJ/3elS19ltcuTQId7AhGjcXl4+NexFp3//+9+mTTz6h6+trs8m+HLttorvQw6vdlQSmDOhluHB0weRuh9UR75Fst/2aghIV66XbVEe7vXLX2AHKoidHRYO0LsQCk81NCG7RbFv7sax/GYRznRvyRqy6PlfKkPasn81ZGodkNKtYCUppXjT2Zny9mAut78MxrLVlufcINstDbsmrcBPL0q3hwgtKLkJT1uKuK+XZu8Vd2ayaRvf22DxMp1MWPMvUb1OckUK5tev7XPNymZzKwkYs0LeZ9ofHvYi0q6srevXqFb333ntmk305dqvo+BruiGE+51VhrV5oaplSk/X0/LUbbLVbxmKfArOk1p59OhmVVrfaWqJfL1EVOYORb9jKDaAnRp3/G6NeMsr3SILd87zcZrnnuNgYQ0jXAmnVJGnQZRrde9oduHKUwGntHKSWQS7TkTugrVU6rinGbS1GYgHV7VXHTPH9QxzcTDdG6mIvBcjLSnwxvb5kfS7Aai1x0epu3Y5bq5mAjNBpUafia9ZhESV8jFTVZdWEJnkwbXKmG9z2J+/STHBPBHtXW18qu3Qt/eTwCrD9pcaKU1vWKbVlo0MXFqXhvQWTBwlx2RbPxc0XwqX6sa7LWZbNavtr3u4l1hBCLedxxaTxoJ0+3emfguPBO7yvyXZEG4hrSSYgvcrz15vX2NV3gkuhZI7W8VmcmmjCPqQdZZLRK1EbFG8FXRJPk7kcopfVreAd1aD61aDLL+ZZNp2XWy73Amm6rLhpllamNg1aIMd6W8pN1RgtcDJ3B9dlSHYSzxbbf0Ovu0VbZVy7Mv1Gt1fdt0Jb4hV+HliekQeyh/botmXKsHF9LkJdGfBUYV7nMKMtitCsxHuxkJWHhOKiTcpC+i9PQLm7cTBaUKgKtn1I/vV3q1ZruXw64dXHec2nUR58EPthGnawfzJyf7vAdynnJOMxJiloJdO+5Vo6D3pcWQF1bs5AuaxNOtSioFw2zkLXhKIga3ZvmwffH2P56u/MF88Z2felnZtyOnN93o2XWsyV2p8Nd6kKr7xdWkSoSehKdj7nT/pkWgZPg8cl0op8lU4uJBjU/hUGzST4mSegUPvLPI1T/Y6YgPXk5IlPgWUon33pCS0L3+dF+bp6MjCujfwePPA1e+KvISHuxv2tsJ2YB5FbL/cCuRAWt+fctHrq01CtE3E51z1hthpq2wrfNcb0yaCWtwlxjyyQNimfcoOrT4NxNc5/jF+wrzioS8+sAPMaGtfnAswogyakYpE3FhvyyoT8ybddSbe8PkGf271e4h1ytm6kT2vhK69MqPZzmfDiOfZ1FsvGLDXLg9Q5N5tkcXHYuY5WV1OH3CacILZbjzbFtZ9Ys6R9S13rPMh7Qcr1vzBOTAv5AkK/S8z0A24f6TmHtHGZjR/BnezPkdeBNO2LUZDJd73wn3tvETBmQaAexuLylXE28dgEwSvfTwV0CXE/XnfjPblJG7drrB43Xqo6LLc/P0al7bBHhYcsDK4cXbt9isJM86Xnz5//3u0DAAAADwC7CJR3dKVCGIDHxROwpAEAAHhUuJi0W3lKHoA1AiINAADAmjKgUeWVIYXYNQAeKXB3AgAAWFPS2FaPvJYGbk7wFIBIAwAAAABYQ+DuBAAAAABYQyDSAAAAAADWEIg0AAAAAIA1BCINAAAAAGANgUgDAAAAAFhDINIAAAAAANYQiDQAAAAAgDXkiYm0AY38D7yGt1jLyxLdsQf/S663nRd1/TcjLk3wsED9gVtAfqS8wQ92P3hMPvGD3+BueWQiTU9CepsxIbnfgDO0t9Zo4lKCsrSVRoq1zcttM6usnsDksWoGo0I5FrY1m60GI05T5SeEIubzNZ9h5+UBAPC0eDQibf/kgieO6s+HzGV4RuOp259c0m3/FJxN5wqEQ7tnJspkzrnjvDxunPC7x0l9ZW3lIeGsFRdQ1mvJQxC6d8pTsSKCe+NRiDSZzA6DOpvS+dELevHCb0d07oVLkSHtbbtzb/nXemWAi+lcgOk5HYX8vKDTiTvOtHt6gLi7vKwtWVm9eLFNC//Enxl4e9R2f94HS7eVVdDfVeWn+8+ETnXZrrqNiQVPfjjb/fkU6e9yuW7vcU8GAIDHINJ4Qj0Ik5lMIvmkLMJl91FZlWQgj0KtRTsvsbIFAAAAHhv3ItI2Nzfp448/ps8++8xssi/HlmG/2wkr7+n56yXEWOlhAk811im19Gffda6acL4/2R3vBdMMC6tDOWd5M3n/9TkFA0eIP6vLSzUfMU6vYR5mkX/HbdFlpe+fxQeq+Cd/vnXzxevoz5bFuGn89XSedPwVHzfnaWuOcyvb72SB9+G7Nk+ldNfXcaFOVPnPaytJfmQr1VMWW3Zx0nEfrJb6tKQxoroOdVldnPxXe17MNLV2DtV3XFmV8ngjqjGslXaWt+1sjDD5SPpNTX2buih95tLg8mbKMruHkJdxLIr0+wFX9+lhe27MY7UN1haxu56pIt8nCrG+aTqrnwt5P2nSt811JXFZn7Pk+SjcN+sL+hybnrrv1PVfV+5mrPB9dMmyBWAG9yLSvve979EHH3xAGxsbZpN9ObYMnY3oHLl6u0IngemgVZdXu1czqLR26DB31fBgdmsdc/iWrtwuy156VjfOmcmjoeuuJg9zJ8fORvodh0y0tqz6dBksf23aUpcbbPmUTehsb2gG4xu5+SQPyeBoB9/+rnLbtbtu4OWB1AsDcZMu5L5rU0+JCkG3xYgM4NlAX9O2mmEH/+zWtp7U5G4mnuyk1k5v8ZjNmcxLi1ixT7lmLa2dl6YupE0G6/fklLb3fmP37xSZZA9p5+o0um+PzlWfYqSeuD9cnbrPxfVL3L4qIqpDBwdEx+acGvd6/5LLoUWdbvpN/7DP5LKu7Vkx0NtUbvzTiRmHbLcc0pkEomYPCu0/s4vetu5s5l5TGp9JAqXuerR5fuTyZq9bi3OBm1O4zux3tIfCCpWtS3ct4ybnPpKVle3fV9FtzmXOX2wk1GizSxdbl+m93fim83E64ftq0SX12NtMwmBmZbUZLrSE0z9VITbbpvIXLFsAZnAvIu399993e5HSsfnskxuLmCldj93ujVGTdxiQXtCRm+XDZJMxcYO5P08wg+Rwj7b5eOynvlMvES8VGNN1vE0t2tLo0ydb3ZgxDQNLnFyjqKkhiWGSLQqiVqdrBmlt+YsTx4CiRpMHHdTfOrYsnzyXggfVY58GnlBeDnh87zqhxPVxbOOATEyQGXgdvv5LAi6brMx3fZpduv39wuQsk0pQNWn85Km03zltZTDy4k7Fh/n7sEC1nu8BvQxqTN1jxRNFs7T0aTfct01dbkiDl34hwN8z5eomPJU+3w7tpMfXkGuvNAauQ6KpE3HEZb8bOiSLoy7njus43ta1oZA3B19n7NpPPXah4vuDx/RPbuuv67I2eMnCOrZPA/c3Kap21wqg4dmYy1wvfvapy8pvMuGTNp+F+9l7jclotP1nvLTzgs3B171JEUudJWV1ZjJMQZdy27dFqsQdl/kxDxZ1Y2pC64rOsgSatsTld6wG0v6ujF22rQlGsPp8O/q7txgCcwtlC54uj+LBgZUz2HKTDxNM+9rCU7BcqYF2uHcWBY4aJFeLnWQsV1RnRBy+jfJGVt/e2lIcpJLBrk+vg9hs0UYTT5mxEElZqadsWxucUkY/eepX/aGceRIyhaeEp7OIGWtBMnnOQYs7s1UnBAPXq6/P6fnxEmLZp7lKcPkoq2TLFWDqnk/v29+bN9ErEcsl13PtUt9nUxqmar/JPfqv5zxEswgN0yI4USGIdTWuf25xopyLbWvpgzcKZ3Wq1LGzYIe8Ger7n8YsVBKBZ8XUdHxWW+/G0jw5q7TPsSQ+61shTSbtE7p8fc33iyLJWHqv3tp7mXyI9avg5luKTJQIY74/38OPHXWC1I5RM7wBnuk115rGtsHJWd5vbN36PmeuL+PJXfkbV1624ClzLyLt008/dXuR0rH5DClqkIIr4dZoKFpuE7Nac1QGL4WaIA1O/JTiXpYlxJhU/F4at7I22FV/cHWGVa62dlmMsORrr2p8He4dZ0LFulkXJ5+YXYwKp3VmMShW6p53+IlpHdBpsdYNRWGyvlus9e50Yt10Um+Jy8248ONncSu4qWf1P40TU8GS7KxkFXETcJ4CtVD0WxoSYF2e3kpnxJBYps39/LjoBE2wHIp10rkk3TVvW8MYkejHH7017zCcU4UbA/0YEbfsVUw8BhoLbyjH2xZPd1+24PFyLyLt+9//Pn3yySd0fX1tNtmXY8vQj8FO3P8bmMwXJLr/0u2+TdfRZSQap34lLng3nHbDymB5MNOH6QZVwyxXsnatRbdXIgw9Ji7HsvlsEFzVSfqduy9xtzLt3moG1v2TgywuiwfSVYygZsJ1+8ENmgmTVVKxGLrtPhpmg7RE16ijQftblMS6VMEKnmnWkIOLmhuseVjBtwVjBVKu4myzbthFSePH6qxkEbcIVSEX6RYtkdZaJFYz5+o0YsyJNxHLxro6oTT0zQpVuZaMDbXxtivC1E9dW1km9MNZNXUYR7LpvhDGFS+eogVVextWx92WLXi83ItIu7q6olevXtF7771nNtmXY0uRuHCk8+WTuVg4FpzglZho7Ryk7pD9ExrduLPdxBLnAon9jMeDno7HyBErl593hnvbSbxVxerCE2dwxbj4EcsMd46y6MWna7UrTBNdqDGIXVuyBjQKFj4bhxTFXgN3yDw4TzpgPVybV9i1Oq2hu9oHanMpRBeZdps7bPyQJXW1cb2OStZN3VbUAxgVkaO+bwSGRS9cqgL1JjRMizAYhfY6PT8N/bXStxTLWASrsVmKJGi+QH/XLmJ8fTuX1aqt8zYUQtKYW7bKGGHT5NdD3IMJG13n6nSXNQKEv38i7XPGC65lbJD+cJuW2Cgk3YEb41zWxQqvQ8STLJ7yMbg6vsSHmm7GXZQteLw8gpg03+k80cRcNH03Io3HSlwehzvRzbggZsB1WBN93ePdGTwJRheBzs+EThu8+DJxB6iYodIEEc7V582KHXKrWcG/NmHWk4tapBjyiSPJqxajaeBvLdn3ZbMrWBYOBz5PNmA9eZjBBWEbVJ7C9eZY2+JqXLWXkhtHx8UlbYvrVTWsurai0xzLO/s+3yN4llV/WPXLcRulRYR3VGi8oOgrtzfnX0fgK3HJmTbXsnUnT8vxdedZPF2+q3Fm/H1pz4nVio8l17MWqOhSs2OA5Cu9bZ2YbooVt+0e9xEuj3kuXy/q8qckRfim6bLX3ew4V6c7asXbJnWCdc1RWWxa0ZhbGnMai8YSZkEtbT5bNC+98OWx31Z4xUo1GMV77J+M0vZgFk/KO+AE7s5BeWExk5KYn1e2LnZ3XnMGQHgkDw64p7+i2SVlxgqyjtzqFFk2hslesy6Ji2JN/MsGXlu3ZMUzxpPGaRAQFrnPbA8al31WTvKd2nwmAoLPnWNJEIzL+UZvYf+qfd2C0yjB4qfTImIsjJrVPM3FW2ICUsZld2dt21IxN7VthdO8rZ6e1egAanHjpemReil/b2nmpkXEVRTsIX3a+q0nWLneDTuIzbe81cELRtl6xJVRdQWHGCXZuH3I6zjUOaaeOD3JIofP27i8SVvkNDoT5LwwBYuLb5JXf4Q08Na9rgg8uW6rlYkx/v7lpMXHqyELm4mwtq+MmOfGDaLRfGfREATrArSvyPD35e1wgy6XHFOl30lf4gqP1+Ote63fmbmZtgfzOg7tXnX9XS/w5FUfjdpiFPPyPd+WlylbAEp86fnz5793++BJoiZSiRe59Z+k2Y+C6U7uBwAAADxMHoklDTwYVIB9M0sCAAAA8DSBSAN3Qnh3WBKfBIkGAAAA1AGRBu4euDkBAACAuSAmDQAAAABgDYElDQAAAABgDYFIAwAAAABYQyDSAAAAAADWEIg0AAAAAIA1BCINAAAAAGANgUgDAAAAAFhDINIAAAAAANYQiLQnRHjr/8UJuZ+0BgAAAMCa8vBF2v4JXYjwkG00cAcjQZi8uaCTdVImg5FLl95GVM3BqhjQlvtFJmp1qAuVBgAAAKw1sKTdOft0csGCzP+GZUKbeizWLm6sJgc0EtGXiNY+XU7c7nRMZ/hNJgAAAGCtgUi7U0SgHdJOy/05OaUXL17Y7eicpu5wa+eQCkbBZhjLYo/lXpX+rrsXfjcTAAAAWHsg0u6SwctUoO323R/McI+2T72pi6jdRdwYAAAA8JS5F5G2sbFBH3/8MX322Wdmk305dpfsn1xUYsJyN2PlnCzgXn8+GjgXo9l3J2QMQlAYa7RLJdA8/dd0HsxpPm7MuUfNtSVmLd7HbCpNJv7ucIe8DqR2z55jEpRfJyXG7sUtz0ea3/w71Zi/+mu6tOABBgAAAKCWexFpH374IX3wwQdGmMkm+3LsrhDxcBhMWiWsiKic09qhw5rg/nav7GKM7NOzTbdLEyppNKIhvb1yuyy1NjpuNyAxa9l9JE03EjtW9JVC5No9FlI1ilM+S7/Top0Dnw5bfsWwOwAAAAA04l5E2vvvv+/2IqVjt4N6ynF6TkcqJszro/2TA+eWnNL5kfv8xSlLK6FN3WJg/4RO3bW0FzPSoY1ZurApIY7tSFndduglaykTc6Zi28K55QQZBqMo+qbnR+7aLyh4Xtu9smUwlJ0vF8Zb//a71PF51XF34aJD2tvmvxEbBwAAANTyBGPSxnStxM2hd8EN92h3TyTDPnWDwmjRzqF31UUx06qauFizvKZ6KbQqWAgGwcVC5yzGsG0+W8aWlgrWY5N/S/91FHvtrapKm5x5gdWn11EtWuvf8G0QvNbl6lyh/d0aAQsAAACAnHsRaZ9++qnbi5SO3Q4sbo6VtYkxbr0QL9WAzWcV9+LV23k2ISUOWe4VdA+jXaJTuh673QdHn3bVQxBR7K7Zu+oAAACANeZeRNpHH31En3zyCV1fX5tN9uXYUmirTUU8adFzRUFHyZOUuauOaffyeLPowky2pdx0QzobR2lYsk4lbsIG7zLbj5lrIBLvmP6uLSvtfk3i1gAAAAAwi3sRaSLMXr16Re+9957ZZF+OLYd6SWtrhw6UqSbGlml35IBGIdC+T7ssJKLRZ5Oe7Wsx1aZeZl4bjJb/VYDh3nGMIxM3oL62vN8sPJk5pfPjkhDU8XADehkebKixuhUsfilp2Ulcm2fwMj4lWnwSdRaSF583I4h1/NwGVZ3FAAAAAMh5FDFp/d1oEZMXwfrXPcSnMyd0puKtfCyaPy88heisV8O9s2hh86+xyM9dCgmYV9Y7fW316ozJ6Tbp5Gpi/nTA/3E8X1sWfT5n+HF12Xm3b5LPyelycWRJuekX+F6yNMQrOAAAAIB5PJIHB3KLWMQ+sbjrrGj1mPOCG3PW9W76gIC99lEwLSncE5P1omhCp1miJN3biaLj6ycuxnnU53Vy+mLmk6GLsurrAQAAAI+ZLz1//vz3bh+sJWJ18pYoiZGbLzgBAAAA8PB5JJY0AAAAAIDHBUQaAAAAAMAaApEGAAAAALCGICYNAAAAAGANgSUNAAAAAGANgUgDAAAAAFhDINIAAAAAANYQiDQAAAAAgDUEIg0AAAAAYA2BSAMAAAAAWEMg0gAAAAAA1hCINPA0GYzozZs3Zrs42XcHAVgvBiNuoxcnhBYKwNMEIu3WGdDIiYHqdkFPQR+YiaaY/4cokGx9QtitinUrz306uSi31TejgTsHAADuBoi0e6VFO4e3OUE5gdh4cln0fLBW7J/QRVPhv8i5S7B/cnEHFiDbXm+luU5O6cWLF+m223cfAgDA3QCRdpdMz+nID/inE3eQpdrOS55uVoyZhHvUdn/OZdHzl2JK50dq0uNte2/oPgNPkz7toh0AAEARiLT7ov+azqdunzbp2bp4ewAAAACwFkCkFdjY2KCPP/6YPvvsM7PJvhy7G5zLMdlGBUtb/XkmBuxwh1r2RKJ2z35e4xdqdL6xtMk91LYqd1Zybe2C0/FBdcf9lpVRJb0NXHvuYYKF3WfmXvb6afxdtd6MGzB8zlulDPN6za8RXXzhXqP/ry0PU4fWhS7Hy250V3azzs3LTqfRf5YVks0Xl8F/tZ8f7nBrau3QobnGrLK3+dH3N/mS62fpqJzjLL/tnjunmKb4/XI/Whx77zxPrt6SNBTaaZbGtL3ckusWAPBggUgr8OGHH9IHH3xghJlssi/HVsrgJck8ZpiO6Uy8PUYklFyOberpAdxMXrftmoyYyU6LOI+ZhBuIn0AUBcmkNNyj7eD+5XNe2ozunxyEMpqcbpPxiJm8H8ayK1BOr7337U2C9vpbl96Ve0TnU643JXAkXYc7V3Qa3L18zpX7UHD1unl+5D5/QacTqfuquNjsXsR77f6/aG+b/z06p6lyKZddiMPZ50ob5LK7OrXHTRqJ69nnw9dVuxvrndN9wBVi6ug/8ef8vSMxEwf3vqu7RZCFwgHRsfk+b3zP1s5hqL/+rhw/JWk1E5/WEDNmxVFa1r4sF2mvZfq7UrexnQqDEfdHyW9Ig4g2bqdceiHEwaXXYtPY20xDIERwQqgBADwQaQXef/99txcpHVuYYFngreclFk+Ux3s8dfKgro+F2K04sLd7drLe73aCAAkTFG9e55gJzEzCDh8EXRP4PPN8NwG7D+KkF87nyepgBRa1/m5IvxUAA3oZFRrZpHMZKfGl8350fm0PqvROE7FjDvGlZ6SV0yDn1hTTXOR+8bsshs74pq0Odd0NOxucrsklxcvzObtS95bBS84bT/THStH0d6X+29TNlEXr6mzpdNbDwqHLbTCUt8BpPOa65rYbNImpq1jvJt3Jd1YBt7XtWDY+PKC91UDBmAWQtNVdVdaS7Kq4qsVbk9UWxZMrEz7HHOM21237fmwJok3nQeLvfCGZNKbf8X1gZhsFADwpINLuE2NpcFaGwVawjE3Pj5XloU+vQ/Bam2SOGr6N5hfj6nFWjv5uOimtglQQqusP90g0iEEJkdlo8Wk3PbFbQSKIVcpbCnmyDRNbLKNUSEhy9kzadHrF8uIn2KB/WxvUcburZUpjYw5VjK/5aIs23A3H16IyejVuyAFtiT4605O6MCb5WstfxDG9Hru9FbLfpY4Ih9eqYIXhW5IWt6kCJ01diXAbjbhsVR2tikTMCkMyzX7z2VwBMzAFmX9fGNLZ2Cg9s9iZiV+o1LRVaf/H3C/b3RGNDnaI1Zbqs7Yup+OzrC4jNo1nFQujaSO31kYBAA8NiLQCn376qduLlI4tTHD/uC1ZZS+AtjoJ3kJXiW96aPRpN8mYFNnrwmR7E5Fyfw9pDPe2g9vOiMck1usZp8yJbics7VZ27V69XarlzKazwZJSBHKehpJr3dZVu91Oxfu9s0/PpCDvgOHeMZ1zybT5/9r66euyvo5cGgvWOhPLBwAADoi0Ah999BF98skndH19bTbZl2PrhI3JcbE/HhZrBzcNuLlXtMvX0to5WDqGSLtD47ZEfNQqcS5V48Y24trFmzlrVTnNvK3aUlXCWP6q1k6/pTFutq6m0ylrjdUE5K8GZ3G7A0zMpJRY3u9cXdbj0liw1tltnUQvAOA+gUgrIMLs1atX9N5775lN9uXYrdK/dK4+ESb6vWkqNovPuOTRWwLQfXyMsc6oeLLcLWZo4CJKUOcPz8bh2kmsjInDcfv+wYcbYuJ4zB4LhdNCzFtSRjGIXBiMrFBI0puLh8FojYKy+7Rr6s1b9qxbs1HM1W1hxEWLOg181z7m6nj72D4gsT4F69zKJZfmPnU73JeKrtAF8Q9LnG2bBynSxcT8uqxPIwAARCDS1gbt6rNPc+auJu1WStxiOpheVJygV/PeHTprIq0738XeJMeTe2bBzzMpuNK8y48FlDeimZi8vo5580HrqTtUl0EwwOlYuaQcecusdBXM07W393SdF5IeGz93RdYr5h40KMSs5d+rZQGRVT7Xxj/mAljEzclICXRTV77esyB6h4mbbByruCxlMWTckCIcs6diByNxHa8ifo7L40A9LJE9SGHq0pVJ2ucGNHJ/D/fOeMHBacxDFGYuJOwToQ8/rAEA0BSItHXCuMLi05wReVJt3lOH+TneUtOU+vNza11AP/hwE0QcBQE1oTN3wf7reM92z706oa6Mptc8ZVuMK1iJuQCnN4+Jv1tS0WhfEaFcW5I3LmdWslFY8ta9LsflVYkiS75XfkDBUz7Xx82lsXGHtHHphLirq+ThFieMQx0J5mlML8pv/tqLMlHYmnQGdcPHt/0rN2I+7OsuGroSC/FiVhyJUKqKPdNWZRHj08Blsi3tNLlOj4wp3MD9zb/eRN+je33PbRQAsE586fnz5793+wAAAAAAYE2AJQ0AAAAAYA2BSAMAAAAAWEMg0gAAAAAA1hCINAAAAACANQQiDQAAAABgDYFIAwAAAABYQyDSAAAAAADWEIg0AAAAAIA1BCINAAAAAGANgUgDAAAAAFhDINIAAAAAANYQiLQHxP7JRfgh5vBb0jUscu7TQn4g2/+g9YhQNCUGNOLymf0D7QDcLoMR99EbDV62HWP8Aw8ZiLQ7xQ4aXjy9uThhyfCI2T+hC53fZHvgAmkwsvnADADmYMTGCvq6XXhhYQHAUwIi7S4ZbFHb7RpaHequiUqzE8AFwXjSjMFWm6bTKVF76+lOmkaE316bMW2yobhZ5Ny155bLFdwuj6otgnsHIu0OkYk9pUWdNVBpstI/3Gm5v26JySm9ePFCbbvUdx89PAa01Z7S+PiMJiy7t2DaADPo73J7396joft7WYZ72w+83wAAFgUi7c6Qid3uTc/PeXK3tDpdrLgeGPsnXWpPx3Q27NMlV2QbKg0AAMAtAJFWYGNjgz7++GP67LPPzCb7cuxGKFfn1ds9M7kbal2e1fi1jvukyiLnKlzMWC8Y+Fq0cyjXSF0tJqZGX5+3VYViJdfWF/UxX7OOuy0PcK+kd25i3cMEjVwU+9TttGg6PjOWkb5Rad2CayoGLVtXckxPnt7oHsnqsS7+KI/1y9Jde72acsjLa25x8ZVNeR3ucIvxbSbL16w0+s+yG9ly4rb3X+3nxrrb2qFDc40a95+71uxz83Jd7KGI+vJx183bjWuj/jzz/VIdqWvaz2eXq/2OahMm7zavaRrL7Sa/58XJwN5vRoWX0u7LvNjvkmvph3TcVrlX7CchD7XpideLp1TrtvT1NO/ltlQtn8JJlfvl9dGw3QLQEIi0Ah9++CF98MEHRpjJJvty7CZEV+eELvtucjcUXJ6ms/ey+LUd6pVckoucuzB2QIoiLtLu8QBUO5gWaPfUwMabG/j7u0d0PrWnRLHD9/U3nZ7T0a518JhBvJSYQE165d75RLMs+13qtKY0PnPOq/4l12i923qze0EHdBzdvKd89s5hYQLo0MGbLboM7mAplzb18glXBABP4len6jziCSHPn5kk1PWOzmnK5ZDe1056vU0u43DfU6Je1p4qDGlv212T/zs/st/d3nNlMi+Nwz3a5nJIxC234wNus5PTbdr7T/w5f+9IGobUv7kGHy/5C+Vas841gqlHm+dHLi28cbpZATVov4Xy4XRL27df7dOulAGX9ctwKdt2p3w/12wriBg43LmiU39NKZ8r+WROuRaxYm7rUl1L2k3WHqTv5Pccd3o0b5gw41S+kOxs8F3lsPYCWE/BRAY3wYxLh7RzpcMcTmlS0xeln4Q8FAtO6oKv15qYPNhTpL9ndSvtKkPqS/fB04mUWdqvKuXj2kjSX9xYq+93OlF9dF5bBGAJINIKvP/++24vUjrWnOjq5FHMxpSYyd2SuzwHL2UlbZHB3g4IPMC5Y5pFzq3gBpU4rvmJwQ4sg1GcrOO11fk84C6i08rwxHQsk5LAgyfPdsadaP7m9BzbWB6Z2IL4CgOgzevYHY7ptQO5+dxMeEwykea4ybFB3NB+t0Mt4+p0B7g27TxWdlu3rs7SSba/awbx1s7LZJKQShwf6XgjSZPUY5u6UcnQSZdzODlVAsCVXyV/UpfqelzXZ3k6By/tpJfk2wkP99fiNEwjl4OZLA/shG3acfKdVWDTIm03qYOSSCxhyie2QYNJt3w1Cs5jrs92z07U1hV+TsczZubOBle2HwcMXD67y8espYKQr2UrOgorFhfddtYe5DzTvuZQWISYh2YmE67PjWixN54CuwA1f7r6TAVXSdRapJ/U170WaCoP+89ok1tqWDAJXD+V63A6dP33X0v7VrGkpnzktLS/SL3qfmrylNVtfzfvowCsFoi0OyCKDhmb/TBgJ3dDslJVgi4ZEPr0WlZoCYucuyh11/aDnKVxPJYM2EFYZYLIDYgGFn7+IYbp+bFbhVoXoyWbNDmve+YklV4u7Z632BnXkWXz2U0H0gG95LR5V6enaG1wxPqODN+K2WSTkuQkws8zpmsultaGmwqdFe/8dXbN4VsyV9QXLFxvbC8WJlZj3U3EgsNdbykWSKOZ4GTCHo1YgPMEvFqFFtKSTOKeORZQwZbPWcUSkpfjcO/YWK+6nI+DHcraZxXz/YpVc1kK+Rtf89EWxWbDCwsu/beVRNn2NRu3CPEXM/2M7/n6kq8Yhc7+s01OyrVbMNm+WGr7NDyjsWQ/Gzem136pVWUwKgg0wbSpqlUsp5KOrC3ahdc5VZus7qcuT2d53WZ9FIAVA5FW4NNPP3V7kdKxZmiBIWOzEw+JW249nvK8T+xE5/4wTOgsnx0NpcmmGTceSF1cobgrg9tWNlOR1gp4qxg3k0xK6t5mm+eeLLFPMq+unIXS2Kfd0wm12+3UirEqnFtuOVz5iHsuyYeLOUqwlkLOiCi0ue4t85Qm5zu0o1W54mswlrsgoBbHxl26V81IH6g8NJPGaVoL12Jc1XVqLn/pXuX2we3Hu3dd3Sxj2Tflw4sFG0OmtjhAhzzp8dtuIiDtKQDcBhBpBT766CP65JNP6Pr62myyL8eWwqzm3f4MnvpTnvsnB9lgxwPvsr5UXhVHd6jabmipMZaVmmsbF/BC70xrLjaDlcFYSMRtVb2/bLNjl3KGZAwFq2ahNLr4rWl0F64Uk5ZlceWTW4DDpkXDPp2ICY3z0do5aBYo3t9117HWxMOaYP+1wJSjtZoZV6d+aGbzGe3nFsubWGJzuPwlPCDGAeaI29bWiT9vUQulsWzWjRk+pszlaRLiLLNt1VZgABwQaQVEmL169Yree+89s8m+HFsG62qw6Lguu8kq0H0Y3GXKBaFjN1xgdcoi5zYhukhklSpjsEFfmzGxGW6/6NJYFJ1eHpSN4BFCzNuQzsRHYsiCovm7IzMop+k9SAZqnkRHN7VWWHdH7ur0VOJcHCV3sBV7mWWj5C51Aj9YGZx7Z1VWV+t2KwjL/KXLi7BAGk0MobjSt627cGlRXsestJg81rhCHbXlk2EXGBM6295O4uya4WMAM/f3Cql1xzdcQHoX5eazE+vq9GUm4k2u293I4jTtuFQMhXD3XGTcEMvjbKFmkfNk7FjUYm7cmjXhCpEZeQLgFoFIu1XSWKrqhKDFh59MXOCvI5jXVWxVZJFz6zGTkcNewz42boNi9XG7BS8AC6rGC8iC28gOuNYKYdNr45KSmDcXoJ24Q43lwV2H8+pdK/p7qUvykHZm+l8kMJnPm+F2snGFMyb1mlgbybeeWPwDENXYlnxyH9BI6jGJlbGxhpK3dLJaToQO9+zLeNMnAa11qxFFEdQwjQOJQ/PxhdZdKE+f6u80mzwt5XOtO1XSUnlKTyx4c1yT5fJhOO0hnW6B4d1xPs4uXSSkDEap1awSM7ZiMc4dg/uOuKD1fXW/m4cdp1qdDm1qMWbaPKezs5ktXmJ9pk/Quja9yLjh8AIsEWphgeYZ2IXUjPi2IsXyYZLru7GW85Rb6vL6LLZF85Txcu5Y8LSBSLtN9Eq1GBgu49w4Cgvv8hRXSP6EnTP7V1jk3Br8AFhFYj70058RY/a/sYlfxFGM6ZievzYTHSfIPIloEEFmRjYeJLfd4+0Z0dIkT6sq66SiKooWwYntmjq0OMGdPTE4OT2i664XixLPRMYVWCk6cbecbai4mB61uR7zJ059PJMWzSJCNy6XyZ/Ur3e3+WvJazuiOJ9NFGTyXT95zU2jTFi5SHJ13u6p90qFyVO+P+d9U3Xnuv7BH8S0cCXI60Hmu4ddzJO8PiTkg7futRXOIvYqoqNOpGpY+Knr2Vc/aPdpuVyXR/pOGrv15s0B0XG5r5Qw41SL+0Amxox44+OVmDLTF7kdJYsz9/qKJccN+eUGL9S8+NvU9equv5jbX7Bji32dhr8Wb4cbdKmvVWpLvHWv3bjlWaTdAjCHLz1//vz3bh8AsDLsO5x49p1rNTDvzeqM6WgFPx0EQHPsIqkzXkbYAADuAljSAADgKZLHPAIA1g6INAAAeNQMaFSJt1w+PgwAcHdApAEAwKNmTNd5XN0N48MAAHcDYtIAAAAAANYQWNIAAAAAANYQiDQAAAAAgDUEIg0AAAAAYA2BSAMAAAAAWEMg0gAAAAAA1hCINAAAAACANQQiDQAAAABgDYFIAwAAAABYQyDSAAAAAADWEIg0AAAAAIA1BCINAAAAAGANgUgDAAAAAFhDINIAAAAAANYQiDQAAAAAgDUEIg0AAAAAYA2BSAMAAAAAWEMg0gAAAAAA1hCINAAAAACANQQiDQAAAABgDYFIAwAAAABYQyDSAAAAAADWEIg0AAAAAIA1BCINAAAAAGANgUgDd8CARm/e0BvZLk5o3x2tsk8nF+680cAdA7PYP7mw5cXb+heZbQcXJ/UtYJ0YjFxbfDPilFexZV/+bK3YP6GLNxf0QIodAKB42CLNDD5+IJ2xzRQGt0+cSDFQzmS/S52W229vrd3kFyft6vZQhEfA9Z1aYffEJ3ap697mOR29eEEvXuxS3x2777FEs27pAQCsHljSlsZZhx6dxece8zU8o/HU7U8uzcS4FE6APDjhBGqwbfLumuSAttpE0/EZDd2Rh8Fdl9NT427K1yzqIb6B42GLtOEebZuVrt1OJ+44Ten8KB5/sb232sHWiIAe8Tj+uLj3fA1pb9vV2e6SEm0wojeHO+QNcrdD1r542957WNM5WJz+Ltf1qseSG7Bu6QEArB5Y0gAAAAAA1pB7EWkbGxv08ccf02effWY22Zdjt40OsjabNimLBSZ8poOBnfvPHT+TOBBtqWn37GcL28DVdSUdzkUX0pBfL/9ctswkPjN/jP58NIj3l1uZ+Ja5+dJlEb+bk6ejedFkZWKOqYcJTL1kacjP60U7YGvn0JyTuD0blOPSNGxD8bjOW+nzalk2SqtLR/Nyb4LNg1wzT1OdWzmP4Sunp9qmdJuz17DW3Xav+nn1+2n5GZJ6qTnHYfNm75e3n6YxYE3Lx+LaQF44xTq055bSM7+cLGmd1JdDwPQXG5vY5Luz8l4sP9cf8zIy5xbSn1JtO/l1Kv2nkO5wr2xsqKT9Ru2wrv+ouE93/8MdHoVbO3SYfw6eJPci0j788EP64IMPjDCTTfbl2O1hBzfT+DWmI7jO1N+lo3MfENWmrusZg5F3/4mLa5cuzP6KkXTkLjoWSWEMkAF7pguvQf4y2j2fr4aYSaP6HRmw8sEsT8fC96qlTb08DZzHg4ajmBkcS+VoymmRwbBFO4d+kLWbqauGbcg4cs2AfEh5lUUWr9O7YLN7QQd0HF29pxNO0mE2Odq0x8B72U6JCu1g/6RLdOrP4e3onKbc9v31jEuPvyuRDBN/nneFmzLs0eb5Ufj+6UTaiCofabe9zcQ9HcMiqgz3tvkce7+pu+4irmzb/q84S+5+nB9uLBXxEBnSmQRiZg/K7D/bNP+2t9RR82DNlMZn1fTMLCeDbbNbl+6zF0d0PuWyarRAafbdeXnvX3LqWh3q6i91Nkx/bHW66lo2JnByOSPkwdV9e3Lq0mTvd+U+5hNc/1Hp4c22j0Jfl0XpAdGxP9e1az8G37gdOmS81P3ndCJl685z4TtmDJn6vrNNiKR42tyLSHv//ffdXqR0bFXsnxy4yVDHEtkOpyfT4d4xDz5mlzvoSxpw5+u6WWV6fmw6i+msMpHYw9Jj7fWWjaFy+I4fJ/k4QA9kxDLo9PNA6UakpvlLmYTBS5I+O1+8CvQWKjUo+rSaspIdVV76+jpPN8VPnDKIeuwA7+LZ1PFkkuW0HQTBE9MW88yD5UGTCWs2TdqQKU8lFsOgz9vR+bU5tlydOlgsyvk3bJJFWldnqWhxwjS0AWHwktPOZZzES/VpV7cvh4iiJJ08UZ1xJlsbHXegnsFLLkOezI5Vevq7UkaxfIzYmY5J65r+rhPKq8bV9eRUXZ/zc5yXT8bwbMzl0qaox/ap22nRZMIFsfkstMn9bofzm+ZlEaQ/xLLm/mIKOhNNNcz9bpO89y+5blrUUTeUsW3K+Zy2NijU+GCLS2NC9RqNBdgB172MRbrx8P12fVvwbdA9mevp74rA5L7+Mq+NrL32X5t+nIjkGpq0wwCnWfef/mvpE7ruAUh5AjFpdsCz2BWhtX7EVX2cEHjwOfYTCa+E/ESadcCVw9d/7UaS4d4Zd26HG6DH135qc+k3yztO664MKovkLzI9f918ojKDpsO7QXmLVp5NesYJNZOIO6IH6yRPN2JCZ74e3CBq0AN8DXVpk4Fd5htDwwmLSy+xzKSCqEEb0uXJg3Y6z+xx2par07ugZN0YvpXVgm0DgllUlJ7OHb5Vlg6NtXr4dmXWA0qclHHWlrM8cH5M0l18+Zi0ifUxmKVvDyuiYl/25OVTwT3VvOlPMBYzFimvr1m8xDbZ2eA2cfU2y29TCha4MV+f29f8pjT/u83y3idjTAs3lDrka7++5HYRhYoV1tdckzW4V/XMsrTVtkEuvZLlsnrukGzSV9MOPZU0uz4R6h6AjHsRaZ9++qnbi5SO3Rm6I7rVn6baAe8WbZ0xFOPFZlAYaK7erjJHTQb6J8QCbWh6XTsVzWbu5HFf7JPz1DXCxvocUmesXUXuw1nsP+OpX7pCFHd2y1zIYlUUC15YXNyeq9iIKOOOztKk4iTLWOHgXX5G8IhoMOLNW54auADvkaZ5Ny5PL5BksWIsg1a8WauVXaDMfP2JcZFOqb7rLNYGb0TTdgjAktyLSPvoo4/ok08+oevra7PJvhy7fZSbS2/azJ24xSzt3v3FAFmG4dUUyQTGE0+q0xrk74YEd2O2aWvQk2elbeiW6nTeCt5MhFfUXMv7c50FogmDEfXa1iq58CtMXPq1qzjZMjeYfVWPi6W6pWBsY/Ge6jg8vc2OLbIWP7GaOVenEWNOvMkKaK4L8H5pnHdjgbNWM+PqdGLMiDdZeMyIuwuYa8xigTZ4UxZphwAswb2INBFmr169ovfee89ssi/Hbgdn3jbwAJ1ZnwYjPXm6WAezz5NjUETV7wXuwKIxGMVJxcSOKaXGt18gfwug82ViSSytnYN0gmNBMnIHrGvD0u7G+K4YOH+3aFeDjfux6LT5WBrDDeJ9Ig3aUFKeMThZsPW1SJtdFud6SgK2I3XuolKMjjlXuafMhF36xQjt5q3FWozmY91JTWKGIrLYkVih27H8RqHlDiyCi9fa6DpXpyt4c00uyxMxDRXdd+tB47wH1+6JdXX6DifCS77f5cXBvH5ohFEa25ZT2wa5tZtQgpWV5TLtEIDmPIGYNO7TOiZKxVTJpq3xMVib+7DELem4p3Y3ihO3ejJ4E3+diFsJOi6Jt5BoO8g1zd9cavPVp9cxACxNy+GOMfcbkjix6PpYKA03Ra+yXVmYp8u0C1K7ZUIA/5TOj5tap7IykM096dasDfVpVwlt7SrxZXWjOjVP4ta98iJigpalLLIT5SlYY+HKA4yEzHprz+W8KneuTTuLy+TpP/XwicfFNSWB5EVBX5oIWXBJMCGnJ39yUovY/ZNRuqgwQnGWq+wGmLqWtpGJaLWQqceK5s2Oc3W6o1a8bVInWNdmcY+CoXHevWu3Q5tajHnXbmezwS892P5TeapYLxhNiAi3wcy9PRiJG5IXT0tZuJZvh4tQFrzuFR+3Os+AdeRJiDTTqV+UY118AL1MNiEQPgTAug5o0ANQ+Um1O8W4FrwbYX7+mlGfL/NqguJnKphfyms7T4e4s/xTiXeAuLZKBcHU5iEpy+X56iJtyDyBWSiXYJFaVZ3OwLgBOQ2ZCDzsjGvLY3J6RNddde4OGXdlOudJ2vm6Wgy/2aLLPL+urvz7yGST1zxU8xwnQnOen6hcvBkXavi+bN1rXT6b/HH8zL6O4+Z1Xca3fxEH6p6HG3TZ4Ibi8mu1cjEm4q3Fx5sIy5pyuhOa591YtTmfvMLkb3mceOPjjeJlS3V/2KHrqPqK6bGvhUmf+GzOTdrhAgTBK9fBe9KeOl96/vz5790+AADUICv5nnmnGcJsAADgbngiljQAAAAAgIcFRBoAAAAAwBoCkQYAAAAAsIYgJg0AAAAAYA2BJQ0AAAAAYA2BSAMAAAAAWEMg0gAAAAAA1hCINAAAAACANQQiDQAAAABgDYFIAwAAAABYQyDSAAAAAADWEIi0B4X8fqL7Ad+LE5r9u7v7dHLhf+zX/zD8TVnk/k8L+YF+/8PKd/q71jdkVel+qPl/Stg6WtVY8MjZP6EL/Lg5WAMetkgzHcmJhlnbGgkKPZnJhgltcQYjVbfZdrHOo6pur5U2qUV1NR8QQXeBrwNMzo8VM3Zggbn+uLGyyVj32OsUlrSlcValhWbMfep2Wm7f0t56xDOu62hrLZzukuFbunK71OpQNymWDm2optHa6Lg9Syd8OKXrsdsFAStibyiu9rvUaU1pOm1RJ60cELDj3q0tFO7cgnXL+VmKdUzT/WP6+BMU2A9bpA33aPvFC3rhttOJO84T2flRPP5ie4+G7pOVYAaSHrXdn40xk4Db97S3Hqf7YTCiN4c7lGd3tWT1zNv23kpresX06TK00RYlOmywlbanpF3s07NNtzsd09k6Z/EekJX04c7NW9p+t0OtyRkdj6esobuwtjxC+ru3MB+A1ePm9t2++3sGj71OYUm7Q8wkYPYmdH4+NXs8G9NjNqaBlH5UabT5LMqAwVYu+TcpfqysbFdvMcHcCgN6yUJvctmn4dmYphVLJwAA3D33ItI2Njbo448/ps8++8xssi/Hbps8HiwxnYrlJ3ymg2tVsDwfPxP/t7YQtXv2s7m2aeXqnF7TmUwE9q9al+dC8WtJ+sXFmLrLUnSe6q+90P0DLq6nF0VHa+fQfD9xe+r4LL+typTdsC7j8TQerPo5U0nvki6Z8XWo9+jSjJay6WTiPlcuN2VlExERqdZjJd1J3vizUDb5eYqk/GI+S7GAdW0iPbd0r2ZtcGa5u89iU2vRzqE6x+WjUbs1ZTwhU7zDMxpP+Vovq1+MLpc8/Xke7edy77wf1bn/8/JN0113vZp2mJcbp7k0IuRpm9UHbfqsB6Hdc+cniZxVJu6z/Pqhjlw7NWOrr8e6snLn5hVbrG97rr+OyYNLw/z8WOa35UI5Vs6rSTOzTJpyZt+//t58Qz43bUNpfvPydJ/LwTBOuHkxr1vXBvM6DN9nTLrle6G9urS4v81pbt9Yy1s7dKjPY3T5CeGavs35rZR/pppf+726fnrX3ItI+/DDD+mDDz4wwkw22Zdjt4dtpBWXiKlw15j7u3SkrFtdV0GDkXdrimttly7M/hIoV+d0fEZDMxHYv0suT2k4eXrbvbKL1TRKJYqE1k6Pih4g07Gq15EBQTfKRe6/KCa9JVeoqY+aSadIHMxjB+PDDevSyB0zAByWy8pRTq+9d02/r6dU76FtTGn8+nX43Iu4/ejrjPFoNfUo+e35cqjAn2XtpAoPUOEcKadt2hva/jP3qw5pS+m5fF89gDdsgyst9zkYS+bk0rYJGtKZVEJtKEKHDt5s0WVwsx/R+VTKvTqBb3Yv6ICOo0v+dGIWLekE4Mp385yO1HlSHnk+5Zi+3ulEyiO7r5Qvl9vVqbsWb0fjDvWyRi7le7hzRafuHJOPEDRZxbiVXpyylOWi8tf2/ijTj3q0eX7kriVp02XSp92jc5pyH4/a17a1KX9ntz+kvW3+npxj2p29Rjl8oVw/vp8ki14XZzguxAjMzI/BtrWtS/eZr+dEjPi5RZejz/siY5llfppymty/vj2bdh9CKJq3Q27YdLF16e63S13xEOTW586G6btp6MCAbFfTeeL+dEB0bK4l44077HGuTzOmT33aCudpzFyi+qi0q3Zvfr/jsudBsjCu3h/3ItLef/99txcpHVsV+ycHbhLWMUy2I3DLDZP4cO+YO6HZ5Tp+SQMeeLqutqbnx6ZRmE5kBhLH5NReb47zPLo6/YDhOo4hc3mq+/INQueLwkNj3TQWlb8YoKdQE7BPt7quybPsLHT/HDfYqvvLICzfNwMuX/sgpDdeO5YpD4wHehBcjiZ1acpDiYAwKJq8XtuDKr0+H7L57LW7i6Z1SG/DROhcmm4wI7qit0P1uRtUw0MDYTDNhZRPt2/T/NVeVTAYQr07kZoRhayc6gZCHUup2k25jTFhII3piQN48zY4t9zd4B2T4cvCpZvFunxnflxLdeIwLs+8X3o4WWMv8g3S5iWvcSzxtK7OUqHhFhAhn8LgJY9PnPZjFVfD50m+Ku2Ly0xfr/9a+o1OJ0883NCt8HGHmOHetioni2lXQZgKnI/d5WJ7Bi+5H3G9H+u07WZlwvV1zHn3bXP/pEvt7DtNqdaP9VRMJpzJzWehzMy4e4M4zrQcuXzO+PpajJi6k3Es7U/9XRF0PJYVrLErpeH9y+3ZtfszV+eLtMPWFZ3pBta/5LpOH7gRAWg8A62NaMXVFmuP9Cd9z5UgY4EqE257tuqUYPRll8SzucWE+2sdeAIxafqJSrsyslaXOBlFtxN3wmNfQbwS8RP4kgNJRAkpNWDYjmPRq78o6GRMjg1tuHcWJz2PcoVF8cH0XweREtDB6d5Ny1u0mFnRsND9F6Tu2r4TGRrHA2mBYrdkQJ1Xl7o8ePJLJ7U9kzadXu+2lS1oJD0ANSTGpdmHB0I8mpsw4+dSH8oVKhZY2amrc/7261DpJYHB5fVaZTLnmRLnujz0U6mm3bgVOg/gusw8YdDn9KgQPMsSbXBV5V6HEQv5xOEsnsVQhOKkP6ZrPj9/Kje1GFiGRoXHmENrxTtT9WgZ2wsm+axcz9VNiG+cYTky11OYvyvWhWXIJvtAtUzs4omF22jEIpxSQbAIrn7SfHMdvr5O4gmNEF06jrNQjiZcIT70k1pgNfOssauh8f3d+JqILdMXY7tfpB1KyE76kLnt67GupU2IZ+CS22cci4y1s/JdWZy63VVR6KN5Pkx+K2lh9Hi3BtyLSPv000/dXqR07M5QKy9pzLLa01QHnwXRE1PwqfOmXTm33JmbkT1x+NBZoC6nS7/XIk62jVFxaZssjGSsEEIawudSH/Ghgasbj2SzB8P2jrIqJmKAV5eJGcYvdhZ358ynaRtcotyL+EWcuIdcvzSbc4G3u7eQR40T4Uqw+q0SntGEYJWdj1jXxBoaRHDixluA/WdcG5KFNP2hDBPs4ona3OiTBcaiWBHiLSNG1ItYcfGE1qJTcq2tEvXU9b2w2P3N4i8IWGtxjQJvwXZYEL7m+n4ekznPCCUr3uxix/a1sNj0lITSrePy+wAexLoXkfbRRx/RJ598QtfX12aTfTl2+yj3mt60uTNxx1lqXUcNMYp9LiXLx+2hXUh6K1lGHiwrrkvtDo3bnNiIEiourcUizI6zatWuPm93u+7zzNJzC0xOZ7hLneswcfWLWLuBa7ppG1xZuZdwrtziPUxeF3tnWnOx7wWzc29rN3KypW6suagFQCN8vYprWsfoLoKzPJTribekQlkciAltKi7fgxsJYGORNKLDuTpNB3HiTZR+ZilaPTp0YR6LnNuUBa+pXZLO4hot6ytoh6bt2XlM5jwvxox4E0PIDCsvqOdeRJoIs1evXtF7771nNtmXY7dDGvvVyyIgByM9KNkBxE7rLOiC9aD6vYC2whWxqzlLQSQqC4V3rVh3iEWbp3W8UEANyjrOJcbhKUwntVQGSBY0I3dgofs3IHF3aBevNr3z/YOr7QYxJJEGdZmUx2ESHOvbRZLeXLgMRksGsKvBtSXPsgnaylX4XK82k3Sr2Cbei/GJy0xO2mKmyonr5sLvDyUOTOJd7J8VN8g8mrbBpcp9cUuwdavWlJVzEVXemVZyxzuxl1s7S+7S3M1i3Y4rsqQbwVQSljrso4SPxVnGQmndmkXXcIYdlyZ0ti0xcjcT+bYtcZ3zQsa4Ol0dmvGLy/NETCVFV+DqqK87V975/SvzhZ4fFmex+9twCGnPA2n32Th743YYXNDiHVBiTOYo6TPdjRvFB66WGe5o7flaA55ATJqMtSqWKjPnhhgXRgsbEy+l47q020P7rL37sm621hVeGjDUpBUajL6vco/qtAbcRGKJLpuyq0THLOn4PN4Od5zFhlnk/nXoFb0rcxP7ol2QRddvFrg6kywPsjmXTbO6TN142l0T8lpTvmZbqEBSYtyZI2sb+eepiyATUyFNOuh/QQuMJyknFa+U9Bvlxlp4EmzYBhcodzO5OGwdOjeseYp01pOgTtTOyEPqIvLk4sI9gDI9p0rIH5ebvr88USnJ1253Oz5xHnN341KLADcRZ4uO0qItXaDyOUawzosPKgkyF1Cv24sjuYezbPu2aR4s4DHgQH+nVmSWsK60zY5zdbqjdkzdpE6wrs2iucAs4WPs8id7ByPpI7w4VFZE25bS/JYXvs3TtMj9BbP44TTIk7556MfN26F3QXdoU4sx74LubFZdnQsQLafuwA0p51c/lOXhYzLuLN4ZV8KTEGnSmXdf6KfAItPz16Zz28fR3SgWBls3+BhkQvEdwa8656NdneUBQwdXe5cn33c7T68EyUd3lEaeOM2fvJycKmuHwsShFNPOq9vgP1rs/kV4kt0uFThTmwYu96MVuLG+ukhdGndPIV/K0mGe6C03nuqk3JTMLVVxk2WfV+LR6tLNR8Rau7zbmsspPHAhcwpP9v/O/ZFh3FtL3KhZG2xe7qUnFxvhFlAzJ3JnrUme0pN2erYRFxgijsVNVHjrufTD664/TxZPZB52SYtNxifur6QWLbJ1r5dqX1IeMh7oRYe8tqP6dLZM7vEc+xqHeeLe9SMv2v3EJe2R65Q7VriebN1rO76KQLsQIZs8oFMSlPGYfH/eQw0ifFqtXIzJmNri401+Qq0mP43xY2Valva1DllZchnZJ3tjGcnrPaptd5E0LXB/IYRSlKzHN2+HVgTy2JuIMSfe+PiN4mrNAtIv7FYRDyv5tQuFmF95bccC89wd8KXnz5//3u0DAACYgVnMdcZ0NPdnaGT13SNWPY8rzhOAR8969d0nYkkDAAAAAJiDsbA3scLeDRBpAAAAAHha6AeiPHKsJy+DvsnrYVYLRBoAAAAAnhbykIqP+/Pbof05tfLPkd0PiEkDAAAAAFhDYEkDAAAAAFhDINIAAAAAANYQiDQAAAAAgDUEIg0AAAAAYA2BSAMAAAAAWEMg0gAAAAAA1hCINAAAAACANQQi7VbYp5ML/4I8/6PsD4FVpfuh5v8OGYxc+cz/Eem7Y83qTd7+rcvI/b3wb2CvEyYPq/hxaNAY09dQ5uBh8ghEmvwYqp9Y8m3NO6aaqN9UZp40X/nHg5H/DIPPjZgpliA2G6Pbst6WVVQiZtzbv1+8WK83gAMAwF0BS9p9Mr6mqdul9lYqAvaf0abbFTafaQGxT8/Ch1f0FvNXBStiH7ewWr88Tun8yIoqu53SRH525eKEW+xi7Hc71KIJXfbdgVvGlOWDNtEBAB4jj0ukTc/pKEwQsm2vzY+kFhme0TiotE3SOsxOUpFWp6smug5t+A8nl3RH89gDwVq/em3356PkoeSxT7unE2m81F1UpQEAAIAl7X4Z0llQaS3a6LhdnoS7HS3RmNYGSzOHsrJNr8duD4A1RFuLAQAALMS9iLSNjQ36+OOP6bPPPjOb7Mux2yLGb2UujdqYsEKcW+aySa4p25KukuHbK7enXZrRUjaZTOwOtWnL3SJa2aY0PlOmQhVoHbaKq0nljT8bnFzUnBdJ8hrOK8UC1rnesnNLZVVJeznWbt+n12863aY+D2kn6Ns29cx5q3UJ6jRIVtK2UEq3jm2TrWE5+a3SZufnsVH7zOLILk7CMkDh0j6jfcyks8FtNXfJ5/nUabefHZoMNqu/vE2UH8TI64A3W3lm31glxTVrPov3m9neaqm5V0ZaR4U8ZvUjW3oZW1ZyLE1nTZxq3sc4L7b/V++dt59q8qtttZDFSHhgIisb96X56S/0jeINZ7WtlGbtBoD75V5E2ocffkgffPCBEWayyb4cuzGtHTpUnc530P7uEZ375Xy76wYA7szeXyRu0l3nNDQDY4+nhzrsIFBxNS0Ze0P9S/IyLLg0B1vu/hO63I2fexHXCb7OOPmZAedwJ3GRGkyZ1Aza/FkvzvZluDxCXqWctvdoaAbcWWWkkYk2O5fLSg+I5bS3aOdQD/x2cLeTt8Lkr34gvm3avbwtSLp1eUt70aJK4DKpNCAmi0MMSNuaOQNqmrVPU+bZSa2dXpbOGyLthO8xPX8dXfKu7WyeH4WwhNOJtBFfh33a5WNHpsNO6NScs1vr0hcxcbhz5c7j7eicuAKyCdfVAelwiFPbr/q7Lg28Pzl1n9n7SRkl137B40hcU9Uw414B27a3LtV1p1wGyfjB7b1L6t62TNq9al+WNnhAx+G804lcP+sTMq6pBzHM9cadQv+3/ay3qdLPhSP3iE1Q8pjWoZwzH0nXAdGx+o6MBRdczhtn4Vql9O/bwoj343qeZuNIqW1x0Rf7WrN2A8D9cy8i7f3333d7kdKx1TGkvWPu1GafB4CXA9Ppbded0vkxCw/ZdZOKJQ2CPnVexcHICw4/gdgObq7NgoEvvSBjuvYC0rk09/1TAdNr/jR+bkWcemjAx6Nxug/CYFtIl+T5oCwgp35AE/HljkV4MA7lwdd15+h4uYkaOOvG6XAPdUIQpCrt4Tx1rXbXpnv/5MAJCF0vfvJrU1cGVzPhKkEeyqJ+kr85sbytsBBsGxNiO2OCCNBpVAz3aNtdy2+hyPyDJXPy2Kx9DuhlaC+qPIsVyH1nmz8rto8cmVzVIsnMx+mTmYOXLMZZ7B+rY/1dqUdXh4vAbafLmZ2cqvrlMjzmwmntvAyTvCkTv8Bwx4wY9AuzGsxiKIn55LLYnV0OTe8lbT0e4uuecdknsXtS7mm7He6dcTnpsAgHtytdxv3XUt/R8s4FxYJPxLK+p1xvu9pnBy+5n6kxUeA2J+f5vmgXE5kVn8+ZU5yG6flxjBPuvzbtuNVisaS+XE2/TWtyfa5nU2SqMEzbyspC0hX7paNhuwFgHXjkDw5UO6GBV2DeIqMHDS0+ksGE6e/JoDWgrTDjelcMb8oKlD6F2QQdlyYPD8R4tOn4jD9VnxsRp1yh7tG3VDSleZaBzFAM3p7Qmc5kxjMlMPR1tYtWVtjeQtPfTScVi7qHshp6dNpbvJL1E3zQhibPOkZPC4FoodOD9V2SlIuZRB2bzzjVOt0smsIs4yblOmSxkJdD9mBJmYbtM1hqy5Pm8mSCj0XhQSK8bPomZ7nQsQuRRevQtB3u86+zRmfbpy8ve0/blxZjLInKrTUzaXqvTOAIJnavIMBUW/DtPR9j/DgQGL4lUwL+vP0uSTO8KjwGbvKoGNgKqjxwZc7zcbHm+tIPF7Vg5/kekqkqsxhtQuoqNX3D9DPBta3C48B6vBKatRsA1oN7EWmffvqp24uUjq2a4d5xNgnVi5TSgNaEZcRCHER4kO7aAVXwaYif8wAy8C6xKd34mYGZg2ObdpR1Lhn73Mo6YFyOPHAu4+6dS8NBMwzWDxgfg1RyW6+IOxOzzoLR2jmI7jnnzjXC3k20dsvdwc0wli7f9vQWlW245zL9Waw3IjbD4mFe+77BvapYt/Wbww6NK5bjBTFxgU3GC2elF9e4Lk/e0jADcUk7F637vLE3fklsjNwhdcZVa7uhLlSgQKN2A8CacC8i7aOPPqJPPvmErq+vzSb7cuy2iS4zDw8yy44uFaud25rY/HOUhWmz4y1LShiFz1vU8Zan6ZjyxfhqmdBpGAWr5dTftflNXAkVy8liaNdp3PLXqCg3nt4aueMKqKcPqwJGveqkyWpfTxRXbxdMj3VJWaJFquKqacoq2+eSePecd/1aC0xdPfO2YNqMdacun77duHsuDYtNez0WSGZin2E9uum9FMFteqevEXKWreCWzzdtKXducD4ubVSE963Fc5m4WNsnal9qvEDZN2o3AKwJ9yLSRJi9evWK3nvvPbPJvhy7VVTskwxCUX/0wipweDYOE3YaoMsT6EhW0X269N+rCBJ/zjKouLOWS2MiCgqfKxGQpNvHjQgu9sKwjKjTFjNVThJQHcpMrA0h9q0kdGaTlnk12NneR7uEq4JxMKqbOBtY4fS76lQehRjfxU2m4qKz6PI2MTFu374axU16Bh1zpWP9PPrdd97dVHgVSwWdx4btUwtTFYNTXcTcFPeetFCuth23dbDRDTAW5rnvYFvVPTkvpp3PalOrzV8F5aZeCLPIkwVenvBq+7Iu3uzF2nPwsW13ZqU1WPdmpL7sjQtX0azdALAePK6YtIIJ267ueII68BOojQ2ywamWMNHquDWxAITYp0PacSYS/T0dQ6XPWRwtQixpXEv18yT2Qqdbl0Fwm2WBwAuQlJMSronLSrnnSjEhM9FxcyLA/DVlU0ImiffK3DGp3tHCyNfhrNiZoXqoJM1XuC6vuvP4lYAqb32+D4wvt5co/iJRiMf81bkB6/PYqH3WlHnlyVkD9x2JA1rWle3i3Gwfc7F4nL/c6lIvtGdgrl2IjeLFyShc39WvlGki7lkoq79L4iRPk42fnPULH83u1QQbA6aFREnYN6VPr7kSpD3oZJREue1n3Cby+g4LJiYpX8HF4t3WOxtdvJ4WmXoBZalpW8YK5/Y9jdrNDds9ACvicYm0Il/lzhYnu/A6gCSonidaNwLllqGAt1zx97Zrns6rs7Y0IcadWfK4lvTzanxJbbpv6jLRAtAIghH9O/dXinVDLuXtFddpMNkpEnEkcTDlJ0iTVzwwyStXmjCrTsU1N8OVOjnN4oSkvPX55tqFcyoZ4UlmOz1Pnsarc3fW5rFh+5Qyz689OV2w3BrhJk9v2RP3IbdTbkhKQL6h7nVah82QMpM2kYn7ww261A3e10EQv7L1SAdaBnFiPvOTd3pd+8qG0sMxigb3aoK1TnkBLtsWXS4bk8bI9bxb0qdLXttRbV8u3oyyBW/3OlmobCb1Z197cWu/ryplyv1FLzrk9SWVLiRtKzvvzdZlYWxp2G4AWAO+9Pz589+7fQBAA+z7s6zqFxF3h2FeAKwU05Y74+yVIQCAdeEJWNIAAABUcTFpCz/kAgC4KyDSAADgkTMYVX+pYDCSMBD9/j4AwLoBkQYAAI+c8bWEAar4K97sTz/NibEDANwriEkDAAAAAFhDYEkDAAAAAFhDINIAAAAAANYQiDQAAAAAgDUEIg0AAAAAYA2BSAMAAAAAWEMg0gAAAAAA1hCINAAAAACANQQiDSzEYORehnlxQtkLzJ8Gg1F4GehF/gr3e2OfTi78S0r9j4M/BAY0cmV5s/a0quuAh4/rC6P16AXy26gPq0+CdePhi7T9E7rwA3ShYwZR8ab6syj3i5pY9HaHk0wsmzdUHNN02Zp0DWir7T5rdah7n+U5Uyw9VNFyu8ysb1We1TKDCLoTfH9DGQMAHLCk3QN2suyR1zv3Rf9y4vaI2ltVKbPf7VDL7U/HZzSkPoWvTMd0hl9lXgpb/3cvHsfXU7dXre/9Z5tuT9ikZ1ol7D/jIw78GHcBJ2JvaL0x/W06pel9L4CeKKZfrokF7i4wVr47WBA8tXJdNRBpd4w02F5QZxM6ffGCXoTtlI/cIf3LeL/NZ1ln3aduJ0g0GjtF1t91ad3ew2S9MNbCF+v/bhmejbkmHUl967oWWtTRKqGzEcT65BK/9JhgrF+rWHDZOpicHdN4mpU/AODJApF2lwxGcYKeln7cuE+7dyp+lGWssnrv0EY0o8Fq9hgYnrEAcPutDa5hx36XEo3GtDbCp8rKNqXrsdsFq2XwknZaE7rsD+mMK6nV6SoRDQB4qtyLSNvY2KCPP/6YPvvsM7PJvhy7S2xAp7id4pbHNlXOyUzD+vPRIMbt1Fl2ByGgi3jFPE+M1cSsZRdP02AtdfH8+XF40eWZrd4HW8E6YF2dwuxYr/TevKm0xs/098qxTjFPq40jXLysdH5lq3NRNqgrE/N1yBOx+5tLt2fOS685qwwDSfyYtNsoqGYzpLdXble7NIOlbEIT3xzaWy5dysqWi3Uds+i3ivskreOBr4NaN0tW5iH/pTKuqY8sXcUHPCppL7e1WWOAqavDnWBlpHbPnuPSbL/brA2bsWFyaRZtxuLZ2qGXxcwxWf1X75G3W96ydpS3s0ozq9wjLetZ5VLF1l1t7Ki6ubmuuVZe3+W6ztNR1xcq6dVl5vJqFtC+Dufkt1Gb4nw07ZmGufVa7QOVdJg02O+ldazy49J5KIMRt7ND83l6r3n5ra0n3ZAalCuYz72ItA8//JA++OADI8xkk305dldI4zUNtBY7eFTOMQ263MjavXkuj32KYT8NLBI6Dkgjjb0yolravdyV1qKdg1mDJ6Ncnnr1HgVldHXWYztqxY0naXWDd4yHalMIh1JCUFvyOt6Ed4sWvGJZHeqBSvKkRZXAwqqSSWaJuqoyvwwFMzhmJ7V2elk66ymJ8lDXLBJ2w+dexCmLqopHM+nQAsVj+kg+uTj4s96chO6fHMS8TE7pxS7LFjOpNHQpyv2zdLV2DhMRUk671L8WK4uPActjH8gJrmRn8SzGibr6n5zGMImj86C8GdduSSz1/hwdRmHz1dtUn59OTH8IeZfJtbdJ50f++y+ITwlIGg53rlSoxhElSbgxHTp4s0WX+vpTWdSk5W7H8TQd406pLwzoZWesykPyI/Xtrtffdcd4X9qcOSd6OSr3OTon/nIqXKTMuE1d6XoZd+a2d8/cejWCp0eb50fhc5+O6hhj2/LWpb+WKz8/jgz3aNtcnxuZ8ejIOdu05zp3o/wKpi+oeuLzpjxehfPmlCtoxr2ItPfff9/tRUrHbgf1hGJooLaB+S4RJ4qpGqj8QNembnEGivFlMq9UUZMd3+ntPPHhOpK9t93CQBmsHBkhP2pQnhuErF2e3gWmBGUDoTQY+QlUxdhJh5VD3JHFIqDjoTadCScNVm+R9bDFe0cL3m0Q02oGKwMPbs58sX/SjaIgDDAy2LljmiZ1ZQYs/X1/fztoNSlDabsvw6Cv2qaeQecxvg71YF2aqrxl5RA+dyJOCdAgIlg0HYR0FNIr5VizOJj6Sabk1tfXlbbsOpJ+gEVPYnXZ9ufEelWCR90jpEVdq9216W4yBpj4zJBnxrcTl+7h3jb/HSe/WsxiRVyd7m8uGXF5Vvq5S7vkT48xw71dNcFyO5KyS8q3T7v+C8atynk6Vp9z25T8h7xLg8j6fX83Tq5mEeWsfpYh7e2uMEyDLz8+0pM5X39byl6NvVwW3bbUTem8nGoYSf+11Fv2gEwJcx+pWnUf7u/H3LZaOy9d/bDw5ZOkPaX1sl3bRhPm1mu8/rZuTDLu2IqrLIrStHC5nPF5TR5IaZRfT1b+fJ69DVz1q+QJxqSNKRh1zErArSC5ge2aDqCDqO2KxJpp40pex+t4puev1WCxQrjTeBN6NKCUB5foQu3T6zBBefFTT7SuOCuXilGaL5SU6OXvWxceb8pSYUSZiofy4sCWc3Sx2YnUi9kmFrzl0YPQcO8sDuwmoF63ARYhYbRzg10dC9RVSsMy1C7o8+M4+fdfl8VjCR2XJnkNde3KO68n5QoNGi0RTdVB2lCcECZ0pieZjO5Ln99URAyjj9ZYfLxlUQuHAAuU1+5g8qCEQ6ddLGy2b6v6MguV5caA5bATcCp6fNqV1ZmxaddiLse2o1l91rpVzyrC0Vi63SLNlLeMjRULjcWcqy0mq6a4MLTjti93+yRs/XlFjDXK1aXpW/PHRnuf2KY8tk26vm36UHm80k9U1zG3Xmdc33pC8gdNCueaxdeK8usplL9uR2A13ItI+/TTT91epHTsduCJ9litfhkz8HPHrRmTqlSehBRPUKEDJejBIx18i/gBpeKWuQWUy1OEkh00hNUIJTuwqngoYyFwYmx6TZe+YIxo8JabBtbGdeEO6mp1okDVAw+m3VDXvrzV51wfg2hm4xZ8Q2Zdg0XBjldA+eDvLD0Bt7jSbuDV0URUM4UxYCm8SBa3tuTJb64teeuWYCxYs8rQ9Z36schZTfN78Za4dcXqKxbCcF7qZjQWQq6QIHJvpR5mE0IimuAXTz0qWH1nY+7j25ve4ipMLWSWY2693vD6i9Aov+BOuReR9tFHH9Enn3xC19fXZpN9ObYUw7fBTVkdOHUcmJr0xUycuC8s7V4ea6JcOXpb6glM58Jw6MG3iltdG6K7RbtvVotyeW5u0UtvRSiuVGcgbpa8rGRzlqhoseOJ8MRahWTV3/cWDy0aMstChYrbTqOfTG0gLnRM2cLvAVtxXc0pw1Wg66Hj61qVd/hcrGHu89t1PTOc71NfZjxJHGRWGv/ql6RcC+ctgnadxi13T65yDKjirSile5i8KovkXKuMHguLOAEe3Pf5llpF7Rjp48GyOEMXb2TGUDOpz4rTm2HdWhDjkmeaWKgs3D8PWPCaPBcsr3Mw96nrk76tqLFoGebm5YbXX4RG+QV3yr2INBFmr169ovfee89ssi/HlkPHVKWDtg5Cju7IAY3Cyq9Pu9z44ipdVtFaTPHglJnXBqNZg9FsEreaDGyVFahPmxIZwTWhXTCrJwwUrTa1fZk1mpjry98MkCOVx2Cxa7E4EFnkXWx+comiYe77uLTbjlf8uppifJcUX3ky1SJ5ENxsnCIzCeinIHUMItdPZUW5bF1pi03DMtTCVMWHJMH2TQjXaVHLfc9PfobC59o6o92IyWLDxbMYFhX4zHjvOLhtWzsHQRRIULWvX2PFUVaQRS2MSdrzRdlg5O6z5BiwsHXNtZOaBYkdL6Iry7ohZ8UVWTFUeuDAY/p5XUxrER/nVecq4zHU1Md8C2SlrlRYRUIpj+5c3w5ry6LumhnRWzCb+WXOmPErdzkKzcbsufeovT5jQiBW4/EQGuUX3CmPIiatvxstYjrOJJrws1gYs/KLptww77qJJRFTmWvgZlZfP6A5snTEmBe18gz3z580XC3V+J3mHd8G4Vp0+Zs0BxOVEPPVMrO/t256keJFway4G0/qtvYua9lifVZjKwKq7PX5x66dlPMUxV9kkbrS4s/HOtkJv1EZ6pgvEQ/unNlPKhfQAteQ1XXl86w+OB0SSGzQbTi4e9OYsubomD8pnyiGdP1qt/LCL9etKUOzqc7deAzQ1itfFk7UmSf26p50FUwQ/6w82H4RArGN21fKJX9dwsj97fqEpDcRlry4cH/bfHG+8wViEKj6eg4nBLyOz0WqFTyzwhP8gxB6MeUsXO6vFM5j8uAJp1/qXPdnE4eZtpHyNV2f08KUFxPxwZdIUcAW78PwNUahkGwMsPRbXeyNF09z65XnDedeTuIAxY3LjTGJT12AoiBrlN/FKJXr3L4BAo/kwYHcIhaxT3DNN3Ob84ILY9b1bviAgHMj1LnDrPXKr14jkr7bc3cy+cS8iCXE5Kn85GNqyUpdvkUXm9A0/mnWfcWVNcMlNTlNy5cLOH0izly7cE6lUSxWV/3dWU+Izi9Dcfvl156c1lyzFi0WhXyCzT4v1Edu0QpIGd3ELZLEn1kx8VX3V4p1ES7jBTau03LnVqK+6RiQLbwWwL76ZPaCxPQLFn/+nWm2/uWNCFE0HnauY1/17TYRlj2KN5F8cXuhbIHYvVZ530yub1/Hoes0Fbf2dQ2zx1j/pGMU2wdExzXtVtrQ2YZKHy+OxF2Z9Gfpd/J9nZbyNW2fU+eZ06p1FgSsOc+LFLmPtIM0z28ON+hSNXLJn/RLvZg4oOPGY/bcenVxgnxC+FwWK/LKj+SJz0UIgkyu5wVTs/wuQrlcQVO+9Pz589+7fQAeNfb9TnZpmz/uDgC4f0wflXearSjmD4CHziOxpAEAAAAAPC4g0gAAAAAA1hCINAAAAACANQQxaQAAAAAAawgsaQAAAAAAawhEGgAAAADAGgKRBgAAAACwhkCkAQAAAACsIRBpAAAAAABrCEQaAAAAAMAaApEGAAAAALCGQKSBxsjv6vkf3B09tV/JHYxC3i/sLxEDAO4L1R+f3FgEGmPnrHv4UXfTPv2P1t+Mhy/S9k/ownXWN4XeOhi5z1ZUYKtjQCOfbr1dnNC9JVMNfHqDKFkC3S71dp/125h9Ormopn3920E53evX98GNkHGqt0nnRy/oxYsXtNt3x58KbmyBOH0awJJ2D1jh2KO2+/v+cYKxtz4pesiY1dvhDrXc37OwbeEWV3puQG8ssIxQP6SdQuJbO4e3m9ZVMTk1k7ffjs6Jdg7vb1IzdYwZdWUMtnicmo7pbOgOAPCIgUi7Y2TAjlpoQqdqMnnx4pSP3DUi0JRgzCa4F6d3n6IHDYuig6BwpmG1X61fa/W5VV0sgquhWDQYC4VPUJr22Aza1HsQ1sDIcO+Yzqec8i0IJfAIGO7RNvfJJ2dBfKJApN0lPAnGOfCcjl7sUtrP+rS7vUd3uUAcjKJAm54f0Yu85/d3aXsPS9bGdDaiKJqcUVp0d1+/zWHR2NUCbTtJe3/3yAgdQ2uHXj4ovTOkt1duFwAAHhD3ItI2Njbo448/ps8++8xssi/H7hIdBO+33CVUOSezIKSB9DHGrM6zYcz0jsnZvMm6JmYtu3iaBhFd+vx5sTgDikma0NkNxNi8suITijFaaZmrPPP3B/6aMyw3pXqs5ju97n6elkqF5bFNS7r42t1y+Vdcim3q6fs0KiudRv6euabb958pM511Vc5we+53qRMMgCVX0pD2zqIdUKxSuuxr6zEpu2qbToo+5EGuNwj5s9d2363rXDPZp2ebnK3rsfvbkZdzoZ3NbdeVPKn8uvyYamj3aj8vfreASYu5/4x7GuznyXiQFnSlHuraRbV/ZfeaW4Z5X5rVVuxWW8XuXqY8eaFwKOcn96veq9pe5pVNSnBVZ/ksltessjB1nY9LLr15mZlzZ7QFd5+Y7EKe9P2zdlbNbqHcKvVoSecXuZa9d6U85raLKratFfKdl525tv27mh53zhzmtmtDtW2W20p+3oy6W4J7EWkffvghffDBB0aYySb7cuyukIo9LAXdBGyjrZxjBoZyBbR782LM7ERhmVI+X1TYf0bhdI0M9jUtsd3L3Wct2jmY0Tn0PabXNC9JZRqWlbYwKUQ8FAc8/n5vZh1ZOhvFq9LOYY1AlXTlLkAu01ik0uHymCwWUWnB1tN/HS1OJh3SaWvSUseiZbVI+upQ95yOz8oLiPE1t1zH5jNi1Rbct61ON7azwZayzr621mIz0Fb7iLTZUp5aO71iXNwyDEZSn9kiRNLD7eDq1Lt0j+icuG2oyUQG8sOdKxWSwOdoi5yZLHq0eX7kPhe3sAhu1+77u+4Y74cwAmc9l/ur4Pdw3lw6dPBmiy7dd0yapuqeis3uBW1duvO8hdzVg07zCxu0VxlX7DhJ9WmcW4YyNnDZX6kQCr5XLELpa1laZhWCc/OZU4wngs/3lmlTF9m9JLxAxsuCQCiWTR1yjQOiY39dToD0xaS45pVF/5L7Sos6XZ2SDpnhq9Uhfdgs5ieXmZdlPtKXQp64nKc81h1csBjpXtuy4u2IB6d2LxuPBi+pM1Z1IOUm42SSQTvO9zZdubvzeOCpznsN+tYq6Byo/PJm8zZPqPn5Svdr32/Tctk/6RKfFM4xZcptIRmvCmOALZYbjseKexFp77//vtuLlI7dDsp65Du6qwA/eOyfHLgJQsfl+HiiNnWLE2WMLyv3edchDVf0dp7Ryg1IoeJ5C+NXe6syIBtCflTsUzYAJGgxcPV2jmWvTOOychNW3GRysR8lE7zCuF/l3Bkuwv6uviZv0pHMJ/mAGJm4jied2uPjlaRjhu4VJtaY1vkMaW9blb/BizU9eetr+rbjJvAlyioVAZIG3lcTni/LOtf1flxBLECfLv0tVDuL15rS2JjkeDL2g5aKefTl39p5WWjPsT3ZNPdpV77XJBBHJlW1srUDuQ4t4IFaXLuclng5LrNjO7F5V65ZACSTJZ+zG9vi4CWLfe5zx6pM+7tS93VjRMSUUWax7O/m4Q8FOEnjI32eb2/Ve7auzrKxyOZb2kLSDmSskbaiLb880fbaJbe3v3eTMrRj3uRSJYLvtesvaBaJvo04uO03qeIcUxfStpIvc5txYiV3z1fLZhbcP/UY5BZiMcaxSVnYvlJZzEwnNJm2aKPjjrn5KSmzpuj7czmL4bvF5X9+HNM+NAurbGzkMk/HhT69lgzyQiym9aVZ6CTl4MvX/WVp1rdujukISR0O97bNHNnuzhCDPh9ZqJEN5+BxWiVQrpe0EV+msbJCu0vKj8tTzy035QnGpI3p2pcfNxoxmRvlHQaPfeoGv4+fXGWLKwZdSZ5gMVg1ymwcxfkmPSu0wuhCdZ3MoAeAVbNEWckqy5yjrFWtDR7OcxZzvwazN6/g4mULGedJ9bWrKDtgOcyApPPDHTmOeImrbz5OUFQGMF6tLbKabFxWPJn6TN0x/ajSXDtTZehFiLKsaQEVra+F9lyJ51sAmayNELTitt3LrEzGtVsos+Fbs1DbdIkZy0CRr5wDbjKthC3Y8aXY9hRDCZKT8Wf2sr9K0RVdvmfVvWvznYgiT2bpmfsEZaMytOmqWG485lwZN6pWwMWYIWyGZzSWNGQPjVTKZhYVq5aLcfQipmF7Mn1F9V8p4+n4NV3ySSF9TrgukjxPnn/TfpsYBBzadWj6ZpbWorfF5THQsCxuTrkdmzwXx0hLvZVySGe2oWRtkUXnRSwXMwcH8Vrf7kz/XhH3ItI+/fRTtxcpHbsdnKp3fwliIpUKaDxe6hWG42puT1DikKesbMyo4idoJTpWjnZf1VnnboorqxAD0NQM3Mj9GjvQCq3Lq0MsFLlYa7CaXLisFhiI69CDSq21rmR5NZO7xUw0ZpC2f8+Pu/RUFxILTaK1cF93Vqae7twmH3pR4bfUdSMrae/aMp9rge1CBfzYETclqGch1lJpF0G03lSoVKmMSTVu9CouNGOWdb1RGUr5iwcgnpcKXlnMiJAWV5P9fFHNaqgLDZnB/PF6ARq2J9tX/NgvE7wVGka8ufF3v9uh1ixxfAv48aZHVSu3pUF78DQti3tBhxzNx4rWw8QVrJwTS7W7ZbgXkfbRRx/RJ598QtfX12aTfTm2FFrJV8STrhQ1kfnJU7sFmcqKmz9NX5HhtqWe0HNK3THTJMufGJOxgVclzu2zShOqwa0yLfNdNLOZVVYDehlmrnhe0uCXwZiu3X6wnuSuxjXAmcmbcUtlNQ8ltrTrUmNWoY64elQuT+l/QQhMqGTYCC7sbEvcCivFWZW1K88sTmK/yrfcdWGPc7sylnc3Rrhxx7vOK1uTDIVxyAuVBWMXM+YKW70om0mDp2EXKMMQkuAFb6LErJCTz2V8q4tRnEluzblrGpeFsyyKSjOuTifGTN8Ta7K1QtfGhN4G+/aVQaYdr6ITLtK3MlZmfapd4C/wlHdw989I8x21u3sRaSLMXr16Re+9957ZZF+OLYeOi9mhA9XBY7yUTA7eHTmgUVgRW7dUnAClo2gxla3AmcFo+RVv4l6TAb/i+vJpU/Frwe2jXXGrInXjFQPTubHWD5oNy0qtOHQ9qDl/KXTsUzCva9fawuhOrEWriqmah1hAc3MAD4RBc3Naq3OpcvfdUlnNc7+ZvhA6gqyEU8Egq8pQBEm8icwx7nss7g58RrVLQQnA1s5BKkS4bEa17Ws12PekcZ78QzRmcK2PWSzj4298XakJ98Z4i1+D0ISSgHbWy7nWoVn5Nv0mupCsq3eGdX2ZMvSxOgVPhOBjiua31ZwZdeHKZqkYr6Y0Lgs3XnL+T7hDRzEm6Zfvd3ncr3FH3yn5XFPnCmTy8XapvqWphj7oxWGkdA+X7hkWv/p27b4784GNQTYO17e7cpqX41HEpNlgXUtwTfAWY16y+CazIo6m2DD5uJVNIqayIOSbudX8QO/I0hFNwrbyDeH+Dd0oi5IFOeryM9ucDDcqK9NxLfH6Nzd/x5WXMq/frIKo/zrWz9JpzcohcVkH0a0FoU8/i9pVlpW2nLg0zbRSJG0hdVnEPnJOR/mKO4iwlglUFtJJMY2RTFwhXDbNXAbyJCCfv5Q/zC1GuL/5IG5Jj5Rverl9OhnFhVO+IDOuKK4dq4XcNblc8zLNv1eaGPZPRqlYdSJpvpdXiU0Dl4u0LxVrWY8V4pLvJM0S98oVPD0/DnGAVtiKdS/NS8xbkzLktCUfZpNoRaDbSXBxVzfXhYSwSBtP7ufKJltUrJ5m7UkYno1pykK7s6nFmBVBrU6HNu/Y1enHZi00tHHDY8d5bg+JYaG0eG1eFhXMOJK1b2PRcvsZ+YLPPsWtFuwF6tu1fFfFIZuxMxWC+p2ilpoxoJRmWbzz+JWWSTMeyYMDuUUsYt0r85+aMucFN+as693wAQHn4qhzXdrVlV9ZRyR9dd+5KSb2JnnaUDNvZdekrDJxyoh5vfSdhcgEpojx05u6O039ZNcQYdI0sdptmOBcAGq2SF4QG1hhWUleFvyibQvlMjQukaKrX1mzDVVXp7luli/Lzd7P1xj/RJ4LafDxZmlM2SFtXOr8yWAeP7eP7auxRFyhnCdWneoab6h7nY4RYYIzn/vJYTMVq+Z1HOmTlEWkLZ5tqMUdTxzi6m8aglFKMwsZeV1C6taRMUjaXVoGPYqWhkZlmCxYeCKUV2SoPrCZlJ19lcEsl1gtvt8m93OvRrhdhWZo1p4YE2IiUVupGLPijY83iftaKW68UeV2QMeFuUbGeS7fxLAgr4KpjhWNy6KCS4u+x9aluVYVGU/PaCNZSMr4P68P1bRr82oR1bfd2Cli058jT4lXkiL9KTuvPs3L8aXnz5//3u0DAABYU8x72zpjOloqJhaA20As3D3zPrE70MIWsfwedmjcZFHzCHgkljQAAAAA3CmN3fRgWSDSAAAAAFCPWK/ygKpCLCNYPRBpAAAAAKhHHjBI4v14K8YyglWDmDQAAAAAgDUEljQAAAAAgDUEIg0AAAAAYA2BSAMAAAAAWEMg0gAAAAAA1hCINAAAAACANQQiDQAAAABgDYFIAwAAAABYQyDSAAAAAADWEIg0AAAAAIC1g+j/D/9Dnf4utCLyAAAAAElFTkSuQmCC;" vertex="1" parent="1">
          <mxGeometry x="42.44" y="180" width="196.11" height="130" as="geometry" />
        </mxCell>
      </root>
    </mxGraphModel>
  </diagram>
</mxfile>
